G04 #@! TF.FileFunction,Copper,L3,Inr,Signal*
%FSLAX46Y46*%
G04 Gerber Fmt 4.6, Leading zero omitted, Abs format (unit mm)*
G04 Created by KiCad (PCBNEW 4.0.2+dfsg1-stable) date Thu 26 Jul 2018 23:23:47 BST*
%MOMM*%
G01*
G04 APERTURE LIST*
%ADD10C,0.100000*%
%ADD11C,1.524000*%
%ADD12R,1.524000X1.524000*%
%ADD13R,1.727200X1.727200*%
%ADD14O,1.727200X1.727200*%
%ADD15C,0.800000*%
%ADD16C,0.254000*%
G04 APERTURE END LIST*
D10*
D11*
X170091100Y-116433600D03*
X170091100Y-118973600D03*
X167551100Y-116433600D03*
X167551100Y-118973600D03*
X165011100Y-116433600D03*
X165011100Y-118973600D03*
X162471100Y-116433600D03*
X162471100Y-118973600D03*
X159931100Y-116433600D03*
X159931100Y-118973600D03*
X157391100Y-116433600D03*
X157391100Y-118973600D03*
X154851100Y-116433600D03*
X154851100Y-118973600D03*
X152311100Y-116433600D03*
X152311100Y-118973600D03*
X149771100Y-116433600D03*
X149771100Y-118973600D03*
X147231100Y-116433600D03*
X147231100Y-118973600D03*
X144691100Y-116433600D03*
X144691100Y-118973600D03*
X142151100Y-116433600D03*
X142151100Y-118973600D03*
X139611100Y-116433600D03*
X139611100Y-118973600D03*
X137071100Y-116433600D03*
X137071100Y-118973600D03*
X134531100Y-116433600D03*
X134531100Y-118973600D03*
X131991100Y-116433600D03*
X131991100Y-118973600D03*
X129451100Y-116433600D03*
X129451100Y-118973600D03*
X126911100Y-116433600D03*
D12*
X126911100Y-118973600D03*
D11*
X170091100Y-91033600D03*
X170091100Y-93573600D03*
X167551100Y-91033600D03*
X167551100Y-93573600D03*
X165011100Y-91033600D03*
X165011100Y-93573600D03*
X162471100Y-91033600D03*
X162471100Y-93573600D03*
X159931100Y-91033600D03*
X159931100Y-93573600D03*
X157391100Y-91033600D03*
X157391100Y-93573600D03*
X154851100Y-91033600D03*
X154851100Y-93573600D03*
X152311100Y-91033600D03*
X152311100Y-93573600D03*
X149771100Y-91033600D03*
X149771100Y-93573600D03*
X147231100Y-91033600D03*
X147231100Y-93573600D03*
X144691100Y-91033600D03*
X144691100Y-93573600D03*
X142151100Y-91033600D03*
X142151100Y-93573600D03*
X139611100Y-91033600D03*
X139611100Y-93573600D03*
X137071100Y-91033600D03*
X137071100Y-93573600D03*
X134531100Y-91033600D03*
X134531100Y-93573600D03*
X131991100Y-91033600D03*
X131991100Y-93573600D03*
X129451100Y-91033600D03*
X129451100Y-93573600D03*
X126911100Y-91033600D03*
D12*
X126911100Y-93573600D03*
D13*
X133858000Y-103759000D03*
D14*
X133858000Y-106299000D03*
X136398000Y-103759000D03*
X136398000Y-106299000D03*
X138938000Y-103759000D03*
X138938000Y-106299000D03*
X141478000Y-103759000D03*
X141478000Y-106299000D03*
X144018000Y-103759000D03*
X144018000Y-106299000D03*
X146558000Y-103759000D03*
X146558000Y-106299000D03*
X149098000Y-103759000D03*
X149098000Y-106299000D03*
X151638000Y-103759000D03*
X151638000Y-106299000D03*
X154178000Y-103759000D03*
X154178000Y-106299000D03*
X156718000Y-103759000D03*
X156718000Y-106299000D03*
X159258000Y-103759000D03*
X159258000Y-106299000D03*
X161798000Y-103759000D03*
X161798000Y-106299000D03*
X164338000Y-103759000D03*
X164338000Y-106299000D03*
D15*
X167259000Y-114808000D03*
X131191000Y-113411000D03*
X129032000Y-101600000D03*
X166751000Y-109728000D03*
X173863000Y-103886000D03*
X170053000Y-101600000D03*
X145923000Y-109728000D03*
X140716000Y-109728000D03*
X160655000Y-101600000D03*
X151130000Y-109728000D03*
X156337000Y-109728000D03*
X161544000Y-109728000D03*
X135382000Y-100330000D03*
X123444000Y-100203000D03*
X165862000Y-101600000D03*
X155321000Y-101600000D03*
X149987000Y-101600000D03*
X144653000Y-101600000D03*
X139446000Y-101600000D03*
X123190000Y-115951000D03*
X134239000Y-108458000D03*
X167259000Y-112395000D03*
X124587000Y-106807000D03*
X168275000Y-106680000D03*
X170561000Y-102616000D03*
X172339000Y-95885000D03*
X130048000Y-95885000D03*
X164592000Y-95885000D03*
X159385000Y-95885000D03*
X154051000Y-95885000D03*
X148717000Y-95885000D03*
X143383000Y-95885000D03*
X138176000Y-95885000D03*
X132842000Y-95885000D03*
X132969000Y-114173000D03*
X138176000Y-114173000D03*
X143383000Y-114173000D03*
X148590000Y-114173000D03*
X153797000Y-114173000D03*
X159004000Y-114173000D03*
X164211000Y-114173000D03*
X124333000Y-112395000D03*
X173863000Y-112268000D03*
X131191000Y-110998000D03*
X172212000Y-113665000D03*
X170434000Y-108839000D03*
X169545000Y-109474000D03*
X173863000Y-109474000D03*
X148590000Y-89535000D03*
X131445000Y-96774000D03*
X123063000Y-109474000D03*
X169545000Y-113665000D03*
X167259000Y-113665000D03*
X128651000Y-112522000D03*
X131572000Y-120523000D03*
X169545000Y-112395000D03*
X126619000Y-108966000D03*
X171069000Y-113665000D03*
X162433000Y-112395000D03*
X128270000Y-108331000D03*
X127762000Y-102235000D03*
X131191000Y-99949000D03*
X137795000Y-101600000D03*
X125857000Y-98806000D03*
X167640000Y-103886000D03*
X143002000Y-101600000D03*
X169418000Y-106680000D03*
X148336000Y-101600000D03*
X146558000Y-98806000D03*
X153670000Y-101600000D03*
X169926000Y-103886000D03*
X151511000Y-98933000D03*
X159004000Y-101600000D03*
X171958000Y-107315000D03*
X157734000Y-98171000D03*
X172212000Y-101727000D03*
X162941000Y-97409000D03*
X164211000Y-101600000D03*
X163068000Y-105029000D03*
X158623000Y-108077000D03*
X153416000Y-108458000D03*
X123825000Y-108077000D03*
X148209000Y-108458000D03*
X126111000Y-106807000D03*
X125095000Y-101981000D03*
X143002000Y-108458000D03*
X124714000Y-99822000D03*
X130302000Y-102743000D03*
D16*
X169545000Y-109474000D02*
X169545000Y-108839000D01*
X166243000Y-92265500D02*
X165011100Y-91033600D01*
X166243000Y-94107000D02*
X166243000Y-92265500D01*
X167132000Y-94996000D02*
X166243000Y-94107000D01*
X167132000Y-102489000D02*
X167132000Y-94996000D01*
X166116000Y-103505000D02*
X167132000Y-102489000D01*
X166116000Y-107061000D02*
X166116000Y-103505000D01*
X167132000Y-108077000D02*
X166116000Y-107061000D01*
X168783000Y-108077000D02*
X167132000Y-108077000D01*
X169545000Y-108839000D02*
X168783000Y-108077000D01*
X164211000Y-101600000D02*
X164211000Y-101473000D01*
X152908000Y-107950000D02*
X153416000Y-108458000D01*
X152908000Y-105410000D02*
X152908000Y-107950000D01*
X152527000Y-105029000D02*
X152908000Y-105410000D01*
X130302000Y-105029000D02*
X152527000Y-105029000D01*
X127254000Y-108077000D02*
X130302000Y-105029000D01*
X123825000Y-108077000D02*
X127254000Y-108077000D01*
G36*
X169550905Y-88933610D02*
X172560287Y-90944414D01*
X174571089Y-93953793D01*
X175291100Y-97573531D01*
X175291100Y-112433669D01*
X174571089Y-116053407D01*
X172560287Y-119062786D01*
X169550905Y-121073590D01*
X165931169Y-121793600D01*
X131071031Y-121793600D01*
X127451293Y-121073589D01*
X126417813Y-120383040D01*
X127673100Y-120383040D01*
X127908417Y-120338762D01*
X128124541Y-120199690D01*
X128269531Y-119987490D01*
X128306592Y-119804476D01*
X128658730Y-120157229D01*
X129172000Y-120370357D01*
X129727761Y-120370842D01*
X130241403Y-120158610D01*
X130634729Y-119765970D01*
X130721049Y-119558088D01*
X130806090Y-119763903D01*
X130836708Y-119794574D01*
X130695081Y-119935954D01*
X130537180Y-120316223D01*
X130536821Y-120727971D01*
X130694058Y-121108515D01*
X130984954Y-121399919D01*
X131365223Y-121557820D01*
X131776971Y-121558179D01*
X132157515Y-121400942D01*
X132448919Y-121110046D01*
X132606820Y-120729777D01*
X132607179Y-120318029D01*
X132576321Y-120243348D01*
X132781403Y-120158610D01*
X133174729Y-119765970D01*
X133261049Y-119558088D01*
X133346090Y-119763903D01*
X133738730Y-120157229D01*
X134252000Y-120370357D01*
X134807761Y-120370842D01*
X135321403Y-120158610D01*
X135714729Y-119765970D01*
X135801049Y-119558088D01*
X135886090Y-119763903D01*
X136278730Y-120157229D01*
X136792000Y-120370357D01*
X137347761Y-120370842D01*
X137861403Y-120158610D01*
X138254729Y-119765970D01*
X138341049Y-119558088D01*
X138426090Y-119763903D01*
X138818730Y-120157229D01*
X139332000Y-120370357D01*
X139887761Y-120370842D01*
X140401403Y-120158610D01*
X140794729Y-119765970D01*
X140881049Y-119558088D01*
X140966090Y-119763903D01*
X141358730Y-120157229D01*
X141872000Y-120370357D01*
X142427761Y-120370842D01*
X142941403Y-120158610D01*
X143146557Y-119953813D01*
X143890492Y-119953813D01*
X143959957Y-120195997D01*
X144483402Y-120382744D01*
X145038468Y-120354962D01*
X145422243Y-120195997D01*
X145491708Y-119953813D01*
X144691100Y-119153205D01*
X143890492Y-119953813D01*
X143146557Y-119953813D01*
X143334729Y-119765970D01*
X143414495Y-119573873D01*
X143468703Y-119704743D01*
X143710887Y-119774208D01*
X144511495Y-118973600D01*
X143710887Y-118172992D01*
X143468703Y-118242457D01*
X143418591Y-118382918D01*
X143336110Y-118183297D01*
X142943470Y-117789971D01*
X142735588Y-117703651D01*
X142941403Y-117618610D01*
X143146557Y-117413813D01*
X143890492Y-117413813D01*
X143959957Y-117655997D01*
X144083444Y-117700053D01*
X143959957Y-117751203D01*
X143890492Y-117993387D01*
X144691100Y-118793995D01*
X145491708Y-117993387D01*
X145422243Y-117751203D01*
X145298756Y-117707147D01*
X145422243Y-117655997D01*
X145491708Y-117413813D01*
X144691100Y-116613205D01*
X143890492Y-117413813D01*
X143146557Y-117413813D01*
X143334729Y-117225970D01*
X143414495Y-117033873D01*
X143468703Y-117164743D01*
X143710887Y-117234208D01*
X144511495Y-116433600D01*
X144870705Y-116433600D01*
X145671313Y-117234208D01*
X145913497Y-117164743D01*
X145963609Y-117024282D01*
X146046090Y-117223903D01*
X146438730Y-117617229D01*
X146646612Y-117703549D01*
X146440797Y-117788590D01*
X146047471Y-118181230D01*
X145967705Y-118373327D01*
X145913497Y-118242457D01*
X145671313Y-118172992D01*
X144870705Y-118973600D01*
X145671313Y-119774208D01*
X145913497Y-119704743D01*
X145963609Y-119564282D01*
X146046090Y-119763903D01*
X146438730Y-120157229D01*
X146952000Y-120370357D01*
X147507761Y-120370842D01*
X148021403Y-120158610D01*
X148414729Y-119765970D01*
X148501049Y-119558088D01*
X148586090Y-119763903D01*
X148978730Y-120157229D01*
X149492000Y-120370357D01*
X150047761Y-120370842D01*
X150561403Y-120158610D01*
X150954729Y-119765970D01*
X151041049Y-119558088D01*
X151126090Y-119763903D01*
X151518730Y-120157229D01*
X152032000Y-120370357D01*
X152587761Y-120370842D01*
X153101403Y-120158610D01*
X153494729Y-119765970D01*
X153581049Y-119558088D01*
X153666090Y-119763903D01*
X154058730Y-120157229D01*
X154572000Y-120370357D01*
X155127761Y-120370842D01*
X155641403Y-120158610D01*
X156034729Y-119765970D01*
X156121049Y-119558088D01*
X156206090Y-119763903D01*
X156598730Y-120157229D01*
X157112000Y-120370357D01*
X157667761Y-120370842D01*
X158181403Y-120158610D01*
X158574729Y-119765970D01*
X158661049Y-119558088D01*
X158746090Y-119763903D01*
X159138730Y-120157229D01*
X159652000Y-120370357D01*
X160207761Y-120370842D01*
X160721403Y-120158610D01*
X161114729Y-119765970D01*
X161201049Y-119558088D01*
X161286090Y-119763903D01*
X161678730Y-120157229D01*
X162192000Y-120370357D01*
X162747761Y-120370842D01*
X163261403Y-120158610D01*
X163654729Y-119765970D01*
X163741049Y-119558088D01*
X163826090Y-119763903D01*
X164218730Y-120157229D01*
X164732000Y-120370357D01*
X165287761Y-120370842D01*
X165801403Y-120158610D01*
X166194729Y-119765970D01*
X166281049Y-119558088D01*
X166366090Y-119763903D01*
X166758730Y-120157229D01*
X167272000Y-120370357D01*
X167827761Y-120370842D01*
X168341403Y-120158610D01*
X168734729Y-119765970D01*
X168821049Y-119558088D01*
X168906090Y-119763903D01*
X169298730Y-120157229D01*
X169812000Y-120370357D01*
X170367761Y-120370842D01*
X170881403Y-120158610D01*
X171274729Y-119765970D01*
X171487857Y-119252700D01*
X171488342Y-118696939D01*
X171276110Y-118183297D01*
X170883470Y-117789971D01*
X170675588Y-117703651D01*
X170881403Y-117618610D01*
X171274729Y-117225970D01*
X171487857Y-116712700D01*
X171488342Y-116156939D01*
X171276110Y-115643297D01*
X170883470Y-115249971D01*
X170370200Y-115036843D01*
X169814439Y-115036358D01*
X169300797Y-115248590D01*
X168907471Y-115641230D01*
X168821151Y-115849112D01*
X168736110Y-115643297D01*
X168343470Y-115249971D01*
X167830200Y-115036843D01*
X167274439Y-115036358D01*
X166760797Y-115248590D01*
X166367471Y-115641230D01*
X166281151Y-115849112D01*
X166196110Y-115643297D01*
X165803470Y-115249971D01*
X165290200Y-115036843D01*
X164811057Y-115036425D01*
X165087919Y-114760046D01*
X165245820Y-114379777D01*
X165246179Y-113968029D01*
X165088942Y-113587485D01*
X164798046Y-113296081D01*
X164417777Y-113138180D01*
X164006029Y-113137821D01*
X163625485Y-113295058D01*
X163334081Y-113585954D01*
X163176180Y-113966223D01*
X163175821Y-114377971D01*
X163333058Y-114758515D01*
X163623954Y-115049919D01*
X164004223Y-115207820D01*
X164318804Y-115208094D01*
X164220797Y-115248590D01*
X163827471Y-115641230D01*
X163741151Y-115849112D01*
X163656110Y-115643297D01*
X163263470Y-115249971D01*
X162750200Y-115036843D01*
X162194439Y-115036358D01*
X161680797Y-115248590D01*
X161287471Y-115641230D01*
X161201151Y-115849112D01*
X161116110Y-115643297D01*
X160723470Y-115249971D01*
X160210200Y-115036843D01*
X159654439Y-115036358D01*
X159140797Y-115248590D01*
X158747471Y-115641230D01*
X158661151Y-115849112D01*
X158576110Y-115643297D01*
X158183470Y-115249971D01*
X157670200Y-115036843D01*
X157114439Y-115036358D01*
X156600797Y-115248590D01*
X156207471Y-115641230D01*
X156121151Y-115849112D01*
X156036110Y-115643297D01*
X155643470Y-115249971D01*
X155130200Y-115036843D01*
X154574439Y-115036358D01*
X154060797Y-115248590D01*
X153667471Y-115641230D01*
X153587705Y-115833327D01*
X153533497Y-115702457D01*
X153291313Y-115632992D01*
X152490705Y-116433600D01*
X153291313Y-117234208D01*
X153533497Y-117164743D01*
X153583609Y-117024282D01*
X153666090Y-117223903D01*
X154058730Y-117617229D01*
X154266612Y-117703549D01*
X154060797Y-117788590D01*
X153667471Y-118181230D01*
X153581151Y-118389112D01*
X153496110Y-118183297D01*
X153103470Y-117789971D01*
X152911373Y-117710205D01*
X153042243Y-117655997D01*
X153111708Y-117413813D01*
X152311100Y-116613205D01*
X151510492Y-117413813D01*
X151579957Y-117655997D01*
X151720418Y-117706109D01*
X151520797Y-117788590D01*
X151127471Y-118181230D01*
X151041151Y-118389112D01*
X150956110Y-118183297D01*
X150563470Y-117789971D01*
X150355588Y-117703651D01*
X150561403Y-117618610D01*
X150954729Y-117225970D01*
X151034495Y-117033873D01*
X151088703Y-117164743D01*
X151330887Y-117234208D01*
X152131495Y-116433600D01*
X151330887Y-115632992D01*
X151088703Y-115702457D01*
X151038591Y-115842918D01*
X150956110Y-115643297D01*
X150766532Y-115453387D01*
X151510492Y-115453387D01*
X152311100Y-116253995D01*
X153111708Y-115453387D01*
X153042243Y-115211203D01*
X152518798Y-115024456D01*
X151963732Y-115052238D01*
X151579957Y-115211203D01*
X151510492Y-115453387D01*
X150766532Y-115453387D01*
X150563470Y-115249971D01*
X150050200Y-115036843D01*
X149494439Y-115036358D01*
X148980797Y-115248590D01*
X148587471Y-115641230D01*
X148501151Y-115849112D01*
X148416110Y-115643297D01*
X148023470Y-115249971D01*
X147510200Y-115036843D01*
X146954439Y-115036358D01*
X146440797Y-115248590D01*
X146047471Y-115641230D01*
X145967705Y-115833327D01*
X145913497Y-115702457D01*
X145671313Y-115632992D01*
X144870705Y-116433600D01*
X144511495Y-116433600D01*
X143710887Y-115632992D01*
X143468703Y-115702457D01*
X143418591Y-115842918D01*
X143336110Y-115643297D01*
X143146532Y-115453387D01*
X143890492Y-115453387D01*
X144691100Y-116253995D01*
X145491708Y-115453387D01*
X145422243Y-115211203D01*
X144898798Y-115024456D01*
X144343732Y-115052238D01*
X143959957Y-115211203D01*
X143890492Y-115453387D01*
X143146532Y-115453387D01*
X142943470Y-115249971D01*
X142430200Y-115036843D01*
X141874439Y-115036358D01*
X141360797Y-115248590D01*
X140967471Y-115641230D01*
X140881151Y-115849112D01*
X140796110Y-115643297D01*
X140403470Y-115249971D01*
X139890200Y-115036843D01*
X139334439Y-115036358D01*
X138820797Y-115248590D01*
X138427471Y-115641230D01*
X138341151Y-115849112D01*
X138256110Y-115643297D01*
X137863470Y-115249971D01*
X137350200Y-115036843D01*
X136794439Y-115036358D01*
X136280797Y-115248590D01*
X135887471Y-115641230D01*
X135801151Y-115849112D01*
X135716110Y-115643297D01*
X135323470Y-115249971D01*
X134810200Y-115036843D01*
X134254439Y-115036358D01*
X133740797Y-115248590D01*
X133347471Y-115641230D01*
X133261151Y-115849112D01*
X133176110Y-115643297D01*
X132783470Y-115249971D01*
X132270200Y-115036843D01*
X131714439Y-115036358D01*
X131200797Y-115248590D01*
X130807471Y-115641230D01*
X130721151Y-115849112D01*
X130636110Y-115643297D01*
X130243470Y-115249971D01*
X129730200Y-115036843D01*
X129174439Y-115036358D01*
X128660797Y-115248590D01*
X128267471Y-115641230D01*
X128181151Y-115849112D01*
X128096110Y-115643297D01*
X127703470Y-115249971D01*
X127190200Y-115036843D01*
X126634439Y-115036358D01*
X126120797Y-115248590D01*
X125727471Y-115641230D01*
X125514343Y-116154500D01*
X125513858Y-116710261D01*
X125726090Y-117223903D01*
X126078933Y-117577363D01*
X125913783Y-117608438D01*
X125697659Y-117747510D01*
X125552669Y-117959710D01*
X125501660Y-118211600D01*
X125501660Y-119735600D01*
X125509254Y-119775961D01*
X124441914Y-119062787D01*
X122431110Y-116053405D01*
X122097846Y-114377971D01*
X131933821Y-114377971D01*
X132091058Y-114758515D01*
X132381954Y-115049919D01*
X132762223Y-115207820D01*
X133173971Y-115208179D01*
X133554515Y-115050942D01*
X133845919Y-114760046D01*
X134003820Y-114379777D01*
X134003821Y-114377971D01*
X137140821Y-114377971D01*
X137298058Y-114758515D01*
X137588954Y-115049919D01*
X137969223Y-115207820D01*
X138380971Y-115208179D01*
X138761515Y-115050942D01*
X139052919Y-114760046D01*
X139210820Y-114379777D01*
X139210821Y-114377971D01*
X142347821Y-114377971D01*
X142505058Y-114758515D01*
X142795954Y-115049919D01*
X143176223Y-115207820D01*
X143587971Y-115208179D01*
X143968515Y-115050942D01*
X144259919Y-114760046D01*
X144417820Y-114379777D01*
X144417821Y-114377971D01*
X147554821Y-114377971D01*
X147712058Y-114758515D01*
X148002954Y-115049919D01*
X148383223Y-115207820D01*
X148794971Y-115208179D01*
X149175515Y-115050942D01*
X149466919Y-114760046D01*
X149624820Y-114379777D01*
X149624821Y-114377971D01*
X152761821Y-114377971D01*
X152919058Y-114758515D01*
X153209954Y-115049919D01*
X153590223Y-115207820D01*
X154001971Y-115208179D01*
X154382515Y-115050942D01*
X154673919Y-114760046D01*
X154831820Y-114379777D01*
X154831821Y-114377971D01*
X157968821Y-114377971D01*
X158126058Y-114758515D01*
X158416954Y-115049919D01*
X158797223Y-115207820D01*
X159208971Y-115208179D01*
X159589515Y-115050942D01*
X159880919Y-114760046D01*
X160038820Y-114379777D01*
X160039179Y-113968029D01*
X159881942Y-113587485D01*
X159591046Y-113296081D01*
X159210777Y-113138180D01*
X158799029Y-113137821D01*
X158418485Y-113295058D01*
X158127081Y-113585954D01*
X157969180Y-113966223D01*
X157968821Y-114377971D01*
X154831821Y-114377971D01*
X154832179Y-113968029D01*
X154674942Y-113587485D01*
X154384046Y-113296081D01*
X154003777Y-113138180D01*
X153592029Y-113137821D01*
X153211485Y-113295058D01*
X152920081Y-113585954D01*
X152762180Y-113966223D01*
X152761821Y-114377971D01*
X149624821Y-114377971D01*
X149625179Y-113968029D01*
X149467942Y-113587485D01*
X149177046Y-113296081D01*
X148796777Y-113138180D01*
X148385029Y-113137821D01*
X148004485Y-113295058D01*
X147713081Y-113585954D01*
X147555180Y-113966223D01*
X147554821Y-114377971D01*
X144417821Y-114377971D01*
X144418179Y-113968029D01*
X144260942Y-113587485D01*
X143970046Y-113296081D01*
X143589777Y-113138180D01*
X143178029Y-113137821D01*
X142797485Y-113295058D01*
X142506081Y-113585954D01*
X142348180Y-113966223D01*
X142347821Y-114377971D01*
X139210821Y-114377971D01*
X139211179Y-113968029D01*
X139053942Y-113587485D01*
X138763046Y-113296081D01*
X138382777Y-113138180D01*
X137971029Y-113137821D01*
X137590485Y-113295058D01*
X137299081Y-113585954D01*
X137141180Y-113966223D01*
X137140821Y-114377971D01*
X134003821Y-114377971D01*
X134004179Y-113968029D01*
X133846942Y-113587485D01*
X133556046Y-113296081D01*
X133175777Y-113138180D01*
X132764029Y-113137821D01*
X132383485Y-113295058D01*
X132092081Y-113585954D01*
X131934180Y-113966223D01*
X131933821Y-114377971D01*
X122097846Y-114377971D01*
X121744180Y-112599971D01*
X123297821Y-112599971D01*
X123455058Y-112980515D01*
X123745954Y-113271919D01*
X124126223Y-113429820D01*
X124537971Y-113430179D01*
X124918515Y-113272942D01*
X125209919Y-112982046D01*
X125315835Y-112726971D01*
X127615821Y-112726971D01*
X127773058Y-113107515D01*
X128063954Y-113398919D01*
X128444223Y-113556820D01*
X128855971Y-113557179D01*
X129236515Y-113399942D01*
X129527919Y-113109046D01*
X129685820Y-112728777D01*
X129685932Y-112599971D01*
X161397821Y-112599971D01*
X161555058Y-112980515D01*
X161845954Y-113271919D01*
X162226223Y-113429820D01*
X162637971Y-113430179D01*
X163018515Y-113272942D01*
X163309919Y-112982046D01*
X163467820Y-112601777D01*
X163467821Y-112599971D01*
X166223821Y-112599971D01*
X166381058Y-112980515D01*
X166430288Y-113029831D01*
X166382081Y-113077954D01*
X166224180Y-113458223D01*
X166223821Y-113869971D01*
X166381058Y-114250515D01*
X166671954Y-114541919D01*
X167052223Y-114699820D01*
X167463971Y-114700179D01*
X167844515Y-114542942D01*
X168135919Y-114252046D01*
X168293820Y-113871777D01*
X168294179Y-113460029D01*
X168136942Y-113079485D01*
X168087712Y-113030169D01*
X168135919Y-112982046D01*
X168293820Y-112601777D01*
X168293821Y-112599971D01*
X168509821Y-112599971D01*
X168667058Y-112980515D01*
X168716288Y-113029831D01*
X168668081Y-113077954D01*
X168510180Y-113458223D01*
X168509821Y-113869971D01*
X168667058Y-114250515D01*
X168957954Y-114541919D01*
X169338223Y-114699820D01*
X169749971Y-114700179D01*
X170130515Y-114542942D01*
X170307053Y-114366712D01*
X170481954Y-114541919D01*
X170862223Y-114699820D01*
X171273971Y-114700179D01*
X171640933Y-114548554D01*
X172005223Y-114699820D01*
X172416971Y-114700179D01*
X172797515Y-114542942D01*
X173088919Y-114252046D01*
X173246820Y-113871777D01*
X173247179Y-113460029D01*
X173089942Y-113079485D01*
X172799046Y-112788081D01*
X172418777Y-112630180D01*
X172007029Y-112629821D01*
X171640067Y-112781446D01*
X171275777Y-112630180D01*
X170864029Y-112629821D01*
X170506903Y-112777382D01*
X170579820Y-112601777D01*
X170579932Y-112472971D01*
X172827821Y-112472971D01*
X172985058Y-112853515D01*
X173275954Y-113144919D01*
X173656223Y-113302820D01*
X174067971Y-113303179D01*
X174448515Y-113145942D01*
X174739919Y-112855046D01*
X174897820Y-112474777D01*
X174898179Y-112063029D01*
X174740942Y-111682485D01*
X174450046Y-111391081D01*
X174069777Y-111233180D01*
X173658029Y-111232821D01*
X173277485Y-111390058D01*
X172986081Y-111680954D01*
X172828180Y-112061223D01*
X172827821Y-112472971D01*
X170579932Y-112472971D01*
X170580179Y-112190029D01*
X170422942Y-111809485D01*
X170132046Y-111518081D01*
X169751777Y-111360180D01*
X169340029Y-111359821D01*
X168959485Y-111517058D01*
X168668081Y-111807954D01*
X168510180Y-112188223D01*
X168509821Y-112599971D01*
X168293821Y-112599971D01*
X168294179Y-112190029D01*
X168136942Y-111809485D01*
X167846046Y-111518081D01*
X167465777Y-111360180D01*
X167054029Y-111359821D01*
X166673485Y-111517058D01*
X166382081Y-111807954D01*
X166224180Y-112188223D01*
X166223821Y-112599971D01*
X163467821Y-112599971D01*
X163468179Y-112190029D01*
X163310942Y-111809485D01*
X163020046Y-111518081D01*
X162639777Y-111360180D01*
X162228029Y-111359821D01*
X161847485Y-111517058D01*
X161556081Y-111807954D01*
X161398180Y-112188223D01*
X161397821Y-112599971D01*
X129685932Y-112599971D01*
X129686179Y-112317029D01*
X129528942Y-111936485D01*
X129238046Y-111645081D01*
X128857777Y-111487180D01*
X128446029Y-111486821D01*
X128065485Y-111644058D01*
X127774081Y-111934954D01*
X127616180Y-112315223D01*
X127615821Y-112726971D01*
X125315835Y-112726971D01*
X125367820Y-112601777D01*
X125368179Y-112190029D01*
X125210942Y-111809485D01*
X124920046Y-111518081D01*
X124539777Y-111360180D01*
X124128029Y-111359821D01*
X123747485Y-111517058D01*
X123456081Y-111807954D01*
X123298180Y-112188223D01*
X123297821Y-112599971D01*
X121744180Y-112599971D01*
X121711100Y-112433669D01*
X121711100Y-111202971D01*
X130155821Y-111202971D01*
X130313058Y-111583515D01*
X130603954Y-111874919D01*
X130984223Y-112032820D01*
X131395971Y-112033179D01*
X131776515Y-111875942D01*
X132067919Y-111585046D01*
X132225820Y-111204777D01*
X132226179Y-110793029D01*
X132068942Y-110412485D01*
X131778046Y-110121081D01*
X131397777Y-109963180D01*
X130986029Y-109962821D01*
X130605485Y-110120058D01*
X130314081Y-110410954D01*
X130156180Y-110791223D01*
X130155821Y-111202971D01*
X121711100Y-111202971D01*
X121711100Y-109678971D01*
X122027821Y-109678971D01*
X122185058Y-110059515D01*
X122475954Y-110350919D01*
X122856223Y-110508820D01*
X123267971Y-110509179D01*
X123648515Y-110351942D01*
X123939919Y-110061046D01*
X124097820Y-109680777D01*
X124098179Y-109269029D01*
X124032874Y-109110979D01*
X124410515Y-108954942D01*
X124526659Y-108839000D01*
X125584110Y-108839000D01*
X125583821Y-109170971D01*
X125741058Y-109551515D01*
X126031954Y-109842919D01*
X126412223Y-110000820D01*
X126823971Y-110001179D01*
X127204515Y-109843942D01*
X127495919Y-109553046D01*
X127652073Y-109176984D01*
X127682954Y-109207919D01*
X128063223Y-109365820D01*
X128474971Y-109366179D01*
X128855515Y-109208942D01*
X129146919Y-108918046D01*
X129304820Y-108537777D01*
X129305179Y-108126029D01*
X129147942Y-107745485D01*
X128905755Y-107502875D01*
X130617630Y-105791000D01*
X132454608Y-105791000D01*
X132359400Y-106269641D01*
X132359400Y-106328359D01*
X132473474Y-106901848D01*
X132798330Y-107388029D01*
X133284511Y-107712885D01*
X133858000Y-107826959D01*
X134431489Y-107712885D01*
X134917670Y-107388029D01*
X135128000Y-107073248D01*
X135338330Y-107388029D01*
X135824511Y-107712885D01*
X136398000Y-107826959D01*
X136971489Y-107712885D01*
X137457670Y-107388029D01*
X137668000Y-107073248D01*
X137878330Y-107388029D01*
X138364511Y-107712885D01*
X138938000Y-107826959D01*
X139511489Y-107712885D01*
X139997670Y-107388029D01*
X140208000Y-107073248D01*
X140418330Y-107388029D01*
X140904511Y-107712885D01*
X141478000Y-107826959D01*
X142051489Y-107712885D01*
X142537670Y-107388029D01*
X142748000Y-107073248D01*
X142958330Y-107388029D01*
X143010679Y-107423007D01*
X142797029Y-107422821D01*
X142416485Y-107580058D01*
X142125081Y-107870954D01*
X141967180Y-108251223D01*
X141966821Y-108662971D01*
X142124058Y-109043515D01*
X142414954Y-109334919D01*
X142795223Y-109492820D01*
X143206971Y-109493179D01*
X143587515Y-109335942D01*
X143878919Y-109045046D01*
X144036820Y-108664777D01*
X144037179Y-108253029D01*
X143879942Y-107872485D01*
X143789030Y-107781414D01*
X144018000Y-107826959D01*
X144591489Y-107712885D01*
X145077670Y-107388029D01*
X145293664Y-107064772D01*
X145351179Y-107187490D01*
X145783053Y-107581688D01*
X146198974Y-107753958D01*
X146431000Y-107632817D01*
X146431000Y-106426000D01*
X146685000Y-106426000D01*
X146685000Y-107632817D01*
X146917026Y-107753958D01*
X147332947Y-107581688D01*
X147764821Y-107187490D01*
X147828000Y-107052687D01*
X147891179Y-107187490D01*
X148149141Y-107422948D01*
X148004029Y-107422821D01*
X147623485Y-107580058D01*
X147332081Y-107870954D01*
X147174180Y-108251223D01*
X147173821Y-108662971D01*
X147331058Y-109043515D01*
X147621954Y-109334919D01*
X148002223Y-109492820D01*
X148413971Y-109493179D01*
X148794515Y-109335942D01*
X149085919Y-109045046D01*
X149243820Y-108664777D01*
X149244179Y-108253029D01*
X149086942Y-107872485D01*
X148889940Y-107675139D01*
X148971000Y-107632817D01*
X148971000Y-106426000D01*
X146685000Y-106426000D01*
X146431000Y-106426000D01*
X146411000Y-106426000D01*
X146411000Y-106172000D01*
X146431000Y-106172000D01*
X146431000Y-106152000D01*
X146685000Y-106152000D01*
X146685000Y-106172000D01*
X148971000Y-106172000D01*
X148971000Y-106152000D01*
X149225000Y-106152000D01*
X149225000Y-106172000D01*
X149245000Y-106172000D01*
X149245000Y-106426000D01*
X149225000Y-106426000D01*
X149225000Y-107632817D01*
X149457026Y-107753958D01*
X149872947Y-107581688D01*
X150304821Y-107187490D01*
X150362336Y-107064772D01*
X150578330Y-107388029D01*
X151064511Y-107712885D01*
X151638000Y-107826959D01*
X152146000Y-107725912D01*
X152146000Y-107950000D01*
X152204004Y-108241605D01*
X152288863Y-108368605D01*
X152369185Y-108488815D01*
X152380963Y-108500593D01*
X152380821Y-108662971D01*
X152538058Y-109043515D01*
X152828954Y-109334919D01*
X153209223Y-109492820D01*
X153620971Y-109493179D01*
X154001515Y-109335942D01*
X154292919Y-109045046D01*
X154450820Y-108664777D01*
X154451179Y-108253029D01*
X154293942Y-107872485D01*
X154236816Y-107815260D01*
X154751489Y-107712885D01*
X155237670Y-107388029D01*
X155448000Y-107073248D01*
X155658330Y-107388029D01*
X156144511Y-107712885D01*
X156718000Y-107826959D01*
X157291489Y-107712885D01*
X157777670Y-107388029D01*
X157993664Y-107064772D01*
X158051179Y-107187490D01*
X158055636Y-107191558D01*
X158037485Y-107199058D01*
X157746081Y-107489954D01*
X157588180Y-107870223D01*
X157587821Y-108281971D01*
X157745058Y-108662515D01*
X158035954Y-108953919D01*
X158416223Y-109111820D01*
X158827971Y-109112179D01*
X159208515Y-108954942D01*
X159499919Y-108664046D01*
X159657820Y-108283777D01*
X159658179Y-107872029D01*
X159607294Y-107748877D01*
X159617026Y-107753958D01*
X160032947Y-107581688D01*
X160464821Y-107187490D01*
X160528000Y-107052687D01*
X160591179Y-107187490D01*
X161023053Y-107581688D01*
X161438974Y-107753958D01*
X161671000Y-107632817D01*
X161671000Y-106426000D01*
X161925000Y-106426000D01*
X161925000Y-107632817D01*
X162157026Y-107753958D01*
X162572947Y-107581688D01*
X163004821Y-107187490D01*
X163068000Y-107052687D01*
X163131179Y-107187490D01*
X163563053Y-107581688D01*
X163978974Y-107753958D01*
X164211000Y-107632817D01*
X164211000Y-106426000D01*
X161925000Y-106426000D01*
X161671000Y-106426000D01*
X159385000Y-106426000D01*
X159385000Y-106446000D01*
X159131000Y-106446000D01*
X159131000Y-106426000D01*
X159111000Y-106426000D01*
X159111000Y-106172000D01*
X159131000Y-106172000D01*
X159131000Y-106152000D01*
X159385000Y-106152000D01*
X159385000Y-106172000D01*
X161671000Y-106172000D01*
X161671000Y-106152000D01*
X161925000Y-106152000D01*
X161925000Y-106172000D01*
X164211000Y-106172000D01*
X164211000Y-106152000D01*
X164465000Y-106152000D01*
X164465000Y-106172000D01*
X164485000Y-106172000D01*
X164485000Y-106426000D01*
X164465000Y-106426000D01*
X164465000Y-107632817D01*
X164697026Y-107753958D01*
X165112947Y-107581688D01*
X165404616Y-107315464D01*
X165412004Y-107352605D01*
X165536005Y-107538185D01*
X165577185Y-107599815D01*
X166593185Y-108615815D01*
X166840395Y-108780996D01*
X167132000Y-108839000D01*
X168467370Y-108839000D01*
X168623261Y-108994892D01*
X168510180Y-109267223D01*
X168509821Y-109678971D01*
X168667058Y-110059515D01*
X168957954Y-110350919D01*
X169338223Y-110508820D01*
X169749971Y-110509179D01*
X170130515Y-110351942D01*
X170421919Y-110061046D01*
X170499563Y-109874057D01*
X170638971Y-109874179D01*
X171019515Y-109716942D01*
X171057552Y-109678971D01*
X172827821Y-109678971D01*
X172985058Y-110059515D01*
X173275954Y-110350919D01*
X173656223Y-110508820D01*
X174067971Y-110509179D01*
X174448515Y-110351942D01*
X174739919Y-110061046D01*
X174897820Y-109680777D01*
X174898179Y-109269029D01*
X174740942Y-108888485D01*
X174450046Y-108597081D01*
X174069777Y-108439180D01*
X173658029Y-108438821D01*
X173277485Y-108596058D01*
X172986081Y-108886954D01*
X172828180Y-109267223D01*
X172827821Y-109678971D01*
X171057552Y-109678971D01*
X171310919Y-109426046D01*
X171468820Y-109045777D01*
X171469179Y-108634029D01*
X171311942Y-108253485D01*
X171021046Y-107962081D01*
X170640777Y-107804180D01*
X170229029Y-107803821D01*
X169848485Y-107961058D01*
X169796542Y-108012911D01*
X169498701Y-107715071D01*
X169622971Y-107715179D01*
X170003515Y-107557942D01*
X170041552Y-107519971D01*
X170922821Y-107519971D01*
X171080058Y-107900515D01*
X171370954Y-108191919D01*
X171751223Y-108349820D01*
X172162971Y-108350179D01*
X172543515Y-108192942D01*
X172834919Y-107902046D01*
X172992820Y-107521777D01*
X172993179Y-107110029D01*
X172835942Y-106729485D01*
X172545046Y-106438081D01*
X172164777Y-106280180D01*
X171753029Y-106279821D01*
X171372485Y-106437058D01*
X171081081Y-106727954D01*
X170923180Y-107108223D01*
X170922821Y-107519971D01*
X170041552Y-107519971D01*
X170294919Y-107267046D01*
X170452820Y-106886777D01*
X170453179Y-106475029D01*
X170295942Y-106094485D01*
X170005046Y-105803081D01*
X169624777Y-105645180D01*
X169213029Y-105644821D01*
X168846067Y-105796446D01*
X168481777Y-105645180D01*
X168070029Y-105644821D01*
X167689485Y-105802058D01*
X167398081Y-106092954D01*
X167240180Y-106473223D01*
X167239821Y-106884971D01*
X167396293Y-107263663D01*
X166878000Y-106745370D01*
X166878000Y-104587659D01*
X167052954Y-104762919D01*
X167433223Y-104920820D01*
X167844971Y-104921179D01*
X168225515Y-104763942D01*
X168516919Y-104473046D01*
X168674820Y-104092777D01*
X168674821Y-104090971D01*
X168890821Y-104090971D01*
X169048058Y-104471515D01*
X169338954Y-104762919D01*
X169719223Y-104920820D01*
X170130971Y-104921179D01*
X170511515Y-104763942D01*
X170802919Y-104473046D01*
X170960820Y-104092777D01*
X170961179Y-103681029D01*
X170922177Y-103586636D01*
X171146515Y-103493942D01*
X171437919Y-103203046D01*
X171595820Y-102822777D01*
X171596036Y-102574951D01*
X171624954Y-102603919D01*
X172005223Y-102761820D01*
X172416971Y-102762179D01*
X172797515Y-102604942D01*
X173088919Y-102314046D01*
X173246820Y-101933777D01*
X173247179Y-101522029D01*
X173089942Y-101141485D01*
X172799046Y-100850081D01*
X172418777Y-100692180D01*
X172007029Y-100691821D01*
X171626485Y-100849058D01*
X171335081Y-101139954D01*
X171177180Y-101520223D01*
X171176964Y-101768049D01*
X171148046Y-101739081D01*
X170767777Y-101581180D01*
X170356029Y-101580821D01*
X169975485Y-101738058D01*
X169684081Y-102028954D01*
X169526180Y-102409223D01*
X169525821Y-102820971D01*
X169564823Y-102915364D01*
X169340485Y-103008058D01*
X169049081Y-103298954D01*
X168891180Y-103679223D01*
X168890821Y-104090971D01*
X168674821Y-104090971D01*
X168675179Y-103681029D01*
X168517942Y-103300485D01*
X168227046Y-103009081D01*
X167846777Y-102851180D01*
X167788873Y-102851130D01*
X167835996Y-102780605D01*
X167894000Y-102489000D01*
X167894000Y-96089971D01*
X171303821Y-96089971D01*
X171461058Y-96470515D01*
X171751954Y-96761919D01*
X172132223Y-96919820D01*
X172543971Y-96920179D01*
X172924515Y-96762942D01*
X173215919Y-96472046D01*
X173373820Y-96091777D01*
X173374179Y-95680029D01*
X173216942Y-95299485D01*
X172926046Y-95008081D01*
X172545777Y-94850180D01*
X172134029Y-94849821D01*
X171753485Y-95007058D01*
X171462081Y-95297954D01*
X171304180Y-95678223D01*
X171303821Y-96089971D01*
X167894000Y-96089971D01*
X167894000Y-94996000D01*
X167884345Y-94947462D01*
X168341403Y-94758610D01*
X168734729Y-94365970D01*
X168821049Y-94158088D01*
X168906090Y-94363903D01*
X169298730Y-94757229D01*
X169812000Y-94970357D01*
X170367761Y-94970842D01*
X170881403Y-94758610D01*
X171274729Y-94365970D01*
X171487857Y-93852700D01*
X171488342Y-93296939D01*
X171276110Y-92783297D01*
X170883470Y-92389971D01*
X170675588Y-92303651D01*
X170881403Y-92218610D01*
X171274729Y-91825970D01*
X171487857Y-91312700D01*
X171488342Y-90756939D01*
X171276110Y-90243297D01*
X170883470Y-89849971D01*
X170370200Y-89636843D01*
X169814439Y-89636358D01*
X169300797Y-89848590D01*
X168907471Y-90241230D01*
X168821151Y-90449112D01*
X168736110Y-90243297D01*
X168343470Y-89849971D01*
X167830200Y-89636843D01*
X167274439Y-89636358D01*
X166760797Y-89848590D01*
X166367471Y-90241230D01*
X166281151Y-90449112D01*
X166196110Y-90243297D01*
X165803470Y-89849971D01*
X165290200Y-89636843D01*
X164734439Y-89636358D01*
X164220797Y-89848590D01*
X163827471Y-90241230D01*
X163741151Y-90449112D01*
X163656110Y-90243297D01*
X163263470Y-89849971D01*
X162750200Y-89636843D01*
X162194439Y-89636358D01*
X161680797Y-89848590D01*
X161287471Y-90241230D01*
X161201151Y-90449112D01*
X161116110Y-90243297D01*
X160723470Y-89849971D01*
X160210200Y-89636843D01*
X159654439Y-89636358D01*
X159140797Y-89848590D01*
X158747471Y-90241230D01*
X158661151Y-90449112D01*
X158576110Y-90243297D01*
X158183470Y-89849971D01*
X157670200Y-89636843D01*
X157114439Y-89636358D01*
X156600797Y-89848590D01*
X156207471Y-90241230D01*
X156121151Y-90449112D01*
X156036110Y-90243297D01*
X155643470Y-89849971D01*
X155130200Y-89636843D01*
X154574439Y-89636358D01*
X154060797Y-89848590D01*
X153667471Y-90241230D01*
X153581151Y-90449112D01*
X153496110Y-90243297D01*
X153103470Y-89849971D01*
X152590200Y-89636843D01*
X152034439Y-89636358D01*
X151520797Y-89848590D01*
X151127471Y-90241230D01*
X151041151Y-90449112D01*
X150956110Y-90243297D01*
X150563470Y-89849971D01*
X150050200Y-89636843D01*
X149624912Y-89636472D01*
X149625179Y-89330029D01*
X149467942Y-88949485D01*
X149177046Y-88658081D01*
X148796777Y-88500180D01*
X148385029Y-88499821D01*
X148004485Y-88657058D01*
X147713081Y-88947954D01*
X147555180Y-89328223D01*
X147554895Y-89655402D01*
X147510200Y-89636843D01*
X146954439Y-89636358D01*
X146440797Y-89848590D01*
X146047471Y-90241230D01*
X145961151Y-90449112D01*
X145876110Y-90243297D01*
X145483470Y-89849971D01*
X144970200Y-89636843D01*
X144414439Y-89636358D01*
X143900797Y-89848590D01*
X143507471Y-90241230D01*
X143421151Y-90449112D01*
X143336110Y-90243297D01*
X142943470Y-89849971D01*
X142430200Y-89636843D01*
X141874439Y-89636358D01*
X141360797Y-89848590D01*
X140967471Y-90241230D01*
X140881151Y-90449112D01*
X140796110Y-90243297D01*
X140403470Y-89849971D01*
X139890200Y-89636843D01*
X139334439Y-89636358D01*
X138820797Y-89848590D01*
X138427471Y-90241230D01*
X138341151Y-90449112D01*
X138256110Y-90243297D01*
X137863470Y-89849971D01*
X137350200Y-89636843D01*
X136794439Y-89636358D01*
X136280797Y-89848590D01*
X135887471Y-90241230D01*
X135801151Y-90449112D01*
X135716110Y-90243297D01*
X135323470Y-89849971D01*
X134810200Y-89636843D01*
X134254439Y-89636358D01*
X133740797Y-89848590D01*
X133347471Y-90241230D01*
X133261151Y-90449112D01*
X133176110Y-90243297D01*
X132783470Y-89849971D01*
X132270200Y-89636843D01*
X131714439Y-89636358D01*
X131200797Y-89848590D01*
X130807471Y-90241230D01*
X130721151Y-90449112D01*
X130636110Y-90243297D01*
X130243470Y-89849971D01*
X129730200Y-89636843D01*
X129174439Y-89636358D01*
X128660797Y-89848590D01*
X128267471Y-90241230D01*
X128181151Y-90449112D01*
X128096110Y-90243297D01*
X127703470Y-89849971D01*
X127190200Y-89636843D01*
X126634439Y-89636358D01*
X126120797Y-89848590D01*
X125727471Y-90241230D01*
X125514343Y-90754500D01*
X125513858Y-91310261D01*
X125726090Y-91823903D01*
X126078933Y-92177363D01*
X125913783Y-92208438D01*
X125697659Y-92347510D01*
X125552669Y-92559710D01*
X125501660Y-92811600D01*
X125501660Y-94335600D01*
X125545938Y-94570917D01*
X125685010Y-94787041D01*
X125897210Y-94932031D01*
X126149100Y-94983040D01*
X127673100Y-94983040D01*
X127908417Y-94938762D01*
X128124541Y-94799690D01*
X128269531Y-94587490D01*
X128306592Y-94404476D01*
X128658730Y-94757229D01*
X129172000Y-94970357D01*
X129550509Y-94970687D01*
X129462485Y-95007058D01*
X129171081Y-95297954D01*
X129013180Y-95678223D01*
X129012821Y-96089971D01*
X129170058Y-96470515D01*
X129460954Y-96761919D01*
X129841223Y-96919820D01*
X130252971Y-96920179D01*
X130409929Y-96855326D01*
X130409821Y-96978971D01*
X130567058Y-97359515D01*
X130857954Y-97650919D01*
X131238223Y-97808820D01*
X131649971Y-97809179D01*
X132030515Y-97651942D01*
X132321919Y-97361046D01*
X132479820Y-96980777D01*
X132479929Y-96855337D01*
X132635223Y-96919820D01*
X133046971Y-96920179D01*
X133427515Y-96762942D01*
X133718919Y-96472046D01*
X133876820Y-96091777D01*
X133876821Y-96089971D01*
X137140821Y-96089971D01*
X137298058Y-96470515D01*
X137588954Y-96761919D01*
X137969223Y-96919820D01*
X138380971Y-96920179D01*
X138761515Y-96762942D01*
X139052919Y-96472046D01*
X139210820Y-96091777D01*
X139210821Y-96089971D01*
X142347821Y-96089971D01*
X142505058Y-96470515D01*
X142795954Y-96761919D01*
X143176223Y-96919820D01*
X143587971Y-96920179D01*
X143968515Y-96762942D01*
X144259919Y-96472046D01*
X144417820Y-96091777D01*
X144417821Y-96089971D01*
X147681821Y-96089971D01*
X147839058Y-96470515D01*
X148129954Y-96761919D01*
X148510223Y-96919820D01*
X148921971Y-96920179D01*
X149302515Y-96762942D01*
X149593919Y-96472046D01*
X149751820Y-96091777D01*
X149751821Y-96089971D01*
X153015821Y-96089971D01*
X153173058Y-96470515D01*
X153463954Y-96761919D01*
X153844223Y-96919820D01*
X154255971Y-96920179D01*
X154636515Y-96762942D01*
X154927919Y-96472046D01*
X155085820Y-96091777D01*
X155086179Y-95680029D01*
X154928942Y-95299485D01*
X154638046Y-95008081D01*
X154257777Y-94850180D01*
X153846029Y-94849821D01*
X153465485Y-95007058D01*
X153174081Y-95297954D01*
X153016180Y-95678223D01*
X153015821Y-96089971D01*
X149751821Y-96089971D01*
X149752179Y-95680029D01*
X149594942Y-95299485D01*
X149304046Y-95008081D01*
X148923777Y-94850180D01*
X148512029Y-94849821D01*
X148131485Y-95007058D01*
X147840081Y-95297954D01*
X147682180Y-95678223D01*
X147681821Y-96089971D01*
X144417821Y-96089971D01*
X144418179Y-95680029D01*
X144260942Y-95299485D01*
X143970046Y-95008081D01*
X143589777Y-94850180D01*
X143178029Y-94849821D01*
X142797485Y-95007058D01*
X142506081Y-95297954D01*
X142348180Y-95678223D01*
X142347821Y-96089971D01*
X139210821Y-96089971D01*
X139211179Y-95680029D01*
X139053942Y-95299485D01*
X138763046Y-95008081D01*
X138382777Y-94850180D01*
X137971029Y-94849821D01*
X137590485Y-95007058D01*
X137299081Y-95297954D01*
X137141180Y-95678223D01*
X137140821Y-96089971D01*
X133876821Y-96089971D01*
X133877179Y-95680029D01*
X133719942Y-95299485D01*
X133429046Y-95008081D01*
X133048777Y-94850180D01*
X132637029Y-94849821D01*
X132256485Y-95007058D01*
X131965081Y-95297954D01*
X131807180Y-95678223D01*
X131807071Y-95803663D01*
X131651777Y-95739180D01*
X131240029Y-95738821D01*
X131083071Y-95803674D01*
X131083179Y-95680029D01*
X130925942Y-95299485D01*
X130635046Y-95008081D01*
X130254777Y-94850180D01*
X130020281Y-94849976D01*
X130241403Y-94758610D01*
X130634729Y-94365970D01*
X130721049Y-94158088D01*
X130806090Y-94363903D01*
X131198730Y-94757229D01*
X131712000Y-94970357D01*
X132267761Y-94970842D01*
X132781403Y-94758610D01*
X133174729Y-94365970D01*
X133261049Y-94158088D01*
X133346090Y-94363903D01*
X133738730Y-94757229D01*
X134252000Y-94970357D01*
X134807761Y-94970842D01*
X135321403Y-94758610D01*
X135714729Y-94365970D01*
X135801049Y-94158088D01*
X135886090Y-94363903D01*
X136278730Y-94757229D01*
X136792000Y-94970357D01*
X137347761Y-94970842D01*
X137861403Y-94758610D01*
X138254729Y-94365970D01*
X138341049Y-94158088D01*
X138426090Y-94363903D01*
X138818730Y-94757229D01*
X139332000Y-94970357D01*
X139887761Y-94970842D01*
X140401403Y-94758610D01*
X140794729Y-94365970D01*
X140881049Y-94158088D01*
X140966090Y-94363903D01*
X141358730Y-94757229D01*
X141872000Y-94970357D01*
X142427761Y-94970842D01*
X142941403Y-94758610D01*
X143146557Y-94553813D01*
X143890492Y-94553813D01*
X143959957Y-94795997D01*
X144483402Y-94982744D01*
X145038468Y-94954962D01*
X145422243Y-94795997D01*
X145491708Y-94553813D01*
X144691100Y-93753205D01*
X143890492Y-94553813D01*
X143146557Y-94553813D01*
X143334729Y-94365970D01*
X143414495Y-94173873D01*
X143468703Y-94304743D01*
X143710887Y-94374208D01*
X144511495Y-93573600D01*
X143710887Y-92772992D01*
X143468703Y-92842457D01*
X143418591Y-92982918D01*
X143336110Y-92783297D01*
X142943470Y-92389971D01*
X142735588Y-92303651D01*
X142941403Y-92218610D01*
X143334729Y-91825970D01*
X143421049Y-91618088D01*
X143506090Y-91823903D01*
X143898730Y-92217229D01*
X144090827Y-92296995D01*
X143959957Y-92351203D01*
X143890492Y-92593387D01*
X144691100Y-93393995D01*
X145491708Y-92593387D01*
X145422243Y-92351203D01*
X145281782Y-92301091D01*
X145481403Y-92218610D01*
X145874729Y-91825970D01*
X145961049Y-91618088D01*
X146046090Y-91823903D01*
X146438730Y-92217229D01*
X146646612Y-92303549D01*
X146440797Y-92388590D01*
X146047471Y-92781230D01*
X145967705Y-92973327D01*
X145913497Y-92842457D01*
X145671313Y-92772992D01*
X144870705Y-93573600D01*
X145671313Y-94374208D01*
X145913497Y-94304743D01*
X145963609Y-94164282D01*
X146046090Y-94363903D01*
X146438730Y-94757229D01*
X146952000Y-94970357D01*
X147507761Y-94970842D01*
X148021403Y-94758610D01*
X148414729Y-94365970D01*
X148501049Y-94158088D01*
X148586090Y-94363903D01*
X148978730Y-94757229D01*
X149492000Y-94970357D01*
X150047761Y-94970842D01*
X150561403Y-94758610D01*
X150766557Y-94553813D01*
X151510492Y-94553813D01*
X151579957Y-94795997D01*
X152103402Y-94982744D01*
X152658468Y-94954962D01*
X153042243Y-94795997D01*
X153111708Y-94553813D01*
X152311100Y-93753205D01*
X151510492Y-94553813D01*
X150766557Y-94553813D01*
X150954729Y-94365970D01*
X151034495Y-94173873D01*
X151088703Y-94304743D01*
X151330887Y-94374208D01*
X152131495Y-93573600D01*
X151330887Y-92772992D01*
X151088703Y-92842457D01*
X151038591Y-92982918D01*
X150956110Y-92783297D01*
X150563470Y-92389971D01*
X150355588Y-92303651D01*
X150561403Y-92218610D01*
X150954729Y-91825970D01*
X151041049Y-91618088D01*
X151126090Y-91823903D01*
X151518730Y-92217229D01*
X151710827Y-92296995D01*
X151579957Y-92351203D01*
X151510492Y-92593387D01*
X152311100Y-93393995D01*
X153111708Y-92593387D01*
X153042243Y-92351203D01*
X152901782Y-92301091D01*
X153101403Y-92218610D01*
X153494729Y-91825970D01*
X153581049Y-91618088D01*
X153666090Y-91823903D01*
X154058730Y-92217229D01*
X154266612Y-92303549D01*
X154060797Y-92388590D01*
X153667471Y-92781230D01*
X153587705Y-92973327D01*
X153533497Y-92842457D01*
X153291313Y-92772992D01*
X152490705Y-93573600D01*
X153291313Y-94374208D01*
X153533497Y-94304743D01*
X153583609Y-94164282D01*
X153666090Y-94363903D01*
X154058730Y-94757229D01*
X154572000Y-94970357D01*
X155127761Y-94970842D01*
X155641403Y-94758610D01*
X156034729Y-94365970D01*
X156121049Y-94158088D01*
X156206090Y-94363903D01*
X156598730Y-94757229D01*
X157112000Y-94970357D01*
X157667761Y-94970842D01*
X158181403Y-94758610D01*
X158574729Y-94365970D01*
X158661049Y-94158088D01*
X158746090Y-94363903D01*
X159138730Y-94757229D01*
X159362099Y-94849980D01*
X159180029Y-94849821D01*
X158799485Y-95007058D01*
X158508081Y-95297954D01*
X158350180Y-95678223D01*
X158349821Y-96089971D01*
X158507058Y-96470515D01*
X158797954Y-96761919D01*
X159178223Y-96919820D01*
X159589971Y-96920179D01*
X159970515Y-96762942D01*
X160261919Y-96472046D01*
X160419820Y-96091777D01*
X160420179Y-95680029D01*
X160262942Y-95299485D01*
X159972046Y-95008081D01*
X159881679Y-94970557D01*
X160207761Y-94970842D01*
X160721403Y-94758610D01*
X161114729Y-94365970D01*
X161201049Y-94158088D01*
X161286090Y-94363903D01*
X161678730Y-94757229D01*
X162192000Y-94970357D01*
X162747761Y-94970842D01*
X163261403Y-94758610D01*
X163654729Y-94365970D01*
X163741049Y-94158088D01*
X163826090Y-94363903D01*
X164218730Y-94757229D01*
X164441832Y-94849869D01*
X164387029Y-94849821D01*
X164006485Y-95007058D01*
X163715081Y-95297954D01*
X163557180Y-95678223D01*
X163556821Y-96089971D01*
X163714058Y-96470515D01*
X164004954Y-96761919D01*
X164385223Y-96919820D01*
X164796971Y-96920179D01*
X165177515Y-96762942D01*
X165468919Y-96472046D01*
X165626820Y-96091777D01*
X165627179Y-95680029D01*
X165469942Y-95299485D01*
X165179046Y-95008081D01*
X165088946Y-94970668D01*
X165287761Y-94970842D01*
X165801403Y-94758610D01*
X165809198Y-94750828D01*
X166370000Y-95311630D01*
X166370000Y-102173370D01*
X165588220Y-102955150D01*
X165397670Y-102669971D01*
X164922323Y-102352354D01*
X165087919Y-102187046D01*
X165245820Y-101806777D01*
X165246179Y-101395029D01*
X165088942Y-101014485D01*
X164798046Y-100723081D01*
X164417777Y-100565180D01*
X164006029Y-100564821D01*
X163625485Y-100722058D01*
X163334081Y-101012954D01*
X163176180Y-101393223D01*
X163175821Y-101804971D01*
X163333058Y-102185515D01*
X163601266Y-102454192D01*
X163278330Y-102669971D01*
X163068000Y-102984752D01*
X162857670Y-102669971D01*
X162371489Y-102345115D01*
X161798000Y-102231041D01*
X161224511Y-102345115D01*
X160738330Y-102669971D01*
X160528000Y-102984752D01*
X160317670Y-102669971D01*
X159831489Y-102345115D01*
X159740670Y-102327050D01*
X159880919Y-102187046D01*
X160038820Y-101806777D01*
X160039179Y-101395029D01*
X159881942Y-101014485D01*
X159591046Y-100723081D01*
X159210777Y-100565180D01*
X158799029Y-100564821D01*
X158418485Y-100722058D01*
X158127081Y-101012954D01*
X157969180Y-101393223D01*
X157968821Y-101804971D01*
X158126058Y-102185515D01*
X158416954Y-102476919D01*
X158460310Y-102494922D01*
X158198330Y-102669971D01*
X157982336Y-102993228D01*
X157924821Y-102870510D01*
X157492947Y-102476312D01*
X157077026Y-102304042D01*
X156845000Y-102425183D01*
X156845000Y-103632000D01*
X156865000Y-103632000D01*
X156865000Y-103886000D01*
X156845000Y-103886000D01*
X156845000Y-103906000D01*
X156591000Y-103906000D01*
X156591000Y-103886000D01*
X154305000Y-103886000D01*
X154305000Y-103906000D01*
X154051000Y-103906000D01*
X154051000Y-103886000D01*
X154031000Y-103886000D01*
X154031000Y-103632000D01*
X154051000Y-103632000D01*
X154051000Y-103612000D01*
X154305000Y-103612000D01*
X154305000Y-103632000D01*
X156591000Y-103632000D01*
X156591000Y-102425183D01*
X156358974Y-102304042D01*
X155943053Y-102476312D01*
X155511179Y-102870510D01*
X155448000Y-103005313D01*
X155384821Y-102870510D01*
X154952947Y-102476312D01*
X154537026Y-102304042D01*
X154312057Y-102421498D01*
X154546919Y-102187046D01*
X154704820Y-101806777D01*
X154705179Y-101395029D01*
X154547942Y-101014485D01*
X154257046Y-100723081D01*
X153876777Y-100565180D01*
X153465029Y-100564821D01*
X153084485Y-100722058D01*
X152793081Y-101012954D01*
X152635180Y-101393223D01*
X152634821Y-101804971D01*
X152792058Y-102185515D01*
X153082954Y-102476919D01*
X153302508Y-102568086D01*
X152971179Y-102870510D01*
X152913664Y-102993228D01*
X152697670Y-102669971D01*
X152211489Y-102345115D01*
X151638000Y-102231041D01*
X151064511Y-102345115D01*
X150578330Y-102669971D01*
X150368000Y-102984752D01*
X150157670Y-102669971D01*
X149671489Y-102345115D01*
X149157076Y-102242792D01*
X149212919Y-102187046D01*
X149370820Y-101806777D01*
X149371179Y-101395029D01*
X149213942Y-101014485D01*
X148923046Y-100723081D01*
X148542777Y-100565180D01*
X148131029Y-100564821D01*
X147750485Y-100722058D01*
X147459081Y-101012954D01*
X147301180Y-101393223D01*
X147300821Y-101804971D01*
X147458058Y-102185515D01*
X147748954Y-102476919D01*
X148105611Y-102625015D01*
X148038330Y-102669971D01*
X147828000Y-102984752D01*
X147617670Y-102669971D01*
X147131489Y-102345115D01*
X146558000Y-102231041D01*
X145984511Y-102345115D01*
X145498330Y-102669971D01*
X145288000Y-102984752D01*
X145077670Y-102669971D01*
X144591489Y-102345115D01*
X144018000Y-102231041D01*
X143789271Y-102276538D01*
X143878919Y-102187046D01*
X144036820Y-101806777D01*
X144037179Y-101395029D01*
X143879942Y-101014485D01*
X143589046Y-100723081D01*
X143208777Y-100565180D01*
X142797029Y-100564821D01*
X142416485Y-100722058D01*
X142125081Y-101012954D01*
X141967180Y-101393223D01*
X141966821Y-101804971D01*
X142124058Y-102185515D01*
X142414954Y-102476919D01*
X142795223Y-102634820D01*
X143010656Y-102635008D01*
X142958330Y-102669971D01*
X142748000Y-102984752D01*
X142537670Y-102669971D01*
X142051489Y-102345115D01*
X141478000Y-102231041D01*
X140904511Y-102345115D01*
X140418330Y-102669971D01*
X140208000Y-102984752D01*
X139997670Y-102669971D01*
X139511489Y-102345115D01*
X138938000Y-102231041D01*
X138550667Y-102308086D01*
X138671919Y-102187046D01*
X138829820Y-101806777D01*
X138830179Y-101395029D01*
X138672942Y-101014485D01*
X138382046Y-100723081D01*
X138001777Y-100565180D01*
X137590029Y-100564821D01*
X137209485Y-100722058D01*
X136918081Y-101012954D01*
X136760180Y-101393223D01*
X136759821Y-101804971D01*
X136917058Y-102185515D01*
X137207954Y-102476919D01*
X137588223Y-102634820D01*
X137930491Y-102635118D01*
X137878330Y-102669971D01*
X137668000Y-102984752D01*
X137457670Y-102669971D01*
X136971489Y-102345115D01*
X136398000Y-102231041D01*
X135824511Y-102345115D01*
X135338330Y-102669971D01*
X135329195Y-102683642D01*
X135324762Y-102660083D01*
X135185690Y-102443959D01*
X134973490Y-102298969D01*
X134721600Y-102247960D01*
X132994400Y-102247960D01*
X132759083Y-102292238D01*
X132542959Y-102431310D01*
X132397969Y-102643510D01*
X132346960Y-102895400D01*
X132346960Y-104267000D01*
X130302000Y-104267000D01*
X130010395Y-104325004D01*
X129791127Y-104471515D01*
X129763185Y-104490185D01*
X127079233Y-107174137D01*
X127145820Y-107013777D01*
X127146179Y-106602029D01*
X126988942Y-106221485D01*
X126698046Y-105930081D01*
X126317777Y-105772180D01*
X125906029Y-105771821D01*
X125525485Y-105929058D01*
X125348947Y-106105288D01*
X125174046Y-105930081D01*
X124793777Y-105772180D01*
X124382029Y-105771821D01*
X124001485Y-105929058D01*
X123710081Y-106219954D01*
X123552180Y-106600223D01*
X123551821Y-107011971D01*
X123572303Y-107061541D01*
X123239485Y-107199058D01*
X122948081Y-107489954D01*
X122790180Y-107870223D01*
X122789821Y-108281971D01*
X122855126Y-108440021D01*
X122477485Y-108596058D01*
X122186081Y-108886954D01*
X122028180Y-109267223D01*
X122027821Y-109678971D01*
X121711100Y-109678971D01*
X121711100Y-102185971D01*
X124059821Y-102185971D01*
X124217058Y-102566515D01*
X124507954Y-102857919D01*
X124888223Y-103015820D01*
X125299971Y-103016179D01*
X125680515Y-102858942D01*
X125971919Y-102568046D01*
X126025100Y-102439971D01*
X126726821Y-102439971D01*
X126884058Y-102820515D01*
X127174954Y-103111919D01*
X127555223Y-103269820D01*
X127966971Y-103270179D01*
X128347515Y-103112942D01*
X128512774Y-102947971D01*
X129266821Y-102947971D01*
X129424058Y-103328515D01*
X129714954Y-103619919D01*
X130095223Y-103777820D01*
X130506971Y-103778179D01*
X130887515Y-103620942D01*
X131178919Y-103330046D01*
X131336820Y-102949777D01*
X131337179Y-102538029D01*
X131179942Y-102157485D01*
X130889046Y-101866081D01*
X130508777Y-101708180D01*
X130097029Y-101707821D01*
X129716485Y-101865058D01*
X129425081Y-102155954D01*
X129267180Y-102536223D01*
X129266821Y-102947971D01*
X128512774Y-102947971D01*
X128638919Y-102822046D01*
X128796820Y-102441777D01*
X128797179Y-102030029D01*
X128639942Y-101649485D01*
X128349046Y-101358081D01*
X127968777Y-101200180D01*
X127557029Y-101199821D01*
X127176485Y-101357058D01*
X126885081Y-101647954D01*
X126727180Y-102028223D01*
X126726821Y-102439971D01*
X126025100Y-102439971D01*
X126129820Y-102187777D01*
X126130179Y-101776029D01*
X125972942Y-101395485D01*
X125682046Y-101104081D01*
X125301777Y-100946180D01*
X124890029Y-100945821D01*
X124509485Y-101103058D01*
X124218081Y-101393954D01*
X124060180Y-101774223D01*
X124059821Y-102185971D01*
X121711100Y-102185971D01*
X121711100Y-100026971D01*
X123678821Y-100026971D01*
X123836058Y-100407515D01*
X124126954Y-100698919D01*
X124507223Y-100856820D01*
X124918971Y-100857179D01*
X125299515Y-100699942D01*
X125590919Y-100409046D01*
X125696835Y-100153971D01*
X130155821Y-100153971D01*
X130313058Y-100534515D01*
X130603954Y-100825919D01*
X130984223Y-100983820D01*
X131395971Y-100984179D01*
X131776515Y-100826942D01*
X132067919Y-100536046D01*
X132225820Y-100155777D01*
X132226179Y-99744029D01*
X132068942Y-99363485D01*
X131778046Y-99072081D01*
X131630877Y-99010971D01*
X145522821Y-99010971D01*
X145680058Y-99391515D01*
X145970954Y-99682919D01*
X146351223Y-99840820D01*
X146762971Y-99841179D01*
X147143515Y-99683942D01*
X147434919Y-99393046D01*
X147540835Y-99137971D01*
X150475821Y-99137971D01*
X150633058Y-99518515D01*
X150923954Y-99809919D01*
X151304223Y-99967820D01*
X151715971Y-99968179D01*
X152096515Y-99810942D01*
X152387919Y-99520046D01*
X152545820Y-99139777D01*
X152546179Y-98728029D01*
X152400713Y-98375971D01*
X156698821Y-98375971D01*
X156856058Y-98756515D01*
X157146954Y-99047919D01*
X157527223Y-99205820D01*
X157938971Y-99206179D01*
X158319515Y-99048942D01*
X158610919Y-98758046D01*
X158768820Y-98377777D01*
X158769179Y-97966029D01*
X158623713Y-97613971D01*
X161905821Y-97613971D01*
X162063058Y-97994515D01*
X162353954Y-98285919D01*
X162734223Y-98443820D01*
X163145971Y-98444179D01*
X163526515Y-98286942D01*
X163817919Y-97996046D01*
X163975820Y-97615777D01*
X163976179Y-97204029D01*
X163818942Y-96823485D01*
X163528046Y-96532081D01*
X163147777Y-96374180D01*
X162736029Y-96373821D01*
X162355485Y-96531058D01*
X162064081Y-96821954D01*
X161906180Y-97202223D01*
X161905821Y-97613971D01*
X158623713Y-97613971D01*
X158611942Y-97585485D01*
X158321046Y-97294081D01*
X157940777Y-97136180D01*
X157529029Y-97135821D01*
X157148485Y-97293058D01*
X156857081Y-97583954D01*
X156699180Y-97964223D01*
X156698821Y-98375971D01*
X152400713Y-98375971D01*
X152388942Y-98347485D01*
X152098046Y-98056081D01*
X151717777Y-97898180D01*
X151306029Y-97897821D01*
X150925485Y-98055058D01*
X150634081Y-98345954D01*
X150476180Y-98726223D01*
X150475821Y-99137971D01*
X147540835Y-99137971D01*
X147592820Y-99012777D01*
X147593179Y-98601029D01*
X147435942Y-98220485D01*
X147145046Y-97929081D01*
X146764777Y-97771180D01*
X146353029Y-97770821D01*
X145972485Y-97928058D01*
X145681081Y-98218954D01*
X145523180Y-98599223D01*
X145522821Y-99010971D01*
X131630877Y-99010971D01*
X131397777Y-98914180D01*
X130986029Y-98913821D01*
X130605485Y-99071058D01*
X130314081Y-99361954D01*
X130156180Y-99742223D01*
X130155821Y-100153971D01*
X125696835Y-100153971D01*
X125748820Y-100028777D01*
X125748984Y-99840906D01*
X126061971Y-99841179D01*
X126442515Y-99683942D01*
X126733919Y-99393046D01*
X126891820Y-99012777D01*
X126892179Y-98601029D01*
X126734942Y-98220485D01*
X126444046Y-97929081D01*
X126063777Y-97771180D01*
X125652029Y-97770821D01*
X125271485Y-97928058D01*
X124980081Y-98218954D01*
X124822180Y-98599223D01*
X124822016Y-98787094D01*
X124509029Y-98786821D01*
X124128485Y-98944058D01*
X123837081Y-99234954D01*
X123679180Y-99615223D01*
X123678821Y-100026971D01*
X121711100Y-100026971D01*
X121711100Y-97573531D01*
X122431110Y-93953795D01*
X124441914Y-90944413D01*
X127451293Y-88933611D01*
X131071031Y-88213600D01*
X165931169Y-88213600D01*
X169550905Y-88933610D01*
X169550905Y-88933610D01*
G37*
X169550905Y-88933610D02*
X172560287Y-90944414D01*
X174571089Y-93953793D01*
X175291100Y-97573531D01*
X175291100Y-112433669D01*
X174571089Y-116053407D01*
X172560287Y-119062786D01*
X169550905Y-121073590D01*
X165931169Y-121793600D01*
X131071031Y-121793600D01*
X127451293Y-121073589D01*
X126417813Y-120383040D01*
X127673100Y-120383040D01*
X127908417Y-120338762D01*
X128124541Y-120199690D01*
X128269531Y-119987490D01*
X128306592Y-119804476D01*
X128658730Y-120157229D01*
X129172000Y-120370357D01*
X129727761Y-120370842D01*
X130241403Y-120158610D01*
X130634729Y-119765970D01*
X130721049Y-119558088D01*
X130806090Y-119763903D01*
X130836708Y-119794574D01*
X130695081Y-119935954D01*
X130537180Y-120316223D01*
X130536821Y-120727971D01*
X130694058Y-121108515D01*
X130984954Y-121399919D01*
X131365223Y-121557820D01*
X131776971Y-121558179D01*
X132157515Y-121400942D01*
X132448919Y-121110046D01*
X132606820Y-120729777D01*
X132607179Y-120318029D01*
X132576321Y-120243348D01*
X132781403Y-120158610D01*
X133174729Y-119765970D01*
X133261049Y-119558088D01*
X133346090Y-119763903D01*
X133738730Y-120157229D01*
X134252000Y-120370357D01*
X134807761Y-120370842D01*
X135321403Y-120158610D01*
X135714729Y-119765970D01*
X135801049Y-119558088D01*
X135886090Y-119763903D01*
X136278730Y-120157229D01*
X136792000Y-120370357D01*
X137347761Y-120370842D01*
X137861403Y-120158610D01*
X138254729Y-119765970D01*
X138341049Y-119558088D01*
X138426090Y-119763903D01*
X138818730Y-120157229D01*
X139332000Y-120370357D01*
X139887761Y-120370842D01*
X140401403Y-120158610D01*
X140794729Y-119765970D01*
X140881049Y-119558088D01*
X140966090Y-119763903D01*
X141358730Y-120157229D01*
X141872000Y-120370357D01*
X142427761Y-120370842D01*
X142941403Y-120158610D01*
X143146557Y-119953813D01*
X143890492Y-119953813D01*
X143959957Y-120195997D01*
X144483402Y-120382744D01*
X145038468Y-120354962D01*
X145422243Y-120195997D01*
X145491708Y-119953813D01*
X144691100Y-119153205D01*
X143890492Y-119953813D01*
X143146557Y-119953813D01*
X143334729Y-119765970D01*
X143414495Y-119573873D01*
X143468703Y-119704743D01*
X143710887Y-119774208D01*
X144511495Y-118973600D01*
X143710887Y-118172992D01*
X143468703Y-118242457D01*
X143418591Y-118382918D01*
X143336110Y-118183297D01*
X142943470Y-117789971D01*
X142735588Y-117703651D01*
X142941403Y-117618610D01*
X143146557Y-117413813D01*
X143890492Y-117413813D01*
X143959957Y-117655997D01*
X144083444Y-117700053D01*
X143959957Y-117751203D01*
X143890492Y-117993387D01*
X144691100Y-118793995D01*
X145491708Y-117993387D01*
X145422243Y-117751203D01*
X145298756Y-117707147D01*
X145422243Y-117655997D01*
X145491708Y-117413813D01*
X144691100Y-116613205D01*
X143890492Y-117413813D01*
X143146557Y-117413813D01*
X143334729Y-117225970D01*
X143414495Y-117033873D01*
X143468703Y-117164743D01*
X143710887Y-117234208D01*
X144511495Y-116433600D01*
X144870705Y-116433600D01*
X145671313Y-117234208D01*
X145913497Y-117164743D01*
X145963609Y-117024282D01*
X146046090Y-117223903D01*
X146438730Y-117617229D01*
X146646612Y-117703549D01*
X146440797Y-117788590D01*
X146047471Y-118181230D01*
X145967705Y-118373327D01*
X145913497Y-118242457D01*
X145671313Y-118172992D01*
X144870705Y-118973600D01*
X145671313Y-119774208D01*
X145913497Y-119704743D01*
X145963609Y-119564282D01*
X146046090Y-119763903D01*
X146438730Y-120157229D01*
X146952000Y-120370357D01*
X147507761Y-120370842D01*
X148021403Y-120158610D01*
X148414729Y-119765970D01*
X148501049Y-119558088D01*
X148586090Y-119763903D01*
X148978730Y-120157229D01*
X149492000Y-120370357D01*
X150047761Y-120370842D01*
X150561403Y-120158610D01*
X150954729Y-119765970D01*
X151041049Y-119558088D01*
X151126090Y-119763903D01*
X151518730Y-120157229D01*
X152032000Y-120370357D01*
X152587761Y-120370842D01*
X153101403Y-120158610D01*
X153494729Y-119765970D01*
X153581049Y-119558088D01*
X153666090Y-119763903D01*
X154058730Y-120157229D01*
X154572000Y-120370357D01*
X155127761Y-120370842D01*
X155641403Y-120158610D01*
X156034729Y-119765970D01*
X156121049Y-119558088D01*
X156206090Y-119763903D01*
X156598730Y-120157229D01*
X157112000Y-120370357D01*
X157667761Y-120370842D01*
X158181403Y-120158610D01*
X158574729Y-119765970D01*
X158661049Y-119558088D01*
X158746090Y-119763903D01*
X159138730Y-120157229D01*
X159652000Y-120370357D01*
X160207761Y-120370842D01*
X160721403Y-120158610D01*
X161114729Y-119765970D01*
X161201049Y-119558088D01*
X161286090Y-119763903D01*
X161678730Y-120157229D01*
X162192000Y-120370357D01*
X162747761Y-120370842D01*
X163261403Y-120158610D01*
X163654729Y-119765970D01*
X163741049Y-119558088D01*
X163826090Y-119763903D01*
X164218730Y-120157229D01*
X164732000Y-120370357D01*
X165287761Y-120370842D01*
X165801403Y-120158610D01*
X166194729Y-119765970D01*
X166281049Y-119558088D01*
X166366090Y-119763903D01*
X166758730Y-120157229D01*
X167272000Y-120370357D01*
X167827761Y-120370842D01*
X168341403Y-120158610D01*
X168734729Y-119765970D01*
X168821049Y-119558088D01*
X168906090Y-119763903D01*
X169298730Y-120157229D01*
X169812000Y-120370357D01*
X170367761Y-120370842D01*
X170881403Y-120158610D01*
X171274729Y-119765970D01*
X171487857Y-119252700D01*
X171488342Y-118696939D01*
X171276110Y-118183297D01*
X170883470Y-117789971D01*
X170675588Y-117703651D01*
X170881403Y-117618610D01*
X171274729Y-117225970D01*
X171487857Y-116712700D01*
X171488342Y-116156939D01*
X171276110Y-115643297D01*
X170883470Y-115249971D01*
X170370200Y-115036843D01*
X169814439Y-115036358D01*
X169300797Y-115248590D01*
X168907471Y-115641230D01*
X168821151Y-115849112D01*
X168736110Y-115643297D01*
X168343470Y-115249971D01*
X167830200Y-115036843D01*
X167274439Y-115036358D01*
X166760797Y-115248590D01*
X166367471Y-115641230D01*
X166281151Y-115849112D01*
X166196110Y-115643297D01*
X165803470Y-115249971D01*
X165290200Y-115036843D01*
X164811057Y-115036425D01*
X165087919Y-114760046D01*
X165245820Y-114379777D01*
X165246179Y-113968029D01*
X165088942Y-113587485D01*
X164798046Y-113296081D01*
X164417777Y-113138180D01*
X164006029Y-113137821D01*
X163625485Y-113295058D01*
X163334081Y-113585954D01*
X163176180Y-113966223D01*
X163175821Y-114377971D01*
X163333058Y-114758515D01*
X163623954Y-115049919D01*
X164004223Y-115207820D01*
X164318804Y-115208094D01*
X164220797Y-115248590D01*
X163827471Y-115641230D01*
X163741151Y-115849112D01*
X163656110Y-115643297D01*
X163263470Y-115249971D01*
X162750200Y-115036843D01*
X162194439Y-115036358D01*
X161680797Y-115248590D01*
X161287471Y-115641230D01*
X161201151Y-115849112D01*
X161116110Y-115643297D01*
X160723470Y-115249971D01*
X160210200Y-115036843D01*
X159654439Y-115036358D01*
X159140797Y-115248590D01*
X158747471Y-115641230D01*
X158661151Y-115849112D01*
X158576110Y-115643297D01*
X158183470Y-115249971D01*
X157670200Y-115036843D01*
X157114439Y-115036358D01*
X156600797Y-115248590D01*
X156207471Y-115641230D01*
X156121151Y-115849112D01*
X156036110Y-115643297D01*
X155643470Y-115249971D01*
X155130200Y-115036843D01*
X154574439Y-115036358D01*
X154060797Y-115248590D01*
X153667471Y-115641230D01*
X153587705Y-115833327D01*
X153533497Y-115702457D01*
X153291313Y-115632992D01*
X152490705Y-116433600D01*
X153291313Y-117234208D01*
X153533497Y-117164743D01*
X153583609Y-117024282D01*
X153666090Y-117223903D01*
X154058730Y-117617229D01*
X154266612Y-117703549D01*
X154060797Y-117788590D01*
X153667471Y-118181230D01*
X153581151Y-118389112D01*
X153496110Y-118183297D01*
X153103470Y-117789971D01*
X152911373Y-117710205D01*
X153042243Y-117655997D01*
X153111708Y-117413813D01*
X152311100Y-116613205D01*
X151510492Y-117413813D01*
X151579957Y-117655997D01*
X151720418Y-117706109D01*
X151520797Y-117788590D01*
X151127471Y-118181230D01*
X151041151Y-118389112D01*
X150956110Y-118183297D01*
X150563470Y-117789971D01*
X150355588Y-117703651D01*
X150561403Y-117618610D01*
X150954729Y-117225970D01*
X151034495Y-117033873D01*
X151088703Y-117164743D01*
X151330887Y-117234208D01*
X152131495Y-116433600D01*
X151330887Y-115632992D01*
X151088703Y-115702457D01*
X151038591Y-115842918D01*
X150956110Y-115643297D01*
X150766532Y-115453387D01*
X151510492Y-115453387D01*
X152311100Y-116253995D01*
X153111708Y-115453387D01*
X153042243Y-115211203D01*
X152518798Y-115024456D01*
X151963732Y-115052238D01*
X151579957Y-115211203D01*
X151510492Y-115453387D01*
X150766532Y-115453387D01*
X150563470Y-115249971D01*
X150050200Y-115036843D01*
X149494439Y-115036358D01*
X148980797Y-115248590D01*
X148587471Y-115641230D01*
X148501151Y-115849112D01*
X148416110Y-115643297D01*
X148023470Y-115249971D01*
X147510200Y-115036843D01*
X146954439Y-115036358D01*
X146440797Y-115248590D01*
X146047471Y-115641230D01*
X145967705Y-115833327D01*
X145913497Y-115702457D01*
X145671313Y-115632992D01*
X144870705Y-116433600D01*
X144511495Y-116433600D01*
X143710887Y-115632992D01*
X143468703Y-115702457D01*
X143418591Y-115842918D01*
X143336110Y-115643297D01*
X143146532Y-115453387D01*
X143890492Y-115453387D01*
X144691100Y-116253995D01*
X145491708Y-115453387D01*
X145422243Y-115211203D01*
X144898798Y-115024456D01*
X144343732Y-115052238D01*
X143959957Y-115211203D01*
X143890492Y-115453387D01*
X143146532Y-115453387D01*
X142943470Y-115249971D01*
X142430200Y-115036843D01*
X141874439Y-115036358D01*
X141360797Y-115248590D01*
X140967471Y-115641230D01*
X140881151Y-115849112D01*
X140796110Y-115643297D01*
X140403470Y-115249971D01*
X139890200Y-115036843D01*
X139334439Y-115036358D01*
X138820797Y-115248590D01*
X138427471Y-115641230D01*
X138341151Y-115849112D01*
X138256110Y-115643297D01*
X137863470Y-115249971D01*
X137350200Y-115036843D01*
X136794439Y-115036358D01*
X136280797Y-115248590D01*
X135887471Y-115641230D01*
X135801151Y-115849112D01*
X135716110Y-115643297D01*
X135323470Y-115249971D01*
X134810200Y-115036843D01*
X134254439Y-115036358D01*
X133740797Y-115248590D01*
X133347471Y-115641230D01*
X133261151Y-115849112D01*
X133176110Y-115643297D01*
X132783470Y-115249971D01*
X132270200Y-115036843D01*
X131714439Y-115036358D01*
X131200797Y-115248590D01*
X130807471Y-115641230D01*
X130721151Y-115849112D01*
X130636110Y-115643297D01*
X130243470Y-115249971D01*
X129730200Y-115036843D01*
X129174439Y-115036358D01*
X128660797Y-115248590D01*
X128267471Y-115641230D01*
X128181151Y-115849112D01*
X128096110Y-115643297D01*
X127703470Y-115249971D01*
X127190200Y-115036843D01*
X126634439Y-115036358D01*
X126120797Y-115248590D01*
X125727471Y-115641230D01*
X125514343Y-116154500D01*
X125513858Y-116710261D01*
X125726090Y-117223903D01*
X126078933Y-117577363D01*
X125913783Y-117608438D01*
X125697659Y-117747510D01*
X125552669Y-117959710D01*
X125501660Y-118211600D01*
X125501660Y-119735600D01*
X125509254Y-119775961D01*
X124441914Y-119062787D01*
X122431110Y-116053405D01*
X122097846Y-114377971D01*
X131933821Y-114377971D01*
X132091058Y-114758515D01*
X132381954Y-115049919D01*
X132762223Y-115207820D01*
X133173971Y-115208179D01*
X133554515Y-115050942D01*
X133845919Y-114760046D01*
X134003820Y-114379777D01*
X134003821Y-114377971D01*
X137140821Y-114377971D01*
X137298058Y-114758515D01*
X137588954Y-115049919D01*
X137969223Y-115207820D01*
X138380971Y-115208179D01*
X138761515Y-115050942D01*
X139052919Y-114760046D01*
X139210820Y-114379777D01*
X139210821Y-114377971D01*
X142347821Y-114377971D01*
X142505058Y-114758515D01*
X142795954Y-115049919D01*
X143176223Y-115207820D01*
X143587971Y-115208179D01*
X143968515Y-115050942D01*
X144259919Y-114760046D01*
X144417820Y-114379777D01*
X144417821Y-114377971D01*
X147554821Y-114377971D01*
X147712058Y-114758515D01*
X148002954Y-115049919D01*
X148383223Y-115207820D01*
X148794971Y-115208179D01*
X149175515Y-115050942D01*
X149466919Y-114760046D01*
X149624820Y-114379777D01*
X149624821Y-114377971D01*
X152761821Y-114377971D01*
X152919058Y-114758515D01*
X153209954Y-115049919D01*
X153590223Y-115207820D01*
X154001971Y-115208179D01*
X154382515Y-115050942D01*
X154673919Y-114760046D01*
X154831820Y-114379777D01*
X154831821Y-114377971D01*
X157968821Y-114377971D01*
X158126058Y-114758515D01*
X158416954Y-115049919D01*
X158797223Y-115207820D01*
X159208971Y-115208179D01*
X159589515Y-115050942D01*
X159880919Y-114760046D01*
X160038820Y-114379777D01*
X160039179Y-113968029D01*
X159881942Y-113587485D01*
X159591046Y-113296081D01*
X159210777Y-113138180D01*
X158799029Y-113137821D01*
X158418485Y-113295058D01*
X158127081Y-113585954D01*
X157969180Y-113966223D01*
X157968821Y-114377971D01*
X154831821Y-114377971D01*
X154832179Y-113968029D01*
X154674942Y-113587485D01*
X154384046Y-113296081D01*
X154003777Y-113138180D01*
X153592029Y-113137821D01*
X153211485Y-113295058D01*
X152920081Y-113585954D01*
X152762180Y-113966223D01*
X152761821Y-114377971D01*
X149624821Y-114377971D01*
X149625179Y-113968029D01*
X149467942Y-113587485D01*
X149177046Y-113296081D01*
X148796777Y-113138180D01*
X148385029Y-113137821D01*
X148004485Y-113295058D01*
X147713081Y-113585954D01*
X147555180Y-113966223D01*
X147554821Y-114377971D01*
X144417821Y-114377971D01*
X144418179Y-113968029D01*
X144260942Y-113587485D01*
X143970046Y-113296081D01*
X143589777Y-113138180D01*
X143178029Y-113137821D01*
X142797485Y-113295058D01*
X142506081Y-113585954D01*
X142348180Y-113966223D01*
X142347821Y-114377971D01*
X139210821Y-114377971D01*
X139211179Y-113968029D01*
X139053942Y-113587485D01*
X138763046Y-113296081D01*
X138382777Y-113138180D01*
X137971029Y-113137821D01*
X137590485Y-113295058D01*
X137299081Y-113585954D01*
X137141180Y-113966223D01*
X137140821Y-114377971D01*
X134003821Y-114377971D01*
X134004179Y-113968029D01*
X133846942Y-113587485D01*
X133556046Y-113296081D01*
X133175777Y-113138180D01*
X132764029Y-113137821D01*
X132383485Y-113295058D01*
X132092081Y-113585954D01*
X131934180Y-113966223D01*
X131933821Y-114377971D01*
X122097846Y-114377971D01*
X121744180Y-112599971D01*
X123297821Y-112599971D01*
X123455058Y-112980515D01*
X123745954Y-113271919D01*
X124126223Y-113429820D01*
X124537971Y-113430179D01*
X124918515Y-113272942D01*
X125209919Y-112982046D01*
X125315835Y-112726971D01*
X127615821Y-112726971D01*
X127773058Y-113107515D01*
X128063954Y-113398919D01*
X128444223Y-113556820D01*
X128855971Y-113557179D01*
X129236515Y-113399942D01*
X129527919Y-113109046D01*
X129685820Y-112728777D01*
X129685932Y-112599971D01*
X161397821Y-112599971D01*
X161555058Y-112980515D01*
X161845954Y-113271919D01*
X162226223Y-113429820D01*
X162637971Y-113430179D01*
X163018515Y-113272942D01*
X163309919Y-112982046D01*
X163467820Y-112601777D01*
X163467821Y-112599971D01*
X166223821Y-112599971D01*
X166381058Y-112980515D01*
X166430288Y-113029831D01*
X166382081Y-113077954D01*
X166224180Y-113458223D01*
X166223821Y-113869971D01*
X166381058Y-114250515D01*
X166671954Y-114541919D01*
X167052223Y-114699820D01*
X167463971Y-114700179D01*
X167844515Y-114542942D01*
X168135919Y-114252046D01*
X168293820Y-113871777D01*
X168294179Y-113460029D01*
X168136942Y-113079485D01*
X168087712Y-113030169D01*
X168135919Y-112982046D01*
X168293820Y-112601777D01*
X168293821Y-112599971D01*
X168509821Y-112599971D01*
X168667058Y-112980515D01*
X168716288Y-113029831D01*
X168668081Y-113077954D01*
X168510180Y-113458223D01*
X168509821Y-113869971D01*
X168667058Y-114250515D01*
X168957954Y-114541919D01*
X169338223Y-114699820D01*
X169749971Y-114700179D01*
X170130515Y-114542942D01*
X170307053Y-114366712D01*
X170481954Y-114541919D01*
X170862223Y-114699820D01*
X171273971Y-114700179D01*
X171640933Y-114548554D01*
X172005223Y-114699820D01*
X172416971Y-114700179D01*
X172797515Y-114542942D01*
X173088919Y-114252046D01*
X173246820Y-113871777D01*
X173247179Y-113460029D01*
X173089942Y-113079485D01*
X172799046Y-112788081D01*
X172418777Y-112630180D01*
X172007029Y-112629821D01*
X171640067Y-112781446D01*
X171275777Y-112630180D01*
X170864029Y-112629821D01*
X170506903Y-112777382D01*
X170579820Y-112601777D01*
X170579932Y-112472971D01*
X172827821Y-112472971D01*
X172985058Y-112853515D01*
X173275954Y-113144919D01*
X173656223Y-113302820D01*
X174067971Y-113303179D01*
X174448515Y-113145942D01*
X174739919Y-112855046D01*
X174897820Y-112474777D01*
X174898179Y-112063029D01*
X174740942Y-111682485D01*
X174450046Y-111391081D01*
X174069777Y-111233180D01*
X173658029Y-111232821D01*
X173277485Y-111390058D01*
X172986081Y-111680954D01*
X172828180Y-112061223D01*
X172827821Y-112472971D01*
X170579932Y-112472971D01*
X170580179Y-112190029D01*
X170422942Y-111809485D01*
X170132046Y-111518081D01*
X169751777Y-111360180D01*
X169340029Y-111359821D01*
X168959485Y-111517058D01*
X168668081Y-111807954D01*
X168510180Y-112188223D01*
X168509821Y-112599971D01*
X168293821Y-112599971D01*
X168294179Y-112190029D01*
X168136942Y-111809485D01*
X167846046Y-111518081D01*
X167465777Y-111360180D01*
X167054029Y-111359821D01*
X166673485Y-111517058D01*
X166382081Y-111807954D01*
X166224180Y-112188223D01*
X166223821Y-112599971D01*
X163467821Y-112599971D01*
X163468179Y-112190029D01*
X163310942Y-111809485D01*
X163020046Y-111518081D01*
X162639777Y-111360180D01*
X162228029Y-111359821D01*
X161847485Y-111517058D01*
X161556081Y-111807954D01*
X161398180Y-112188223D01*
X161397821Y-112599971D01*
X129685932Y-112599971D01*
X129686179Y-112317029D01*
X129528942Y-111936485D01*
X129238046Y-111645081D01*
X128857777Y-111487180D01*
X128446029Y-111486821D01*
X128065485Y-111644058D01*
X127774081Y-111934954D01*
X127616180Y-112315223D01*
X127615821Y-112726971D01*
X125315835Y-112726971D01*
X125367820Y-112601777D01*
X125368179Y-112190029D01*
X125210942Y-111809485D01*
X124920046Y-111518081D01*
X124539777Y-111360180D01*
X124128029Y-111359821D01*
X123747485Y-111517058D01*
X123456081Y-111807954D01*
X123298180Y-112188223D01*
X123297821Y-112599971D01*
X121744180Y-112599971D01*
X121711100Y-112433669D01*
X121711100Y-111202971D01*
X130155821Y-111202971D01*
X130313058Y-111583515D01*
X130603954Y-111874919D01*
X130984223Y-112032820D01*
X131395971Y-112033179D01*
X131776515Y-111875942D01*
X132067919Y-111585046D01*
X132225820Y-111204777D01*
X132226179Y-110793029D01*
X132068942Y-110412485D01*
X131778046Y-110121081D01*
X131397777Y-109963180D01*
X130986029Y-109962821D01*
X130605485Y-110120058D01*
X130314081Y-110410954D01*
X130156180Y-110791223D01*
X130155821Y-111202971D01*
X121711100Y-111202971D01*
X121711100Y-109678971D01*
X122027821Y-109678971D01*
X122185058Y-110059515D01*
X122475954Y-110350919D01*
X122856223Y-110508820D01*
X123267971Y-110509179D01*
X123648515Y-110351942D01*
X123939919Y-110061046D01*
X124097820Y-109680777D01*
X124098179Y-109269029D01*
X124032874Y-109110979D01*
X124410515Y-108954942D01*
X124526659Y-108839000D01*
X125584110Y-108839000D01*
X125583821Y-109170971D01*
X125741058Y-109551515D01*
X126031954Y-109842919D01*
X126412223Y-110000820D01*
X126823971Y-110001179D01*
X127204515Y-109843942D01*
X127495919Y-109553046D01*
X127652073Y-109176984D01*
X127682954Y-109207919D01*
X128063223Y-109365820D01*
X128474971Y-109366179D01*
X128855515Y-109208942D01*
X129146919Y-108918046D01*
X129304820Y-108537777D01*
X129305179Y-108126029D01*
X129147942Y-107745485D01*
X128905755Y-107502875D01*
X130617630Y-105791000D01*
X132454608Y-105791000D01*
X132359400Y-106269641D01*
X132359400Y-106328359D01*
X132473474Y-106901848D01*
X132798330Y-107388029D01*
X133284511Y-107712885D01*
X133858000Y-107826959D01*
X134431489Y-107712885D01*
X134917670Y-107388029D01*
X135128000Y-107073248D01*
X135338330Y-107388029D01*
X135824511Y-107712885D01*
X136398000Y-107826959D01*
X136971489Y-107712885D01*
X137457670Y-107388029D01*
X137668000Y-107073248D01*
X137878330Y-107388029D01*
X138364511Y-107712885D01*
X138938000Y-107826959D01*
X139511489Y-107712885D01*
X139997670Y-107388029D01*
X140208000Y-107073248D01*
X140418330Y-107388029D01*
X140904511Y-107712885D01*
X141478000Y-107826959D01*
X142051489Y-107712885D01*
X142537670Y-107388029D01*
X142748000Y-107073248D01*
X142958330Y-107388029D01*
X143010679Y-107423007D01*
X142797029Y-107422821D01*
X142416485Y-107580058D01*
X142125081Y-107870954D01*
X141967180Y-108251223D01*
X141966821Y-108662971D01*
X142124058Y-109043515D01*
X142414954Y-109334919D01*
X142795223Y-109492820D01*
X143206971Y-109493179D01*
X143587515Y-109335942D01*
X143878919Y-109045046D01*
X144036820Y-108664777D01*
X144037179Y-108253029D01*
X143879942Y-107872485D01*
X143789030Y-107781414D01*
X144018000Y-107826959D01*
X144591489Y-107712885D01*
X145077670Y-107388029D01*
X145293664Y-107064772D01*
X145351179Y-107187490D01*
X145783053Y-107581688D01*
X146198974Y-107753958D01*
X146431000Y-107632817D01*
X146431000Y-106426000D01*
X146685000Y-106426000D01*
X146685000Y-107632817D01*
X146917026Y-107753958D01*
X147332947Y-107581688D01*
X147764821Y-107187490D01*
X147828000Y-107052687D01*
X147891179Y-107187490D01*
X148149141Y-107422948D01*
X148004029Y-107422821D01*
X147623485Y-107580058D01*
X147332081Y-107870954D01*
X147174180Y-108251223D01*
X147173821Y-108662971D01*
X147331058Y-109043515D01*
X147621954Y-109334919D01*
X148002223Y-109492820D01*
X148413971Y-109493179D01*
X148794515Y-109335942D01*
X149085919Y-109045046D01*
X149243820Y-108664777D01*
X149244179Y-108253029D01*
X149086942Y-107872485D01*
X148889940Y-107675139D01*
X148971000Y-107632817D01*
X148971000Y-106426000D01*
X146685000Y-106426000D01*
X146431000Y-106426000D01*
X146411000Y-106426000D01*
X146411000Y-106172000D01*
X146431000Y-106172000D01*
X146431000Y-106152000D01*
X146685000Y-106152000D01*
X146685000Y-106172000D01*
X148971000Y-106172000D01*
X148971000Y-106152000D01*
X149225000Y-106152000D01*
X149225000Y-106172000D01*
X149245000Y-106172000D01*
X149245000Y-106426000D01*
X149225000Y-106426000D01*
X149225000Y-107632817D01*
X149457026Y-107753958D01*
X149872947Y-107581688D01*
X150304821Y-107187490D01*
X150362336Y-107064772D01*
X150578330Y-107388029D01*
X151064511Y-107712885D01*
X151638000Y-107826959D01*
X152146000Y-107725912D01*
X152146000Y-107950000D01*
X152204004Y-108241605D01*
X152288863Y-108368605D01*
X152369185Y-108488815D01*
X152380963Y-108500593D01*
X152380821Y-108662971D01*
X152538058Y-109043515D01*
X152828954Y-109334919D01*
X153209223Y-109492820D01*
X153620971Y-109493179D01*
X154001515Y-109335942D01*
X154292919Y-109045046D01*
X154450820Y-108664777D01*
X154451179Y-108253029D01*
X154293942Y-107872485D01*
X154236816Y-107815260D01*
X154751489Y-107712885D01*
X155237670Y-107388029D01*
X155448000Y-107073248D01*
X155658330Y-107388029D01*
X156144511Y-107712885D01*
X156718000Y-107826959D01*
X157291489Y-107712885D01*
X157777670Y-107388029D01*
X157993664Y-107064772D01*
X158051179Y-107187490D01*
X158055636Y-107191558D01*
X158037485Y-107199058D01*
X157746081Y-107489954D01*
X157588180Y-107870223D01*
X157587821Y-108281971D01*
X157745058Y-108662515D01*
X158035954Y-108953919D01*
X158416223Y-109111820D01*
X158827971Y-109112179D01*
X159208515Y-108954942D01*
X159499919Y-108664046D01*
X159657820Y-108283777D01*
X159658179Y-107872029D01*
X159607294Y-107748877D01*
X159617026Y-107753958D01*
X160032947Y-107581688D01*
X160464821Y-107187490D01*
X160528000Y-107052687D01*
X160591179Y-107187490D01*
X161023053Y-107581688D01*
X161438974Y-107753958D01*
X161671000Y-107632817D01*
X161671000Y-106426000D01*
X161925000Y-106426000D01*
X161925000Y-107632817D01*
X162157026Y-107753958D01*
X162572947Y-107581688D01*
X163004821Y-107187490D01*
X163068000Y-107052687D01*
X163131179Y-107187490D01*
X163563053Y-107581688D01*
X163978974Y-107753958D01*
X164211000Y-107632817D01*
X164211000Y-106426000D01*
X161925000Y-106426000D01*
X161671000Y-106426000D01*
X159385000Y-106426000D01*
X159385000Y-106446000D01*
X159131000Y-106446000D01*
X159131000Y-106426000D01*
X159111000Y-106426000D01*
X159111000Y-106172000D01*
X159131000Y-106172000D01*
X159131000Y-106152000D01*
X159385000Y-106152000D01*
X159385000Y-106172000D01*
X161671000Y-106172000D01*
X161671000Y-106152000D01*
X161925000Y-106152000D01*
X161925000Y-106172000D01*
X164211000Y-106172000D01*
X164211000Y-106152000D01*
X164465000Y-106152000D01*
X164465000Y-106172000D01*
X164485000Y-106172000D01*
X164485000Y-106426000D01*
X164465000Y-106426000D01*
X164465000Y-107632817D01*
X164697026Y-107753958D01*
X165112947Y-107581688D01*
X165404616Y-107315464D01*
X165412004Y-107352605D01*
X165536005Y-107538185D01*
X165577185Y-107599815D01*
X166593185Y-108615815D01*
X166840395Y-108780996D01*
X167132000Y-108839000D01*
X168467370Y-108839000D01*
X168623261Y-108994892D01*
X168510180Y-109267223D01*
X168509821Y-109678971D01*
X168667058Y-110059515D01*
X168957954Y-110350919D01*
X169338223Y-110508820D01*
X169749971Y-110509179D01*
X170130515Y-110351942D01*
X170421919Y-110061046D01*
X170499563Y-109874057D01*
X170638971Y-109874179D01*
X171019515Y-109716942D01*
X171057552Y-109678971D01*
X172827821Y-109678971D01*
X172985058Y-110059515D01*
X173275954Y-110350919D01*
X173656223Y-110508820D01*
X174067971Y-110509179D01*
X174448515Y-110351942D01*
X174739919Y-110061046D01*
X174897820Y-109680777D01*
X174898179Y-109269029D01*
X174740942Y-108888485D01*
X174450046Y-108597081D01*
X174069777Y-108439180D01*
X173658029Y-108438821D01*
X173277485Y-108596058D01*
X172986081Y-108886954D01*
X172828180Y-109267223D01*
X172827821Y-109678971D01*
X171057552Y-109678971D01*
X171310919Y-109426046D01*
X171468820Y-109045777D01*
X171469179Y-108634029D01*
X171311942Y-108253485D01*
X171021046Y-107962081D01*
X170640777Y-107804180D01*
X170229029Y-107803821D01*
X169848485Y-107961058D01*
X169796542Y-108012911D01*
X169498701Y-107715071D01*
X169622971Y-107715179D01*
X170003515Y-107557942D01*
X170041552Y-107519971D01*
X170922821Y-107519971D01*
X171080058Y-107900515D01*
X171370954Y-108191919D01*
X171751223Y-108349820D01*
X172162971Y-108350179D01*
X172543515Y-108192942D01*
X172834919Y-107902046D01*
X172992820Y-107521777D01*
X172993179Y-107110029D01*
X172835942Y-106729485D01*
X172545046Y-106438081D01*
X172164777Y-106280180D01*
X171753029Y-106279821D01*
X171372485Y-106437058D01*
X171081081Y-106727954D01*
X170923180Y-107108223D01*
X170922821Y-107519971D01*
X170041552Y-107519971D01*
X170294919Y-107267046D01*
X170452820Y-106886777D01*
X170453179Y-106475029D01*
X170295942Y-106094485D01*
X170005046Y-105803081D01*
X169624777Y-105645180D01*
X169213029Y-105644821D01*
X168846067Y-105796446D01*
X168481777Y-105645180D01*
X168070029Y-105644821D01*
X167689485Y-105802058D01*
X167398081Y-106092954D01*
X167240180Y-106473223D01*
X167239821Y-106884971D01*
X167396293Y-107263663D01*
X166878000Y-106745370D01*
X166878000Y-104587659D01*
X167052954Y-104762919D01*
X167433223Y-104920820D01*
X167844971Y-104921179D01*
X168225515Y-104763942D01*
X168516919Y-104473046D01*
X168674820Y-104092777D01*
X168674821Y-104090971D01*
X168890821Y-104090971D01*
X169048058Y-104471515D01*
X169338954Y-104762919D01*
X169719223Y-104920820D01*
X170130971Y-104921179D01*
X170511515Y-104763942D01*
X170802919Y-104473046D01*
X170960820Y-104092777D01*
X170961179Y-103681029D01*
X170922177Y-103586636D01*
X171146515Y-103493942D01*
X171437919Y-103203046D01*
X171595820Y-102822777D01*
X171596036Y-102574951D01*
X171624954Y-102603919D01*
X172005223Y-102761820D01*
X172416971Y-102762179D01*
X172797515Y-102604942D01*
X173088919Y-102314046D01*
X173246820Y-101933777D01*
X173247179Y-101522029D01*
X173089942Y-101141485D01*
X172799046Y-100850081D01*
X172418777Y-100692180D01*
X172007029Y-100691821D01*
X171626485Y-100849058D01*
X171335081Y-101139954D01*
X171177180Y-101520223D01*
X171176964Y-101768049D01*
X171148046Y-101739081D01*
X170767777Y-101581180D01*
X170356029Y-101580821D01*
X169975485Y-101738058D01*
X169684081Y-102028954D01*
X169526180Y-102409223D01*
X169525821Y-102820971D01*
X169564823Y-102915364D01*
X169340485Y-103008058D01*
X169049081Y-103298954D01*
X168891180Y-103679223D01*
X168890821Y-104090971D01*
X168674821Y-104090971D01*
X168675179Y-103681029D01*
X168517942Y-103300485D01*
X168227046Y-103009081D01*
X167846777Y-102851180D01*
X167788873Y-102851130D01*
X167835996Y-102780605D01*
X167894000Y-102489000D01*
X167894000Y-96089971D01*
X171303821Y-96089971D01*
X171461058Y-96470515D01*
X171751954Y-96761919D01*
X172132223Y-96919820D01*
X172543971Y-96920179D01*
X172924515Y-96762942D01*
X173215919Y-96472046D01*
X173373820Y-96091777D01*
X173374179Y-95680029D01*
X173216942Y-95299485D01*
X172926046Y-95008081D01*
X172545777Y-94850180D01*
X172134029Y-94849821D01*
X171753485Y-95007058D01*
X171462081Y-95297954D01*
X171304180Y-95678223D01*
X171303821Y-96089971D01*
X167894000Y-96089971D01*
X167894000Y-94996000D01*
X167884345Y-94947462D01*
X168341403Y-94758610D01*
X168734729Y-94365970D01*
X168821049Y-94158088D01*
X168906090Y-94363903D01*
X169298730Y-94757229D01*
X169812000Y-94970357D01*
X170367761Y-94970842D01*
X170881403Y-94758610D01*
X171274729Y-94365970D01*
X171487857Y-93852700D01*
X171488342Y-93296939D01*
X171276110Y-92783297D01*
X170883470Y-92389971D01*
X170675588Y-92303651D01*
X170881403Y-92218610D01*
X171274729Y-91825970D01*
X171487857Y-91312700D01*
X171488342Y-90756939D01*
X171276110Y-90243297D01*
X170883470Y-89849971D01*
X170370200Y-89636843D01*
X169814439Y-89636358D01*
X169300797Y-89848590D01*
X168907471Y-90241230D01*
X168821151Y-90449112D01*
X168736110Y-90243297D01*
X168343470Y-89849971D01*
X167830200Y-89636843D01*
X167274439Y-89636358D01*
X166760797Y-89848590D01*
X166367471Y-90241230D01*
X166281151Y-90449112D01*
X166196110Y-90243297D01*
X165803470Y-89849971D01*
X165290200Y-89636843D01*
X164734439Y-89636358D01*
X164220797Y-89848590D01*
X163827471Y-90241230D01*
X163741151Y-90449112D01*
X163656110Y-90243297D01*
X163263470Y-89849971D01*
X162750200Y-89636843D01*
X162194439Y-89636358D01*
X161680797Y-89848590D01*
X161287471Y-90241230D01*
X161201151Y-90449112D01*
X161116110Y-90243297D01*
X160723470Y-89849971D01*
X160210200Y-89636843D01*
X159654439Y-89636358D01*
X159140797Y-89848590D01*
X158747471Y-90241230D01*
X158661151Y-90449112D01*
X158576110Y-90243297D01*
X158183470Y-89849971D01*
X157670200Y-89636843D01*
X157114439Y-89636358D01*
X156600797Y-89848590D01*
X156207471Y-90241230D01*
X156121151Y-90449112D01*
X156036110Y-90243297D01*
X155643470Y-89849971D01*
X155130200Y-89636843D01*
X154574439Y-89636358D01*
X154060797Y-89848590D01*
X153667471Y-90241230D01*
X153581151Y-90449112D01*
X153496110Y-90243297D01*
X153103470Y-89849971D01*
X152590200Y-89636843D01*
X152034439Y-89636358D01*
X151520797Y-89848590D01*
X151127471Y-90241230D01*
X151041151Y-90449112D01*
X150956110Y-90243297D01*
X150563470Y-89849971D01*
X150050200Y-89636843D01*
X149624912Y-89636472D01*
X149625179Y-89330029D01*
X149467942Y-88949485D01*
X149177046Y-88658081D01*
X148796777Y-88500180D01*
X148385029Y-88499821D01*
X148004485Y-88657058D01*
X147713081Y-88947954D01*
X147555180Y-89328223D01*
X147554895Y-89655402D01*
X147510200Y-89636843D01*
X146954439Y-89636358D01*
X146440797Y-89848590D01*
X146047471Y-90241230D01*
X145961151Y-90449112D01*
X145876110Y-90243297D01*
X145483470Y-89849971D01*
X144970200Y-89636843D01*
X144414439Y-89636358D01*
X143900797Y-89848590D01*
X143507471Y-90241230D01*
X143421151Y-90449112D01*
X143336110Y-90243297D01*
X142943470Y-89849971D01*
X142430200Y-89636843D01*
X141874439Y-89636358D01*
X141360797Y-89848590D01*
X140967471Y-90241230D01*
X140881151Y-90449112D01*
X140796110Y-90243297D01*
X140403470Y-89849971D01*
X139890200Y-89636843D01*
X139334439Y-89636358D01*
X138820797Y-89848590D01*
X138427471Y-90241230D01*
X138341151Y-90449112D01*
X138256110Y-90243297D01*
X137863470Y-89849971D01*
X137350200Y-89636843D01*
X136794439Y-89636358D01*
X136280797Y-89848590D01*
X135887471Y-90241230D01*
X135801151Y-90449112D01*
X135716110Y-90243297D01*
X135323470Y-89849971D01*
X134810200Y-89636843D01*
X134254439Y-89636358D01*
X133740797Y-89848590D01*
X133347471Y-90241230D01*
X133261151Y-90449112D01*
X133176110Y-90243297D01*
X132783470Y-89849971D01*
X132270200Y-89636843D01*
X131714439Y-89636358D01*
X131200797Y-89848590D01*
X130807471Y-90241230D01*
X130721151Y-90449112D01*
X130636110Y-90243297D01*
X130243470Y-89849971D01*
X129730200Y-89636843D01*
X129174439Y-89636358D01*
X128660797Y-89848590D01*
X128267471Y-90241230D01*
X128181151Y-90449112D01*
X128096110Y-90243297D01*
X127703470Y-89849971D01*
X127190200Y-89636843D01*
X126634439Y-89636358D01*
X126120797Y-89848590D01*
X125727471Y-90241230D01*
X125514343Y-90754500D01*
X125513858Y-91310261D01*
X125726090Y-91823903D01*
X126078933Y-92177363D01*
X125913783Y-92208438D01*
X125697659Y-92347510D01*
X125552669Y-92559710D01*
X125501660Y-92811600D01*
X125501660Y-94335600D01*
X125545938Y-94570917D01*
X125685010Y-94787041D01*
X125897210Y-94932031D01*
X126149100Y-94983040D01*
X127673100Y-94983040D01*
X127908417Y-94938762D01*
X128124541Y-94799690D01*
X128269531Y-94587490D01*
X128306592Y-94404476D01*
X128658730Y-94757229D01*
X129172000Y-94970357D01*
X129550509Y-94970687D01*
X129462485Y-95007058D01*
X129171081Y-95297954D01*
X129013180Y-95678223D01*
X129012821Y-96089971D01*
X129170058Y-96470515D01*
X129460954Y-96761919D01*
X129841223Y-96919820D01*
X130252971Y-96920179D01*
X130409929Y-96855326D01*
X130409821Y-96978971D01*
X130567058Y-97359515D01*
X130857954Y-97650919D01*
X131238223Y-97808820D01*
X131649971Y-97809179D01*
X132030515Y-97651942D01*
X132321919Y-97361046D01*
X132479820Y-96980777D01*
X132479929Y-96855337D01*
X132635223Y-96919820D01*
X133046971Y-96920179D01*
X133427515Y-96762942D01*
X133718919Y-96472046D01*
X133876820Y-96091777D01*
X133876821Y-96089971D01*
X137140821Y-96089971D01*
X137298058Y-96470515D01*
X137588954Y-96761919D01*
X137969223Y-96919820D01*
X138380971Y-96920179D01*
X138761515Y-96762942D01*
X139052919Y-96472046D01*
X139210820Y-96091777D01*
X139210821Y-96089971D01*
X142347821Y-96089971D01*
X142505058Y-96470515D01*
X142795954Y-96761919D01*
X143176223Y-96919820D01*
X143587971Y-96920179D01*
X143968515Y-96762942D01*
X144259919Y-96472046D01*
X144417820Y-96091777D01*
X144417821Y-96089971D01*
X147681821Y-96089971D01*
X147839058Y-96470515D01*
X148129954Y-96761919D01*
X148510223Y-96919820D01*
X148921971Y-96920179D01*
X149302515Y-96762942D01*
X149593919Y-96472046D01*
X149751820Y-96091777D01*
X149751821Y-96089971D01*
X153015821Y-96089971D01*
X153173058Y-96470515D01*
X153463954Y-96761919D01*
X153844223Y-96919820D01*
X154255971Y-96920179D01*
X154636515Y-96762942D01*
X154927919Y-96472046D01*
X155085820Y-96091777D01*
X155086179Y-95680029D01*
X154928942Y-95299485D01*
X154638046Y-95008081D01*
X154257777Y-94850180D01*
X153846029Y-94849821D01*
X153465485Y-95007058D01*
X153174081Y-95297954D01*
X153016180Y-95678223D01*
X153015821Y-96089971D01*
X149751821Y-96089971D01*
X149752179Y-95680029D01*
X149594942Y-95299485D01*
X149304046Y-95008081D01*
X148923777Y-94850180D01*
X148512029Y-94849821D01*
X148131485Y-95007058D01*
X147840081Y-95297954D01*
X147682180Y-95678223D01*
X147681821Y-96089971D01*
X144417821Y-96089971D01*
X144418179Y-95680029D01*
X144260942Y-95299485D01*
X143970046Y-95008081D01*
X143589777Y-94850180D01*
X143178029Y-94849821D01*
X142797485Y-95007058D01*
X142506081Y-95297954D01*
X142348180Y-95678223D01*
X142347821Y-96089971D01*
X139210821Y-96089971D01*
X139211179Y-95680029D01*
X139053942Y-95299485D01*
X138763046Y-95008081D01*
X138382777Y-94850180D01*
X137971029Y-94849821D01*
X137590485Y-95007058D01*
X137299081Y-95297954D01*
X137141180Y-95678223D01*
X137140821Y-96089971D01*
X133876821Y-96089971D01*
X133877179Y-95680029D01*
X133719942Y-95299485D01*
X133429046Y-95008081D01*
X133048777Y-94850180D01*
X132637029Y-94849821D01*
X132256485Y-95007058D01*
X131965081Y-95297954D01*
X131807180Y-95678223D01*
X131807071Y-95803663D01*
X131651777Y-95739180D01*
X131240029Y-95738821D01*
X131083071Y-95803674D01*
X131083179Y-95680029D01*
X130925942Y-95299485D01*
X130635046Y-95008081D01*
X130254777Y-94850180D01*
X130020281Y-94849976D01*
X130241403Y-94758610D01*
X130634729Y-94365970D01*
X130721049Y-94158088D01*
X130806090Y-94363903D01*
X131198730Y-94757229D01*
X131712000Y-94970357D01*
X132267761Y-94970842D01*
X132781403Y-94758610D01*
X133174729Y-94365970D01*
X133261049Y-94158088D01*
X133346090Y-94363903D01*
X133738730Y-94757229D01*
X134252000Y-94970357D01*
X134807761Y-94970842D01*
X135321403Y-94758610D01*
X135714729Y-94365970D01*
X135801049Y-94158088D01*
X135886090Y-94363903D01*
X136278730Y-94757229D01*
X136792000Y-94970357D01*
X137347761Y-94970842D01*
X137861403Y-94758610D01*
X138254729Y-94365970D01*
X138341049Y-94158088D01*
X138426090Y-94363903D01*
X138818730Y-94757229D01*
X139332000Y-94970357D01*
X139887761Y-94970842D01*
X140401403Y-94758610D01*
X140794729Y-94365970D01*
X140881049Y-94158088D01*
X140966090Y-94363903D01*
X141358730Y-94757229D01*
X141872000Y-94970357D01*
X142427761Y-94970842D01*
X142941403Y-94758610D01*
X143146557Y-94553813D01*
X143890492Y-94553813D01*
X143959957Y-94795997D01*
X144483402Y-94982744D01*
X145038468Y-94954962D01*
X145422243Y-94795997D01*
X145491708Y-94553813D01*
X144691100Y-93753205D01*
X143890492Y-94553813D01*
X143146557Y-94553813D01*
X143334729Y-94365970D01*
X143414495Y-94173873D01*
X143468703Y-94304743D01*
X143710887Y-94374208D01*
X144511495Y-93573600D01*
X143710887Y-92772992D01*
X143468703Y-92842457D01*
X143418591Y-92982918D01*
X143336110Y-92783297D01*
X142943470Y-92389971D01*
X142735588Y-92303651D01*
X142941403Y-92218610D01*
X143334729Y-91825970D01*
X143421049Y-91618088D01*
X143506090Y-91823903D01*
X143898730Y-92217229D01*
X144090827Y-92296995D01*
X143959957Y-92351203D01*
X143890492Y-92593387D01*
X144691100Y-93393995D01*
X145491708Y-92593387D01*
X145422243Y-92351203D01*
X145281782Y-92301091D01*
X145481403Y-92218610D01*
X145874729Y-91825970D01*
X145961049Y-91618088D01*
X146046090Y-91823903D01*
X146438730Y-92217229D01*
X146646612Y-92303549D01*
X146440797Y-92388590D01*
X146047471Y-92781230D01*
X145967705Y-92973327D01*
X145913497Y-92842457D01*
X145671313Y-92772992D01*
X144870705Y-93573600D01*
X145671313Y-94374208D01*
X145913497Y-94304743D01*
X145963609Y-94164282D01*
X146046090Y-94363903D01*
X146438730Y-94757229D01*
X146952000Y-94970357D01*
X147507761Y-94970842D01*
X148021403Y-94758610D01*
X148414729Y-94365970D01*
X148501049Y-94158088D01*
X148586090Y-94363903D01*
X148978730Y-94757229D01*
X149492000Y-94970357D01*
X150047761Y-94970842D01*
X150561403Y-94758610D01*
X150766557Y-94553813D01*
X151510492Y-94553813D01*
X151579957Y-94795997D01*
X152103402Y-94982744D01*
X152658468Y-94954962D01*
X153042243Y-94795997D01*
X153111708Y-94553813D01*
X152311100Y-93753205D01*
X151510492Y-94553813D01*
X150766557Y-94553813D01*
X150954729Y-94365970D01*
X151034495Y-94173873D01*
X151088703Y-94304743D01*
X151330887Y-94374208D01*
X152131495Y-93573600D01*
X151330887Y-92772992D01*
X151088703Y-92842457D01*
X151038591Y-92982918D01*
X150956110Y-92783297D01*
X150563470Y-92389971D01*
X150355588Y-92303651D01*
X150561403Y-92218610D01*
X150954729Y-91825970D01*
X151041049Y-91618088D01*
X151126090Y-91823903D01*
X151518730Y-92217229D01*
X151710827Y-92296995D01*
X151579957Y-92351203D01*
X151510492Y-92593387D01*
X152311100Y-93393995D01*
X153111708Y-92593387D01*
X153042243Y-92351203D01*
X152901782Y-92301091D01*
X153101403Y-92218610D01*
X153494729Y-91825970D01*
X153581049Y-91618088D01*
X153666090Y-91823903D01*
X154058730Y-92217229D01*
X154266612Y-92303549D01*
X154060797Y-92388590D01*
X153667471Y-92781230D01*
X153587705Y-92973327D01*
X153533497Y-92842457D01*
X153291313Y-92772992D01*
X152490705Y-93573600D01*
X153291313Y-94374208D01*
X153533497Y-94304743D01*
X153583609Y-94164282D01*
X153666090Y-94363903D01*
X154058730Y-94757229D01*
X154572000Y-94970357D01*
X155127761Y-94970842D01*
X155641403Y-94758610D01*
X156034729Y-94365970D01*
X156121049Y-94158088D01*
X156206090Y-94363903D01*
X156598730Y-94757229D01*
X157112000Y-94970357D01*
X157667761Y-94970842D01*
X158181403Y-94758610D01*
X158574729Y-94365970D01*
X158661049Y-94158088D01*
X158746090Y-94363903D01*
X159138730Y-94757229D01*
X159362099Y-94849980D01*
X159180029Y-94849821D01*
X158799485Y-95007058D01*
X158508081Y-95297954D01*
X158350180Y-95678223D01*
X158349821Y-96089971D01*
X158507058Y-96470515D01*
X158797954Y-96761919D01*
X159178223Y-96919820D01*
X159589971Y-96920179D01*
X159970515Y-96762942D01*
X160261919Y-96472046D01*
X160419820Y-96091777D01*
X160420179Y-95680029D01*
X160262942Y-95299485D01*
X159972046Y-95008081D01*
X159881679Y-94970557D01*
X160207761Y-94970842D01*
X160721403Y-94758610D01*
X161114729Y-94365970D01*
X161201049Y-94158088D01*
X161286090Y-94363903D01*
X161678730Y-94757229D01*
X162192000Y-94970357D01*
X162747761Y-94970842D01*
X163261403Y-94758610D01*
X163654729Y-94365970D01*
X163741049Y-94158088D01*
X163826090Y-94363903D01*
X164218730Y-94757229D01*
X164441832Y-94849869D01*
X164387029Y-94849821D01*
X164006485Y-95007058D01*
X163715081Y-95297954D01*
X163557180Y-95678223D01*
X163556821Y-96089971D01*
X163714058Y-96470515D01*
X164004954Y-96761919D01*
X164385223Y-96919820D01*
X164796971Y-96920179D01*
X165177515Y-96762942D01*
X165468919Y-96472046D01*
X165626820Y-96091777D01*
X165627179Y-95680029D01*
X165469942Y-95299485D01*
X165179046Y-95008081D01*
X165088946Y-94970668D01*
X165287761Y-94970842D01*
X165801403Y-94758610D01*
X165809198Y-94750828D01*
X166370000Y-95311630D01*
X166370000Y-102173370D01*
X165588220Y-102955150D01*
X165397670Y-102669971D01*
X164922323Y-102352354D01*
X165087919Y-102187046D01*
X165245820Y-101806777D01*
X165246179Y-101395029D01*
X165088942Y-101014485D01*
X164798046Y-100723081D01*
X164417777Y-100565180D01*
X164006029Y-100564821D01*
X163625485Y-100722058D01*
X163334081Y-101012954D01*
X163176180Y-101393223D01*
X163175821Y-101804971D01*
X163333058Y-102185515D01*
X163601266Y-102454192D01*
X163278330Y-102669971D01*
X163068000Y-102984752D01*
X162857670Y-102669971D01*
X162371489Y-102345115D01*
X161798000Y-102231041D01*
X161224511Y-102345115D01*
X160738330Y-102669971D01*
X160528000Y-102984752D01*
X160317670Y-102669971D01*
X159831489Y-102345115D01*
X159740670Y-102327050D01*
X159880919Y-102187046D01*
X160038820Y-101806777D01*
X160039179Y-101395029D01*
X159881942Y-101014485D01*
X159591046Y-100723081D01*
X159210777Y-100565180D01*
X158799029Y-100564821D01*
X158418485Y-100722058D01*
X158127081Y-101012954D01*
X157969180Y-101393223D01*
X157968821Y-101804971D01*
X158126058Y-102185515D01*
X158416954Y-102476919D01*
X158460310Y-102494922D01*
X158198330Y-102669971D01*
X157982336Y-102993228D01*
X157924821Y-102870510D01*
X157492947Y-102476312D01*
X157077026Y-102304042D01*
X156845000Y-102425183D01*
X156845000Y-103632000D01*
X156865000Y-103632000D01*
X156865000Y-103886000D01*
X156845000Y-103886000D01*
X156845000Y-103906000D01*
X156591000Y-103906000D01*
X156591000Y-103886000D01*
X154305000Y-103886000D01*
X154305000Y-103906000D01*
X154051000Y-103906000D01*
X154051000Y-103886000D01*
X154031000Y-103886000D01*
X154031000Y-103632000D01*
X154051000Y-103632000D01*
X154051000Y-103612000D01*
X154305000Y-103612000D01*
X154305000Y-103632000D01*
X156591000Y-103632000D01*
X156591000Y-102425183D01*
X156358974Y-102304042D01*
X155943053Y-102476312D01*
X155511179Y-102870510D01*
X155448000Y-103005313D01*
X155384821Y-102870510D01*
X154952947Y-102476312D01*
X154537026Y-102304042D01*
X154312057Y-102421498D01*
X154546919Y-102187046D01*
X154704820Y-101806777D01*
X154705179Y-101395029D01*
X154547942Y-101014485D01*
X154257046Y-100723081D01*
X153876777Y-100565180D01*
X153465029Y-100564821D01*
X153084485Y-100722058D01*
X152793081Y-101012954D01*
X152635180Y-101393223D01*
X152634821Y-101804971D01*
X152792058Y-102185515D01*
X153082954Y-102476919D01*
X153302508Y-102568086D01*
X152971179Y-102870510D01*
X152913664Y-102993228D01*
X152697670Y-102669971D01*
X152211489Y-102345115D01*
X151638000Y-102231041D01*
X151064511Y-102345115D01*
X150578330Y-102669971D01*
X150368000Y-102984752D01*
X150157670Y-102669971D01*
X149671489Y-102345115D01*
X149157076Y-102242792D01*
X149212919Y-102187046D01*
X149370820Y-101806777D01*
X149371179Y-101395029D01*
X149213942Y-101014485D01*
X148923046Y-100723081D01*
X148542777Y-100565180D01*
X148131029Y-100564821D01*
X147750485Y-100722058D01*
X147459081Y-101012954D01*
X147301180Y-101393223D01*
X147300821Y-101804971D01*
X147458058Y-102185515D01*
X147748954Y-102476919D01*
X148105611Y-102625015D01*
X148038330Y-102669971D01*
X147828000Y-102984752D01*
X147617670Y-102669971D01*
X147131489Y-102345115D01*
X146558000Y-102231041D01*
X145984511Y-102345115D01*
X145498330Y-102669971D01*
X145288000Y-102984752D01*
X145077670Y-102669971D01*
X144591489Y-102345115D01*
X144018000Y-102231041D01*
X143789271Y-102276538D01*
X143878919Y-102187046D01*
X144036820Y-101806777D01*
X144037179Y-101395029D01*
X143879942Y-101014485D01*
X143589046Y-100723081D01*
X143208777Y-100565180D01*
X142797029Y-100564821D01*
X142416485Y-100722058D01*
X142125081Y-101012954D01*
X141967180Y-101393223D01*
X141966821Y-101804971D01*
X142124058Y-102185515D01*
X142414954Y-102476919D01*
X142795223Y-102634820D01*
X143010656Y-102635008D01*
X142958330Y-102669971D01*
X142748000Y-102984752D01*
X142537670Y-102669971D01*
X142051489Y-102345115D01*
X141478000Y-102231041D01*
X140904511Y-102345115D01*
X140418330Y-102669971D01*
X140208000Y-102984752D01*
X139997670Y-102669971D01*
X139511489Y-102345115D01*
X138938000Y-102231041D01*
X138550667Y-102308086D01*
X138671919Y-102187046D01*
X138829820Y-101806777D01*
X138830179Y-101395029D01*
X138672942Y-101014485D01*
X138382046Y-100723081D01*
X138001777Y-100565180D01*
X137590029Y-100564821D01*
X137209485Y-100722058D01*
X136918081Y-101012954D01*
X136760180Y-101393223D01*
X136759821Y-101804971D01*
X136917058Y-102185515D01*
X137207954Y-102476919D01*
X137588223Y-102634820D01*
X137930491Y-102635118D01*
X137878330Y-102669971D01*
X137668000Y-102984752D01*
X137457670Y-102669971D01*
X136971489Y-102345115D01*
X136398000Y-102231041D01*
X135824511Y-102345115D01*
X135338330Y-102669971D01*
X135329195Y-102683642D01*
X135324762Y-102660083D01*
X135185690Y-102443959D01*
X134973490Y-102298969D01*
X134721600Y-102247960D01*
X132994400Y-102247960D01*
X132759083Y-102292238D01*
X132542959Y-102431310D01*
X132397969Y-102643510D01*
X132346960Y-102895400D01*
X132346960Y-104267000D01*
X130302000Y-104267000D01*
X130010395Y-104325004D01*
X129791127Y-104471515D01*
X129763185Y-104490185D01*
X127079233Y-107174137D01*
X127145820Y-107013777D01*
X127146179Y-106602029D01*
X126988942Y-106221485D01*
X126698046Y-105930081D01*
X126317777Y-105772180D01*
X125906029Y-105771821D01*
X125525485Y-105929058D01*
X125348947Y-106105288D01*
X125174046Y-105930081D01*
X124793777Y-105772180D01*
X124382029Y-105771821D01*
X124001485Y-105929058D01*
X123710081Y-106219954D01*
X123552180Y-106600223D01*
X123551821Y-107011971D01*
X123572303Y-107061541D01*
X123239485Y-107199058D01*
X122948081Y-107489954D01*
X122790180Y-107870223D01*
X122789821Y-108281971D01*
X122855126Y-108440021D01*
X122477485Y-108596058D01*
X122186081Y-108886954D01*
X122028180Y-109267223D01*
X122027821Y-109678971D01*
X121711100Y-109678971D01*
X121711100Y-102185971D01*
X124059821Y-102185971D01*
X124217058Y-102566515D01*
X124507954Y-102857919D01*
X124888223Y-103015820D01*
X125299971Y-103016179D01*
X125680515Y-102858942D01*
X125971919Y-102568046D01*
X126025100Y-102439971D01*
X126726821Y-102439971D01*
X126884058Y-102820515D01*
X127174954Y-103111919D01*
X127555223Y-103269820D01*
X127966971Y-103270179D01*
X128347515Y-103112942D01*
X128512774Y-102947971D01*
X129266821Y-102947971D01*
X129424058Y-103328515D01*
X129714954Y-103619919D01*
X130095223Y-103777820D01*
X130506971Y-103778179D01*
X130887515Y-103620942D01*
X131178919Y-103330046D01*
X131336820Y-102949777D01*
X131337179Y-102538029D01*
X131179942Y-102157485D01*
X130889046Y-101866081D01*
X130508777Y-101708180D01*
X130097029Y-101707821D01*
X129716485Y-101865058D01*
X129425081Y-102155954D01*
X129267180Y-102536223D01*
X129266821Y-102947971D01*
X128512774Y-102947971D01*
X128638919Y-102822046D01*
X128796820Y-102441777D01*
X128797179Y-102030029D01*
X128639942Y-101649485D01*
X128349046Y-101358081D01*
X127968777Y-101200180D01*
X127557029Y-101199821D01*
X127176485Y-101357058D01*
X126885081Y-101647954D01*
X126727180Y-102028223D01*
X126726821Y-102439971D01*
X126025100Y-102439971D01*
X126129820Y-102187777D01*
X126130179Y-101776029D01*
X125972942Y-101395485D01*
X125682046Y-101104081D01*
X125301777Y-100946180D01*
X124890029Y-100945821D01*
X124509485Y-101103058D01*
X124218081Y-101393954D01*
X124060180Y-101774223D01*
X124059821Y-102185971D01*
X121711100Y-102185971D01*
X121711100Y-100026971D01*
X123678821Y-100026971D01*
X123836058Y-100407515D01*
X124126954Y-100698919D01*
X124507223Y-100856820D01*
X124918971Y-100857179D01*
X125299515Y-100699942D01*
X125590919Y-100409046D01*
X125696835Y-100153971D01*
X130155821Y-100153971D01*
X130313058Y-100534515D01*
X130603954Y-100825919D01*
X130984223Y-100983820D01*
X131395971Y-100984179D01*
X131776515Y-100826942D01*
X132067919Y-100536046D01*
X132225820Y-100155777D01*
X132226179Y-99744029D01*
X132068942Y-99363485D01*
X131778046Y-99072081D01*
X131630877Y-99010971D01*
X145522821Y-99010971D01*
X145680058Y-99391515D01*
X145970954Y-99682919D01*
X146351223Y-99840820D01*
X146762971Y-99841179D01*
X147143515Y-99683942D01*
X147434919Y-99393046D01*
X147540835Y-99137971D01*
X150475821Y-99137971D01*
X150633058Y-99518515D01*
X150923954Y-99809919D01*
X151304223Y-99967820D01*
X151715971Y-99968179D01*
X152096515Y-99810942D01*
X152387919Y-99520046D01*
X152545820Y-99139777D01*
X152546179Y-98728029D01*
X152400713Y-98375971D01*
X156698821Y-98375971D01*
X156856058Y-98756515D01*
X157146954Y-99047919D01*
X157527223Y-99205820D01*
X157938971Y-99206179D01*
X158319515Y-99048942D01*
X158610919Y-98758046D01*
X158768820Y-98377777D01*
X158769179Y-97966029D01*
X158623713Y-97613971D01*
X161905821Y-97613971D01*
X162063058Y-97994515D01*
X162353954Y-98285919D01*
X162734223Y-98443820D01*
X163145971Y-98444179D01*
X163526515Y-98286942D01*
X163817919Y-97996046D01*
X163975820Y-97615777D01*
X163976179Y-97204029D01*
X163818942Y-96823485D01*
X163528046Y-96532081D01*
X163147777Y-96374180D01*
X162736029Y-96373821D01*
X162355485Y-96531058D01*
X162064081Y-96821954D01*
X161906180Y-97202223D01*
X161905821Y-97613971D01*
X158623713Y-97613971D01*
X158611942Y-97585485D01*
X158321046Y-97294081D01*
X157940777Y-97136180D01*
X157529029Y-97135821D01*
X157148485Y-97293058D01*
X156857081Y-97583954D01*
X156699180Y-97964223D01*
X156698821Y-98375971D01*
X152400713Y-98375971D01*
X152388942Y-98347485D01*
X152098046Y-98056081D01*
X151717777Y-97898180D01*
X151306029Y-97897821D01*
X150925485Y-98055058D01*
X150634081Y-98345954D01*
X150476180Y-98726223D01*
X150475821Y-99137971D01*
X147540835Y-99137971D01*
X147592820Y-99012777D01*
X147593179Y-98601029D01*
X147435942Y-98220485D01*
X147145046Y-97929081D01*
X146764777Y-97771180D01*
X146353029Y-97770821D01*
X145972485Y-97928058D01*
X145681081Y-98218954D01*
X145523180Y-98599223D01*
X145522821Y-99010971D01*
X131630877Y-99010971D01*
X131397777Y-98914180D01*
X130986029Y-98913821D01*
X130605485Y-99071058D01*
X130314081Y-99361954D01*
X130156180Y-99742223D01*
X130155821Y-100153971D01*
X125696835Y-100153971D01*
X125748820Y-100028777D01*
X125748984Y-99840906D01*
X126061971Y-99841179D01*
X126442515Y-99683942D01*
X126733919Y-99393046D01*
X126891820Y-99012777D01*
X126892179Y-98601029D01*
X126734942Y-98220485D01*
X126444046Y-97929081D01*
X126063777Y-97771180D01*
X125652029Y-97770821D01*
X125271485Y-97928058D01*
X124980081Y-98218954D01*
X124822180Y-98599223D01*
X124822016Y-98787094D01*
X124509029Y-98786821D01*
X124128485Y-98944058D01*
X123837081Y-99234954D01*
X123679180Y-99615223D01*
X123678821Y-100026971D01*
X121711100Y-100026971D01*
X121711100Y-97573531D01*
X122431110Y-93953795D01*
X124441914Y-90944413D01*
X127451293Y-88933611D01*
X131071031Y-88213600D01*
X165931169Y-88213600D01*
X169550905Y-88933610D01*
M02*
