G04 #@! TF.FileFunction,Copper,L1,Top,Signal*
%FSLAX46Y46*%
G04 Gerber Fmt 4.6, Leading zero omitted, Abs format (unit mm)*
G04 Created by KiCad (PCBNEW 4.0.2+dfsg1-stable) date Thu 26 Jul 2018 23:23:47 BST*
%MOMM*%
G01*
G04 APERTURE LIST*
%ADD10C,0.100000*%
%ADD11C,1.524000*%
%ADD12R,1.524000X1.524000*%
%ADD13R,0.750000X1.200000*%
%ADD14R,0.900000X1.200000*%
%ADD15R,1.727200X1.727200*%
%ADD16O,1.727200X1.727200*%
%ADD17R,0.355600X1.676400*%
%ADD18C,0.800000*%
%ADD19C,0.254000*%
G04 APERTURE END LIST*
D10*
D11*
X170091100Y-116433600D03*
X170091100Y-118973600D03*
X167551100Y-116433600D03*
X167551100Y-118973600D03*
X165011100Y-116433600D03*
X165011100Y-118973600D03*
X162471100Y-116433600D03*
X162471100Y-118973600D03*
X159931100Y-116433600D03*
X159931100Y-118973600D03*
X157391100Y-116433600D03*
X157391100Y-118973600D03*
X154851100Y-116433600D03*
X154851100Y-118973600D03*
X152311100Y-116433600D03*
X152311100Y-118973600D03*
X149771100Y-116433600D03*
X149771100Y-118973600D03*
X147231100Y-116433600D03*
X147231100Y-118973600D03*
X144691100Y-116433600D03*
X144691100Y-118973600D03*
X142151100Y-116433600D03*
X142151100Y-118973600D03*
X139611100Y-116433600D03*
X139611100Y-118973600D03*
X137071100Y-116433600D03*
X137071100Y-118973600D03*
X134531100Y-116433600D03*
X134531100Y-118973600D03*
X131991100Y-116433600D03*
X131991100Y-118973600D03*
X129451100Y-116433600D03*
X129451100Y-118973600D03*
X126911100Y-116433600D03*
D12*
X126911100Y-118973600D03*
D11*
X170091100Y-91033600D03*
X170091100Y-93573600D03*
X167551100Y-91033600D03*
X167551100Y-93573600D03*
X165011100Y-91033600D03*
X165011100Y-93573600D03*
X162471100Y-91033600D03*
X162471100Y-93573600D03*
X159931100Y-91033600D03*
X159931100Y-93573600D03*
X157391100Y-91033600D03*
X157391100Y-93573600D03*
X154851100Y-91033600D03*
X154851100Y-93573600D03*
X152311100Y-91033600D03*
X152311100Y-93573600D03*
X149771100Y-91033600D03*
X149771100Y-93573600D03*
X147231100Y-91033600D03*
X147231100Y-93573600D03*
X144691100Y-91033600D03*
X144691100Y-93573600D03*
X142151100Y-91033600D03*
X142151100Y-93573600D03*
X139611100Y-91033600D03*
X139611100Y-93573600D03*
X137071100Y-91033600D03*
X137071100Y-93573600D03*
X134531100Y-91033600D03*
X134531100Y-93573600D03*
X131991100Y-91033600D03*
X131991100Y-93573600D03*
X129451100Y-91033600D03*
X129451100Y-93573600D03*
X126911100Y-91033600D03*
D12*
X126911100Y-93573600D03*
D13*
X123190000Y-112715000D03*
X123190000Y-114615000D03*
X123444000Y-103439000D03*
X123444000Y-101539000D03*
X168402000Y-112715000D03*
X168402000Y-114615000D03*
X168783000Y-103439000D03*
X168783000Y-101539000D03*
D14*
X127127000Y-100287000D03*
X127127000Y-98087000D03*
X132461000Y-100287000D03*
X132461000Y-98087000D03*
X137795000Y-100287000D03*
X137795000Y-98087000D03*
X143002000Y-100287000D03*
X143002000Y-98087000D03*
X148336000Y-100287000D03*
X148336000Y-98087000D03*
X153670000Y-100287000D03*
X153670000Y-98087000D03*
X159004000Y-100287000D03*
X159004000Y-98087000D03*
X164211000Y-100287000D03*
X164211000Y-98087000D03*
X172720000Y-100287000D03*
X172720000Y-98087000D03*
X163830000Y-111971000D03*
X163830000Y-109771000D03*
X158623000Y-111971000D03*
X158623000Y-109771000D03*
X153416000Y-111971000D03*
X153416000Y-109771000D03*
X148209000Y-111971000D03*
X148209000Y-109771000D03*
X143002000Y-111971000D03*
X143002000Y-109771000D03*
X137795000Y-111971000D03*
X137795000Y-109771000D03*
X132588000Y-111971000D03*
X132588000Y-109771000D03*
X128778000Y-100287000D03*
X128778000Y-98087000D03*
X134112000Y-100287000D03*
X134112000Y-98087000D03*
X139446000Y-100287000D03*
X139446000Y-98087000D03*
X144653000Y-100287000D03*
X144653000Y-98087000D03*
X149987000Y-100287000D03*
X149987000Y-98087000D03*
X155321000Y-100287000D03*
X155321000Y-98087000D03*
X160655000Y-100287000D03*
X160655000Y-98087000D03*
X165862000Y-100287000D03*
X165862000Y-98087000D03*
X171069000Y-100287000D03*
X171069000Y-98087000D03*
X165481000Y-109771000D03*
X165481000Y-111971000D03*
X160274000Y-109771000D03*
X160274000Y-111971000D03*
X155067000Y-109771000D03*
X155067000Y-111971000D03*
X149860000Y-109771000D03*
X149860000Y-111971000D03*
X144653000Y-109771000D03*
X144653000Y-111971000D03*
X139446000Y-109771000D03*
X139446000Y-111971000D03*
X134239000Y-109771000D03*
X134239000Y-111971000D03*
D15*
X133858000Y-103759000D03*
D16*
X133858000Y-106299000D03*
X136398000Y-103759000D03*
X136398000Y-106299000D03*
X138938000Y-103759000D03*
X138938000Y-106299000D03*
X141478000Y-103759000D03*
X141478000Y-106299000D03*
X144018000Y-103759000D03*
X144018000Y-106299000D03*
X146558000Y-103759000D03*
X146558000Y-106299000D03*
X149098000Y-103759000D03*
X149098000Y-106299000D03*
X151638000Y-103759000D03*
X151638000Y-106299000D03*
X154178000Y-103759000D03*
X154178000Y-106299000D03*
X156718000Y-103759000D03*
X156718000Y-106299000D03*
X159258000Y-103759000D03*
X159258000Y-106299000D03*
X161798000Y-103759000D03*
X161798000Y-106299000D03*
X164338000Y-103759000D03*
X164338000Y-106299000D03*
D14*
X129921000Y-111168000D03*
X129921000Y-113368000D03*
X128778000Y-95928000D03*
X128778000Y-98128000D03*
X134112000Y-95928000D03*
X134112000Y-98128000D03*
X139446000Y-95928000D03*
X139446000Y-98128000D03*
X144653000Y-95928000D03*
X144653000Y-98128000D03*
X149987000Y-95928000D03*
X149987000Y-98128000D03*
X155321000Y-95928000D03*
X155321000Y-98128000D03*
X160655000Y-95928000D03*
X160655000Y-98128000D03*
X165862000Y-95928000D03*
X165862000Y-98128000D03*
X171069000Y-95928000D03*
X171069000Y-98128000D03*
X165481000Y-114130000D03*
X165481000Y-111930000D03*
X160274000Y-114130000D03*
X160274000Y-111930000D03*
X155067000Y-114130000D03*
X155067000Y-111930000D03*
X149860000Y-114130000D03*
X149860000Y-111930000D03*
X144653000Y-114130000D03*
X144653000Y-111930000D03*
X139446000Y-114130000D03*
X139446000Y-111930000D03*
X134239000Y-114130000D03*
X134239000Y-111930000D03*
D17*
X122932000Y-110896400D03*
X123582001Y-110896400D03*
X124231999Y-110896400D03*
X124882001Y-110896400D03*
X125531999Y-110896400D03*
X126181998Y-110896400D03*
X126831999Y-110896400D03*
X127481998Y-110896400D03*
X128131999Y-110896400D03*
X128781998Y-110896400D03*
X128782000Y-105257600D03*
X128132002Y-105257600D03*
X127482001Y-105257600D03*
X126832002Y-105257600D03*
X126182001Y-105257600D03*
X125532002Y-105257600D03*
X124882001Y-105257600D03*
X124232002Y-105257600D03*
X123582001Y-105257600D03*
X122932002Y-105257600D03*
X167890000Y-110896400D03*
X168540001Y-110896400D03*
X169189999Y-110896400D03*
X169840001Y-110896400D03*
X170489999Y-110896400D03*
X171139998Y-110896400D03*
X171789999Y-110896400D03*
X172439998Y-110896400D03*
X173089999Y-110896400D03*
X173739998Y-110896400D03*
X173740000Y-105257600D03*
X173090002Y-105257600D03*
X172440001Y-105257600D03*
X171790002Y-105257600D03*
X171140001Y-105257600D03*
X170490002Y-105257600D03*
X169840001Y-105257600D03*
X169190002Y-105257600D03*
X168540001Y-105257600D03*
X167890002Y-105257600D03*
D18*
X167259000Y-114808000D03*
X131191000Y-113411000D03*
X129032000Y-101600000D03*
X166751000Y-109728000D03*
X173863000Y-103886000D03*
X170053000Y-101600000D03*
X145923000Y-109728000D03*
X140716000Y-109728000D03*
X160655000Y-101600000D03*
X151130000Y-109728000D03*
X156337000Y-109728000D03*
X161544000Y-109728000D03*
X135382000Y-100330000D03*
X123444000Y-100203000D03*
X165862000Y-101600000D03*
X155321000Y-101600000D03*
X149987000Y-101600000D03*
X144653000Y-101600000D03*
X139446000Y-101600000D03*
X123190000Y-115951000D03*
X134239000Y-108458000D03*
X167259000Y-112395000D03*
X124587000Y-106807000D03*
X168275000Y-106680000D03*
X170561000Y-102616000D03*
X172339000Y-95885000D03*
X130048000Y-95885000D03*
X164592000Y-95885000D03*
X159385000Y-95885000D03*
X154051000Y-95885000D03*
X148717000Y-95885000D03*
X143383000Y-95885000D03*
X138176000Y-95885000D03*
X132842000Y-95885000D03*
X132969000Y-114173000D03*
X138176000Y-114173000D03*
X143383000Y-114173000D03*
X148590000Y-114173000D03*
X153797000Y-114173000D03*
X159004000Y-114173000D03*
X164211000Y-114173000D03*
X124333000Y-112395000D03*
X173863000Y-112268000D03*
X131191000Y-110998000D03*
X172212000Y-113665000D03*
X170434000Y-108839000D03*
X169545000Y-109474000D03*
X173863000Y-109474000D03*
X148590000Y-89535000D03*
X131445000Y-96774000D03*
X123063000Y-109474000D03*
X169545000Y-113665000D03*
X167259000Y-113665000D03*
X128651000Y-112522000D03*
X131572000Y-120523000D03*
X169545000Y-112395000D03*
X126619000Y-108966000D03*
X171069000Y-113665000D03*
X162433000Y-112395000D03*
X128270000Y-108331000D03*
X127762000Y-102235000D03*
X131191000Y-99949000D03*
X137795000Y-101600000D03*
X125857000Y-98806000D03*
X167640000Y-103886000D03*
X143002000Y-101600000D03*
X169418000Y-106680000D03*
X148336000Y-101600000D03*
X146558000Y-98806000D03*
X153670000Y-101600000D03*
X169926000Y-103886000D03*
X151511000Y-98933000D03*
X159004000Y-101600000D03*
X171958000Y-107315000D03*
X157734000Y-98171000D03*
X172212000Y-101727000D03*
X162941000Y-97409000D03*
X164211000Y-101600000D03*
X163068000Y-105029000D03*
X158623000Y-108077000D03*
X153416000Y-108458000D03*
X123825000Y-108077000D03*
X148209000Y-108458000D03*
X126111000Y-106807000D03*
X125095000Y-101981000D03*
X143002000Y-108458000D03*
X124714000Y-99822000D03*
X130302000Y-102743000D03*
D19*
X168402000Y-114615000D02*
X167452000Y-114615000D01*
X167452000Y-114615000D02*
X167259000Y-114808000D01*
X129921000Y-113368000D02*
X131148000Y-113368000D01*
X131148000Y-113368000D02*
X131191000Y-113411000D01*
X128782000Y-101600000D02*
X129032000Y-101600000D01*
X128782000Y-105257600D02*
X128782000Y-101600000D01*
X128782000Y-101600000D02*
X128782000Y-101604000D01*
X128782000Y-101604000D02*
X128778000Y-101600000D01*
X165481000Y-109771000D02*
X166708000Y-109771000D01*
X166708000Y-109771000D02*
X166751000Y-109728000D01*
X173740000Y-105257600D02*
X173740000Y-104009000D01*
X173740000Y-104009000D02*
X173863000Y-103886000D01*
X168783000Y-101539000D02*
X169992000Y-101539000D01*
X169992000Y-101539000D02*
X170053000Y-101600000D01*
X171069000Y-100287000D02*
X171069000Y-100584000D01*
X171069000Y-100584000D02*
X170053000Y-101600000D01*
X144653000Y-109771000D02*
X145880000Y-109771000D01*
X145880000Y-109771000D02*
X145923000Y-109728000D01*
X139446000Y-109771000D02*
X140673000Y-109771000D01*
X140673000Y-109771000D02*
X140716000Y-109728000D01*
X160655000Y-100287000D02*
X160655000Y-101600000D01*
X149860000Y-109771000D02*
X151087000Y-109771000D01*
X151087000Y-109771000D02*
X151130000Y-109728000D01*
X155067000Y-109771000D02*
X156294000Y-109771000D01*
X156294000Y-109771000D02*
X156337000Y-109728000D01*
X160274000Y-109771000D02*
X161501000Y-109771000D01*
X161501000Y-109771000D02*
X161544000Y-109728000D01*
X134112000Y-100287000D02*
X135339000Y-100287000D01*
X135339000Y-100287000D02*
X135382000Y-100330000D01*
X123444000Y-101539000D02*
X123444000Y-100203000D01*
X165862000Y-100287000D02*
X165862000Y-101600000D01*
X155321000Y-100287000D02*
X155321000Y-101600000D01*
X149987000Y-100287000D02*
X149987000Y-101600000D01*
X128778000Y-100287000D02*
X128778000Y-101600000D01*
X144653000Y-100287000D02*
X144653000Y-101600000D01*
X139446000Y-100287000D02*
X139446000Y-101600000D01*
X123190000Y-114615000D02*
X123190000Y-115951000D01*
X134239000Y-109771000D02*
X134239000Y-108458000D01*
X168402000Y-112715000D02*
X167579000Y-112715000D01*
X167579000Y-112715000D02*
X167259000Y-112395000D01*
X123190000Y-112715000D02*
X123190000Y-112776000D01*
X123190000Y-112776000D02*
X124460000Y-114046000D01*
X140855700Y-117729000D02*
X142151100Y-116433600D01*
X125603000Y-117729000D02*
X140855700Y-117729000D01*
X124460000Y-116586000D02*
X125603000Y-117729000D01*
X124460000Y-114046000D02*
X124460000Y-116586000D01*
X168402000Y-112715000D02*
X168402000Y-111034401D01*
X168402000Y-111034401D02*
X168540001Y-110896400D01*
X123582001Y-110896400D02*
X123582001Y-112322999D01*
X123582001Y-112322999D02*
X123190000Y-112715000D01*
X123582001Y-105257600D02*
X123582001Y-106310001D01*
X124079000Y-106807000D02*
X124587000Y-106807000D01*
X123582001Y-106310001D02*
X124079000Y-106807000D01*
X168275000Y-106680000D02*
X168275000Y-106553000D01*
X168413001Y-106541999D02*
X168275000Y-106680000D01*
X168540001Y-106287999D02*
X168540001Y-105257600D01*
X168275000Y-106553000D02*
X168540001Y-106287999D01*
X168783000Y-103439000D02*
X168783000Y-103378000D01*
X168783000Y-103378000D02*
X169545000Y-102616000D01*
X169545000Y-102616000D02*
X170561000Y-102616000D01*
X171069000Y-95928000D02*
X172296000Y-95928000D01*
X172296000Y-95928000D02*
X172339000Y-95885000D01*
X128778000Y-95928000D02*
X130005000Y-95928000D01*
X130005000Y-95928000D02*
X130048000Y-95885000D01*
X168540001Y-105257600D02*
X168540001Y-103681999D01*
X168540001Y-103681999D02*
X168783000Y-103439000D01*
X165862000Y-95928000D02*
X164635000Y-95928000D01*
X164635000Y-95928000D02*
X164592000Y-95885000D01*
X160655000Y-95928000D02*
X159428000Y-95928000D01*
X159428000Y-95928000D02*
X159385000Y-95885000D01*
X155321000Y-95928000D02*
X154094000Y-95928000D01*
X154094000Y-95928000D02*
X154051000Y-95885000D01*
X149987000Y-95928000D02*
X148760000Y-95928000D01*
X148760000Y-95928000D02*
X148717000Y-95885000D01*
X144653000Y-95928000D02*
X143426000Y-95928000D01*
X143426000Y-95928000D02*
X143383000Y-95885000D01*
X139446000Y-95928000D02*
X138219000Y-95928000D01*
X138219000Y-95928000D02*
X138176000Y-95885000D01*
X134112000Y-95928000D02*
X132885000Y-95928000D01*
X132885000Y-95928000D02*
X132842000Y-95885000D01*
X134239000Y-114130000D02*
X133012000Y-114130000D01*
X133012000Y-114130000D02*
X132969000Y-114173000D01*
X139446000Y-114130000D02*
X138219000Y-114130000D01*
X138219000Y-114130000D02*
X138176000Y-114173000D01*
X144653000Y-114130000D02*
X143426000Y-114130000D01*
X143426000Y-114130000D02*
X143383000Y-114173000D01*
X149860000Y-114130000D02*
X148633000Y-114130000D01*
X148633000Y-114130000D02*
X148590000Y-114173000D01*
X155067000Y-114130000D02*
X153840000Y-114130000D01*
X153840000Y-114130000D02*
X153797000Y-114173000D01*
X160274000Y-114130000D02*
X159047000Y-114130000D01*
X159047000Y-114130000D02*
X159004000Y-114173000D01*
X165481000Y-114130000D02*
X164254000Y-114130000D01*
X164254000Y-114130000D02*
X164211000Y-114173000D01*
X169048001Y-103704001D02*
X168783000Y-103439000D01*
X123582001Y-105257600D02*
X123582001Y-103577001D01*
X123582001Y-103577001D02*
X123444000Y-103439000D01*
X124231999Y-112293999D02*
X124231999Y-110896400D01*
X124333000Y-112395000D02*
X124231999Y-112293999D01*
X147231100Y-91033600D02*
X147231100Y-90970100D01*
X133477000Y-92329000D02*
X124841000Y-92329000D01*
X124841000Y-92329000D02*
X123698000Y-93472000D01*
X123698000Y-93472000D02*
X123698000Y-96901000D01*
X123698000Y-96901000D02*
X122174000Y-98425000D01*
X122174000Y-98425000D02*
X122174000Y-110617000D01*
X122174000Y-110617000D02*
X122453400Y-110896400D01*
X122453400Y-110896400D02*
X122932000Y-110896400D01*
X154851100Y-91033600D02*
X154838400Y-91033600D01*
X154838400Y-91033600D02*
X153543000Y-92329000D01*
X153543000Y-92329000D02*
X133477000Y-92329000D01*
X133477000Y-92329000D02*
X133350000Y-92329000D01*
X173739998Y-112144998D02*
X173863000Y-112268000D01*
X173739998Y-110896400D02*
X173739998Y-112144998D01*
X131021000Y-111168000D02*
X129921000Y-111168000D01*
X131191000Y-110998000D02*
X131021000Y-111168000D01*
X157391100Y-91033600D02*
X157391100Y-91020900D01*
X157391100Y-91020900D02*
X158877000Y-89535000D01*
X158877000Y-89535000D02*
X168148000Y-89535000D01*
X168148000Y-89535000D02*
X168783000Y-90170000D01*
X168783000Y-90170000D02*
X168783000Y-91567000D01*
X168783000Y-91567000D02*
X169545000Y-92329000D01*
X169545000Y-92329000D02*
X170688000Y-92329000D01*
X170688000Y-92329000D02*
X173990000Y-95631000D01*
X173990000Y-95631000D02*
X173990000Y-98044000D01*
X173990000Y-98044000D02*
X174752000Y-98806000D01*
X174752000Y-98806000D02*
X174752000Y-110490000D01*
X174752000Y-110490000D02*
X174345600Y-110896400D01*
X174345600Y-110896400D02*
X173739998Y-110896400D01*
X129921000Y-111168000D02*
X129053598Y-111168000D01*
X129053598Y-111168000D02*
X128781998Y-110896400D01*
X172439998Y-110896400D02*
X172439998Y-113437002D01*
X172439998Y-113437002D02*
X172212000Y-113665000D01*
X170489999Y-108894999D02*
X170434000Y-108839000D01*
X170489999Y-110896400D02*
X170489999Y-108894999D01*
X169840001Y-109769001D02*
X169545000Y-109474000D01*
X169840001Y-110896400D02*
X169840001Y-109769001D01*
X171789999Y-109642001D02*
X171958000Y-109474000D01*
X171958000Y-109474000D02*
X173863000Y-109474000D01*
X171789999Y-110896400D02*
X171789999Y-109642001D01*
X124882001Y-109769001D02*
X124882001Y-110896400D01*
X124587000Y-109474000D02*
X123063000Y-109474000D01*
X124882001Y-109769001D02*
X124587000Y-109474000D01*
X167259000Y-113665000D02*
X167132000Y-113665000D01*
X167132000Y-113665000D02*
X166497000Y-113030000D01*
X166497000Y-113030000D02*
X166497000Y-111760000D01*
X166497000Y-111760000D02*
X167360600Y-110896400D01*
X167360600Y-110896400D02*
X167890000Y-110896400D01*
X170091100Y-116433600D02*
X170091100Y-114211100D01*
X170091100Y-114211100D02*
X169545000Y-113665000D01*
X167868600Y-110896400D02*
X167890000Y-110896400D01*
X128131999Y-110896400D02*
X128131999Y-112002999D01*
X128131999Y-112002999D02*
X128651000Y-112522000D01*
X168529000Y-120523000D02*
X170078400Y-118973600D01*
X168529000Y-120523000D02*
X131572000Y-120523000D01*
X170091100Y-118973600D02*
X170078400Y-118973600D01*
X169189999Y-110896400D02*
X169189999Y-112039999D01*
X169189999Y-112039999D02*
X169545000Y-112395000D01*
X126831999Y-109178999D02*
X126619000Y-108966000D01*
X126831999Y-110896400D02*
X126831999Y-109178999D01*
X171139998Y-110896400D02*
X171139998Y-113594002D01*
X171139998Y-113594002D02*
X171069000Y-113665000D01*
X127481998Y-110896400D02*
X127481998Y-109119002D01*
X162471100Y-112433100D02*
X162471100Y-116433600D01*
X162433000Y-112395000D02*
X162471100Y-112433100D01*
X127481998Y-109119002D02*
X128270000Y-108331000D01*
X173089999Y-110896400D02*
X173089999Y-116089001D01*
X163715700Y-117729000D02*
X162471100Y-118973600D01*
X171450000Y-117729000D02*
X163715700Y-117729000D01*
X173089999Y-116089001D02*
X171450000Y-117729000D01*
X126181998Y-110896400D02*
X126181998Y-113164498D01*
X126181998Y-113164498D02*
X129451100Y-116433600D01*
X125531999Y-110896400D02*
X125531999Y-115054499D01*
X125531999Y-115054499D02*
X126911100Y-116433600D01*
X126832002Y-100581998D02*
X127127000Y-100287000D01*
X126832002Y-105257600D02*
X126832002Y-100581998D01*
X136398000Y-103759000D02*
X134620000Y-101981000D01*
X130048000Y-99357000D02*
X128778000Y-98087000D01*
X130048000Y-101219000D02*
X130048000Y-99357000D01*
X130810000Y-101981000D02*
X130048000Y-101219000D01*
X134620000Y-101981000D02*
X130810000Y-101981000D01*
X127127000Y-98087000D02*
X128778000Y-98087000D01*
X127482001Y-105257600D02*
X127482001Y-102514999D01*
X127482001Y-102514999D02*
X127762000Y-102235000D01*
X131191000Y-99949000D02*
X131826000Y-99949000D01*
X131826000Y-99949000D02*
X132164000Y-100287000D01*
X132164000Y-100287000D02*
X132461000Y-100287000D01*
X138938000Y-103759000D02*
X137668000Y-102489000D01*
X134790000Y-98087000D02*
X134112000Y-98087000D01*
X136271000Y-99568000D02*
X134790000Y-98087000D01*
X136271000Y-101727000D02*
X136271000Y-99568000D01*
X137033000Y-102489000D02*
X136271000Y-101727000D01*
X137668000Y-102489000D02*
X137033000Y-102489000D01*
X132461000Y-98087000D02*
X134112000Y-98087000D01*
X137795000Y-100287000D02*
X137795000Y-101600000D01*
X126182001Y-101544001D02*
X125857000Y-101219000D01*
X125857000Y-101219000D02*
X125857000Y-98806000D01*
X126182001Y-101544001D02*
X126182001Y-105257600D01*
X141478000Y-103759000D02*
X141478000Y-103378000D01*
X141478000Y-103378000D02*
X140716000Y-102616000D01*
X140716000Y-99357000D02*
X139446000Y-98087000D01*
X140716000Y-102616000D02*
X140716000Y-99357000D01*
X137795000Y-98087000D02*
X139446000Y-98087000D01*
X167890002Y-104136002D02*
X167640000Y-103886000D01*
X167890002Y-105257600D02*
X167890002Y-104136002D01*
X143002000Y-101600000D02*
X143002000Y-100287000D01*
X144018000Y-103759000D02*
X144145000Y-103759000D01*
X144145000Y-103759000D02*
X145923000Y-101981000D01*
X145923000Y-99357000D02*
X144653000Y-98087000D01*
X145923000Y-101981000D02*
X145923000Y-99357000D01*
X144018000Y-103759000D02*
X144018000Y-103378000D01*
X143002000Y-98087000D02*
X144653000Y-98087000D01*
X169190002Y-106452002D02*
X169418000Y-106680000D01*
X169190002Y-105257600D02*
X169190002Y-106452002D01*
X148336000Y-101600000D02*
X148336000Y-100287000D01*
X146558000Y-103759000D02*
X146558000Y-102616000D01*
X147066000Y-99314000D02*
X148293000Y-98087000D01*
X147066000Y-102108000D02*
X147066000Y-99314000D01*
X146558000Y-102616000D02*
X147066000Y-102108000D01*
X148293000Y-98087000D02*
X148336000Y-98087000D01*
X148336000Y-98087000D02*
X149987000Y-98087000D01*
X153670000Y-100287000D02*
X153670000Y-101600000D01*
X169840001Y-103971999D02*
X169926000Y-103886000D01*
X169840001Y-103971999D02*
X169840001Y-105257600D01*
X151638000Y-103759000D02*
X151638000Y-102616000D01*
X152400000Y-99357000D02*
X153670000Y-98087000D01*
X152400000Y-101854000D02*
X152400000Y-99357000D01*
X151638000Y-102616000D02*
X152400000Y-101854000D01*
X153670000Y-98087000D02*
X155321000Y-98087000D01*
X159004000Y-100287000D02*
X159004000Y-101600000D01*
X171790002Y-107147002D02*
X171958000Y-107315000D01*
X171790002Y-107147002D02*
X171790002Y-105257600D01*
X159258000Y-103759000D02*
X159258000Y-103124000D01*
X159258000Y-103124000D02*
X157734000Y-101600000D01*
X157734000Y-101600000D02*
X157734000Y-99357000D01*
X157734000Y-99357000D02*
X159004000Y-98087000D01*
X159004000Y-98087000D02*
X160655000Y-98087000D01*
X172440001Y-101955001D02*
X172212000Y-101727000D01*
X172440001Y-105257600D02*
X172440001Y-101955001D01*
X164211000Y-101600000D02*
X164211000Y-100287000D01*
X161798000Y-103759000D02*
X161798000Y-103505000D01*
X161798000Y-103505000D02*
X162941000Y-102362000D01*
X162941000Y-102362000D02*
X162941000Y-99357000D01*
X162941000Y-99357000D02*
X164211000Y-98087000D01*
X164211000Y-98087000D02*
X165862000Y-98087000D01*
X173090002Y-105257600D02*
X173090002Y-100657002D01*
X173090002Y-100657002D02*
X172720000Y-100287000D01*
X172720000Y-98087000D02*
X171069000Y-98087000D01*
X164338000Y-103759000D02*
X165862000Y-103759000D01*
X165862000Y-103759000D02*
X167640000Y-101981000D01*
X167640000Y-101981000D02*
X167640000Y-99949000D01*
X167640000Y-99949000D02*
X169502000Y-98087000D01*
X169502000Y-98087000D02*
X171069000Y-98087000D01*
X163830000Y-111971000D02*
X163787000Y-111971000D01*
X163787000Y-111971000D02*
X162560000Y-110744000D01*
X162560000Y-110744000D02*
X162560000Y-108585000D01*
X162560000Y-108585000D02*
X162052000Y-108077000D01*
X162052000Y-108077000D02*
X161163000Y-108077000D01*
X161163000Y-108077000D02*
X160528000Y-107442000D01*
X160528000Y-107442000D02*
X160528000Y-105537000D01*
X160528000Y-105537000D02*
X160020000Y-105029000D01*
X160020000Y-105029000D02*
X157988000Y-105029000D01*
X157988000Y-105029000D02*
X156718000Y-106299000D01*
X163830000Y-111971000D02*
X163787000Y-111971000D01*
X163830000Y-111971000D02*
X165481000Y-111971000D01*
X163830000Y-109771000D02*
X163830000Y-108585000D01*
X163830000Y-108585000D02*
X164338000Y-108077000D01*
X164338000Y-108077000D02*
X170688000Y-108077000D01*
X170688000Y-108077000D02*
X171140001Y-107624999D01*
X171140001Y-107624999D02*
X171140001Y-105257600D01*
X157353000Y-110701000D02*
X158623000Y-111971000D01*
X157353000Y-108585000D02*
X157353000Y-110701000D01*
X156845000Y-108077000D02*
X157353000Y-108585000D01*
X155829000Y-108077000D02*
X156845000Y-108077000D01*
X154178000Y-106426000D02*
X155829000Y-108077000D01*
X154178000Y-106299000D02*
X154178000Y-106426000D01*
X154178000Y-106299000D02*
X154432000Y-106299000D01*
X158623000Y-111971000D02*
X160274000Y-111971000D01*
X170490002Y-105257600D02*
X170490002Y-107131998D01*
X170490002Y-107131998D02*
X170053000Y-107569000D01*
X170053000Y-107569000D02*
X166624000Y-107569000D01*
X166624000Y-107569000D02*
X166116000Y-107061000D01*
X166116000Y-107061000D02*
X166116000Y-105537000D01*
X166116000Y-105537000D02*
X165608000Y-105029000D01*
X165608000Y-105029000D02*
X163068000Y-105029000D01*
X158623000Y-108077000D02*
X158623000Y-109771000D01*
X153416000Y-111971000D02*
X153416000Y-111887000D01*
X153416000Y-111887000D02*
X152146000Y-110617000D01*
X152146000Y-110617000D02*
X152146000Y-108585000D01*
X152146000Y-108585000D02*
X151638000Y-108077000D01*
X151638000Y-108077000D02*
X149479000Y-108077000D01*
X149479000Y-108077000D02*
X148971000Y-107569000D01*
X148971000Y-107569000D02*
X148336000Y-107569000D01*
X148336000Y-107569000D02*
X147828000Y-107061000D01*
X147828000Y-107061000D02*
X147828000Y-105410000D01*
X147828000Y-105410000D02*
X147447000Y-105029000D01*
X147447000Y-105029000D02*
X145288000Y-105029000D01*
X145288000Y-105029000D02*
X144018000Y-106299000D01*
X145288000Y-105029000D02*
X144018000Y-106299000D01*
X147447000Y-105029000D02*
X145288000Y-105029000D01*
X147828000Y-105410000D02*
X147447000Y-105029000D01*
X152146000Y-110617000D02*
X152146000Y-108585000D01*
X153416000Y-111887000D02*
X152146000Y-110617000D01*
X155067000Y-111971000D02*
X153416000Y-111971000D01*
X122932002Y-105257600D02*
X122932002Y-107184002D01*
X153416000Y-108458000D02*
X153416000Y-109771000D01*
X122932002Y-107184002D02*
X123825000Y-108077000D01*
X141478000Y-106299000D02*
X141732000Y-106299000D01*
X141732000Y-106299000D02*
X143002000Y-107569000D01*
X143002000Y-107569000D02*
X143764000Y-107569000D01*
X143764000Y-107569000D02*
X144272000Y-108077000D01*
X144272000Y-108077000D02*
X146177000Y-108077000D01*
X146177000Y-108077000D02*
X146812000Y-108712000D01*
X146812000Y-108712000D02*
X146812000Y-110574000D01*
X146812000Y-110574000D02*
X148209000Y-111971000D01*
X148209000Y-111971000D02*
X148209000Y-111887000D01*
X148209000Y-111971000D02*
X149860000Y-111971000D01*
X148209000Y-109771000D02*
X148209000Y-108458000D01*
X125532002Y-106228002D02*
X126111000Y-106807000D01*
X125532002Y-106228002D02*
X125532002Y-105257600D01*
X143002000Y-111971000D02*
X143002000Y-111887000D01*
X143002000Y-111887000D02*
X141732000Y-110617000D01*
X141732000Y-110617000D02*
X141732000Y-108458000D01*
X141732000Y-108458000D02*
X141351000Y-108077000D01*
X141351000Y-108077000D02*
X140716000Y-108077000D01*
X140716000Y-108077000D02*
X138938000Y-106299000D01*
X143002000Y-111971000D02*
X144653000Y-111971000D01*
X143002000Y-109771000D02*
X143002000Y-108458000D01*
X124882001Y-102193999D02*
X124882001Y-105257600D01*
X125095000Y-101981000D02*
X124882001Y-102193999D01*
X137795000Y-111971000D02*
X137371000Y-111971000D01*
X137371000Y-111971000D02*
X136398000Y-110998000D01*
X136398000Y-110998000D02*
X136398000Y-106299000D01*
X137795000Y-111971000D02*
X139446000Y-111971000D01*
X137795000Y-109771000D02*
X137795000Y-108204000D01*
X124232002Y-104367998D02*
X124232002Y-105257600D01*
X124333000Y-104267000D02*
X124232002Y-104367998D01*
X124333000Y-100203000D02*
X124333000Y-104267000D01*
X124714000Y-99822000D02*
X124333000Y-100203000D01*
X131064000Y-102743000D02*
X130302000Y-102743000D01*
X131572000Y-103251000D02*
X131064000Y-102743000D01*
X131572000Y-104394000D02*
X131572000Y-103251000D01*
X132207000Y-105029000D02*
X131572000Y-104394000D01*
X137033000Y-105029000D02*
X132207000Y-105029000D01*
X137668000Y-105664000D02*
X137033000Y-105029000D01*
X137668000Y-108077000D02*
X137668000Y-105664000D01*
X137795000Y-108204000D02*
X137668000Y-108077000D01*
X134239000Y-111971000D02*
X134536000Y-111971000D01*
X134536000Y-111971000D02*
X135509000Y-110998000D01*
X135509000Y-110998000D02*
X135509000Y-107950000D01*
X135509000Y-107950000D02*
X133858000Y-106299000D01*
X134239000Y-111971000D02*
X134536000Y-111971000D01*
X132588000Y-111971000D02*
X134239000Y-111971000D01*
X128132002Y-105257600D02*
X128132002Y-106415002D01*
X132588000Y-108585000D02*
X132588000Y-109771000D01*
X130683000Y-106680000D02*
X132588000Y-108585000D01*
X128397000Y-106680000D02*
X130683000Y-106680000D01*
X128132002Y-106415002D02*
X128397000Y-106680000D01*
M02*
