M48
;DRILL file {KiCad 4.0.2+dfsg1-stable} date Thu 26 Jul 2018 23:23:59 BST
;FORMAT={-:-/ absolute / inch / decimal}
FMAT,2
INCH,TZ
T1C0.016
T2C0.035
T3C0.040
%
G90
G05
M72
T1
X4.845Y-4.31
X4.85Y-4.565
X4.86Y-3.945
X4.875Y-4.255
X4.895Y-4.425
X4.905Y-4.205
X4.91Y-3.93
X4.925Y-4.015
X4.955Y-3.89
X4.965Y-4.205
X4.985Y-4.29
X5.03Y-4.025
X5.05Y-4.265
X5.065Y-4.43
X5.08Y-4.
X5.12Y-3.775
X5.13Y-4.045
X5.165Y-3.935
X5.165Y-4.37
X5.165Y-4.465
X5.175Y-3.81
X5.18Y-4.745
X5.23Y-3.775
X5.235Y-4.495
X5.285Y-4.27
X5.33Y-3.95
X5.425Y-4.
X5.44Y-3.775
X5.44Y-4.495
X5.49Y-4.
X5.54Y-4.32
X5.63Y-4.
X5.63Y-4.27
X5.645Y-3.775
X5.645Y-4.495
X5.695Y-4.
X5.745Y-4.32
X5.77Y-3.89
X5.835Y-4.27
X5.84Y-4.
X5.85Y-3.525
X5.85Y-4.495
X5.855Y-3.775
X5.905Y-4.
X5.95Y-4.32
X5.965Y-3.895
X6.04Y-4.27
X6.05Y-4.
X6.055Y-4.495
X6.065Y-3.775
X6.115Y-4.
X6.155Y-4.32
X6.21Y-3.865
X6.245Y-4.255
X6.26Y-4.
X6.26Y-4.495
X6.275Y-3.775
X6.325Y-4.
X6.36Y-4.32
X6.395Y-4.425
X6.415Y-3.835
X6.42Y-4.135
X6.465Y-4.
X6.465Y-4.495
X6.48Y-3.775
X6.53Y-4.
X6.565Y-4.32
X6.585Y-4.425
X6.585Y-4.475
X6.585Y-4.52
X6.6Y-4.09
X6.625Y-4.2
X6.67Y-4.2
X6.675Y-4.31
X6.675Y-4.425
X6.675Y-4.475
X6.69Y-4.09
X6.695Y-4.
X6.71Y-4.285
X6.715Y-4.04
X6.735Y-4.475
X6.77Y-4.225
X6.78Y-4.005
X6.78Y-4.475
X6.785Y-3.775
X6.845Y-4.09
X6.845Y-4.31
X6.845Y-4.42
T2
X4.9965Y-3.584
X4.9965Y-3.684
X4.9965Y-4.584
X4.9965Y-4.684
X5.0965Y-3.584
X5.0965Y-3.684
X5.0965Y-4.584
X5.0965Y-4.684
X5.1965Y-3.584
X5.1965Y-3.684
X5.1965Y-4.584
X5.1965Y-4.684
X5.2965Y-3.584
X5.2965Y-3.684
X5.2965Y-4.584
X5.2965Y-4.684
X5.3965Y-3.584
X5.3965Y-3.684
X5.3965Y-4.584
X5.3965Y-4.684
X5.4965Y-3.584
X5.4965Y-3.684
X5.4965Y-4.584
X5.4965Y-4.684
X5.5965Y-3.584
X5.5965Y-3.684
X5.5965Y-4.584
X5.5965Y-4.684
X5.6965Y-3.584
X5.6965Y-3.684
X5.6965Y-4.584
X5.6965Y-4.684
X5.7965Y-3.584
X5.7965Y-3.684
X5.7965Y-4.584
X5.7965Y-4.684
X5.8965Y-3.584
X5.8965Y-3.684
X5.8965Y-4.584
X5.8965Y-4.684
X5.9965Y-3.584
X5.9965Y-3.684
X5.9965Y-4.584
X5.9965Y-4.684
X6.0965Y-3.584
X6.0965Y-3.684
X6.0965Y-4.584
X6.0965Y-4.684
X6.1965Y-3.584
X6.1965Y-3.684
X6.1965Y-4.584
X6.1965Y-4.684
X6.2965Y-3.584
X6.2965Y-3.684
X6.2965Y-4.584
X6.2965Y-4.684
X6.3965Y-3.584
X6.3965Y-3.684
X6.3965Y-4.584
X6.3965Y-4.684
X6.4965Y-3.584
X6.4965Y-3.684
X6.4965Y-4.584
X6.4965Y-4.684
X6.5965Y-3.584
X6.5965Y-3.684
X6.5965Y-4.584
X6.5965Y-4.684
X6.6965Y-3.584
X6.6965Y-3.684
X6.6965Y-4.584
X6.6965Y-4.684
T3
X5.27Y-4.085
X5.27Y-4.185
X5.37Y-4.085
X5.37Y-4.185
X5.47Y-4.085
X5.47Y-4.185
X5.57Y-4.085
X5.57Y-4.185
X5.67Y-4.085
X5.67Y-4.185
X5.77Y-4.085
X5.77Y-4.185
X5.87Y-4.085
X5.87Y-4.185
X5.97Y-4.085
X5.97Y-4.185
X6.07Y-4.085
X6.07Y-4.185
X6.17Y-4.085
X6.17Y-4.185
X6.27Y-4.085
X6.27Y-4.185
X6.37Y-4.085
X6.37Y-4.185
X6.47Y-4.085
X6.47Y-4.185
T0
M30
