G04 #@! TF.FileFunction,Paste,Top*
%FSLAX46Y46*%
G04 Gerber Fmt 4.6, Leading zero omitted, Abs format (unit mm)*
G04 Created by KiCad (PCBNEW 4.0.2+dfsg1-stable) date Thu 26 Jul 2018 23:23:47 BST*
%MOMM*%
G01*
G04 APERTURE LIST*
%ADD10C,0.100000*%
%ADD11R,0.750000X1.200000*%
%ADD12R,0.900000X1.200000*%
%ADD13R,0.355600X1.676400*%
G04 APERTURE END LIST*
D10*
D11*
X123190000Y-112715000D03*
X123190000Y-114615000D03*
X123444000Y-103439000D03*
X123444000Y-101539000D03*
X168402000Y-112715000D03*
X168402000Y-114615000D03*
X168783000Y-103439000D03*
X168783000Y-101539000D03*
D12*
X127127000Y-100287000D03*
X127127000Y-98087000D03*
X132461000Y-100287000D03*
X132461000Y-98087000D03*
X137795000Y-100287000D03*
X137795000Y-98087000D03*
X143002000Y-100287000D03*
X143002000Y-98087000D03*
X148336000Y-100287000D03*
X148336000Y-98087000D03*
X153670000Y-100287000D03*
X153670000Y-98087000D03*
X159004000Y-100287000D03*
X159004000Y-98087000D03*
X164211000Y-100287000D03*
X164211000Y-98087000D03*
X172720000Y-100287000D03*
X172720000Y-98087000D03*
X163830000Y-111971000D03*
X163830000Y-109771000D03*
X158623000Y-111971000D03*
X158623000Y-109771000D03*
X153416000Y-111971000D03*
X153416000Y-109771000D03*
X148209000Y-111971000D03*
X148209000Y-109771000D03*
X143002000Y-111971000D03*
X143002000Y-109771000D03*
X137795000Y-111971000D03*
X137795000Y-109771000D03*
X132588000Y-111971000D03*
X132588000Y-109771000D03*
X128778000Y-100287000D03*
X128778000Y-98087000D03*
X134112000Y-100287000D03*
X134112000Y-98087000D03*
X139446000Y-100287000D03*
X139446000Y-98087000D03*
X144653000Y-100287000D03*
X144653000Y-98087000D03*
X149987000Y-100287000D03*
X149987000Y-98087000D03*
X155321000Y-100287000D03*
X155321000Y-98087000D03*
X160655000Y-100287000D03*
X160655000Y-98087000D03*
X165862000Y-100287000D03*
X165862000Y-98087000D03*
X171069000Y-100287000D03*
X171069000Y-98087000D03*
X165481000Y-109771000D03*
X165481000Y-111971000D03*
X160274000Y-109771000D03*
X160274000Y-111971000D03*
X155067000Y-109771000D03*
X155067000Y-111971000D03*
X149860000Y-109771000D03*
X149860000Y-111971000D03*
X144653000Y-109771000D03*
X144653000Y-111971000D03*
X139446000Y-109771000D03*
X139446000Y-111971000D03*
X134239000Y-109771000D03*
X134239000Y-111971000D03*
X129921000Y-111168000D03*
X129921000Y-113368000D03*
X128778000Y-95928000D03*
X128778000Y-98128000D03*
X134112000Y-95928000D03*
X134112000Y-98128000D03*
X139446000Y-95928000D03*
X139446000Y-98128000D03*
X144653000Y-95928000D03*
X144653000Y-98128000D03*
X149987000Y-95928000D03*
X149987000Y-98128000D03*
X155321000Y-95928000D03*
X155321000Y-98128000D03*
X160655000Y-95928000D03*
X160655000Y-98128000D03*
X165862000Y-95928000D03*
X165862000Y-98128000D03*
X171069000Y-95928000D03*
X171069000Y-98128000D03*
X165481000Y-114130000D03*
X165481000Y-111930000D03*
X160274000Y-114130000D03*
X160274000Y-111930000D03*
X155067000Y-114130000D03*
X155067000Y-111930000D03*
X149860000Y-114130000D03*
X149860000Y-111930000D03*
X144653000Y-114130000D03*
X144653000Y-111930000D03*
X139446000Y-114130000D03*
X139446000Y-111930000D03*
X134239000Y-114130000D03*
X134239000Y-111930000D03*
D13*
X122932000Y-110896400D03*
X123582001Y-110896400D03*
X124231999Y-110896400D03*
X124882001Y-110896400D03*
X125531999Y-110896400D03*
X126181998Y-110896400D03*
X126831999Y-110896400D03*
X127481998Y-110896400D03*
X128131999Y-110896400D03*
X128781998Y-110896400D03*
X128782000Y-105257600D03*
X128132002Y-105257600D03*
X127482001Y-105257600D03*
X126832002Y-105257600D03*
X126182001Y-105257600D03*
X125532002Y-105257600D03*
X124882001Y-105257600D03*
X124232002Y-105257600D03*
X123582001Y-105257600D03*
X122932002Y-105257600D03*
X167890000Y-110896400D03*
X168540001Y-110896400D03*
X169189999Y-110896400D03*
X169840001Y-110896400D03*
X170489999Y-110896400D03*
X171139998Y-110896400D03*
X171789999Y-110896400D03*
X172439998Y-110896400D03*
X173089999Y-110896400D03*
X173739998Y-110896400D03*
X173740000Y-105257600D03*
X173090002Y-105257600D03*
X172440001Y-105257600D03*
X171790002Y-105257600D03*
X171140001Y-105257600D03*
X170490002Y-105257600D03*
X169840001Y-105257600D03*
X169190002Y-105257600D03*
X168540001Y-105257600D03*
X167890002Y-105257600D03*
M02*
