G04 #@! TF.FileFunction,Copper,L2,Inr,Signal*
%FSLAX46Y46*%
G04 Gerber Fmt 4.6, Leading zero omitted, Abs format (unit mm)*
G04 Created by KiCad (PCBNEW 4.0.2+dfsg1-stable) date Thu 26 Jul 2018 23:23:47 BST*
%MOMM*%
G01*
G04 APERTURE LIST*
%ADD10C,0.100000*%
%ADD11C,1.524000*%
%ADD12R,1.524000X1.524000*%
%ADD13R,1.727200X1.727200*%
%ADD14O,1.727200X1.727200*%
%ADD15C,0.800000*%
%ADD16C,0.254000*%
G04 APERTURE END LIST*
D10*
D11*
X170091100Y-116433600D03*
X170091100Y-118973600D03*
X167551100Y-116433600D03*
X167551100Y-118973600D03*
X165011100Y-116433600D03*
X165011100Y-118973600D03*
X162471100Y-116433600D03*
X162471100Y-118973600D03*
X159931100Y-116433600D03*
X159931100Y-118973600D03*
X157391100Y-116433600D03*
X157391100Y-118973600D03*
X154851100Y-116433600D03*
X154851100Y-118973600D03*
X152311100Y-116433600D03*
X152311100Y-118973600D03*
X149771100Y-116433600D03*
X149771100Y-118973600D03*
X147231100Y-116433600D03*
X147231100Y-118973600D03*
X144691100Y-116433600D03*
X144691100Y-118973600D03*
X142151100Y-116433600D03*
X142151100Y-118973600D03*
X139611100Y-116433600D03*
X139611100Y-118973600D03*
X137071100Y-116433600D03*
X137071100Y-118973600D03*
X134531100Y-116433600D03*
X134531100Y-118973600D03*
X131991100Y-116433600D03*
X131991100Y-118973600D03*
X129451100Y-116433600D03*
X129451100Y-118973600D03*
X126911100Y-116433600D03*
D12*
X126911100Y-118973600D03*
D11*
X170091100Y-91033600D03*
X170091100Y-93573600D03*
X167551100Y-91033600D03*
X167551100Y-93573600D03*
X165011100Y-91033600D03*
X165011100Y-93573600D03*
X162471100Y-91033600D03*
X162471100Y-93573600D03*
X159931100Y-91033600D03*
X159931100Y-93573600D03*
X157391100Y-91033600D03*
X157391100Y-93573600D03*
X154851100Y-91033600D03*
X154851100Y-93573600D03*
X152311100Y-91033600D03*
X152311100Y-93573600D03*
X149771100Y-91033600D03*
X149771100Y-93573600D03*
X147231100Y-91033600D03*
X147231100Y-93573600D03*
X144691100Y-91033600D03*
X144691100Y-93573600D03*
X142151100Y-91033600D03*
X142151100Y-93573600D03*
X139611100Y-91033600D03*
X139611100Y-93573600D03*
X137071100Y-91033600D03*
X137071100Y-93573600D03*
X134531100Y-91033600D03*
X134531100Y-93573600D03*
X131991100Y-91033600D03*
X131991100Y-93573600D03*
X129451100Y-91033600D03*
X129451100Y-93573600D03*
X126911100Y-91033600D03*
D12*
X126911100Y-93573600D03*
D13*
X133858000Y-103759000D03*
D14*
X133858000Y-106299000D03*
X136398000Y-103759000D03*
X136398000Y-106299000D03*
X138938000Y-103759000D03*
X138938000Y-106299000D03*
X141478000Y-103759000D03*
X141478000Y-106299000D03*
X144018000Y-103759000D03*
X144018000Y-106299000D03*
X146558000Y-103759000D03*
X146558000Y-106299000D03*
X149098000Y-103759000D03*
X149098000Y-106299000D03*
X151638000Y-103759000D03*
X151638000Y-106299000D03*
X154178000Y-103759000D03*
X154178000Y-106299000D03*
X156718000Y-103759000D03*
X156718000Y-106299000D03*
X159258000Y-103759000D03*
X159258000Y-106299000D03*
X161798000Y-103759000D03*
X161798000Y-106299000D03*
X164338000Y-103759000D03*
X164338000Y-106299000D03*
D15*
X167259000Y-114808000D03*
X131191000Y-113411000D03*
X129032000Y-101600000D03*
X166751000Y-109728000D03*
X173863000Y-103886000D03*
X170053000Y-101600000D03*
X145923000Y-109728000D03*
X140716000Y-109728000D03*
X160655000Y-101600000D03*
X151130000Y-109728000D03*
X156337000Y-109728000D03*
X161544000Y-109728000D03*
X135382000Y-100330000D03*
X123444000Y-100203000D03*
X165862000Y-101600000D03*
X155321000Y-101600000D03*
X149987000Y-101600000D03*
X144653000Y-101600000D03*
X139446000Y-101600000D03*
X123190000Y-115951000D03*
X134239000Y-108458000D03*
X167259000Y-112395000D03*
X124587000Y-106807000D03*
X168275000Y-106680000D03*
X170561000Y-102616000D03*
X172339000Y-95885000D03*
X130048000Y-95885000D03*
X164592000Y-95885000D03*
X159385000Y-95885000D03*
X154051000Y-95885000D03*
X148717000Y-95885000D03*
X143383000Y-95885000D03*
X138176000Y-95885000D03*
X132842000Y-95885000D03*
X132969000Y-114173000D03*
X138176000Y-114173000D03*
X143383000Y-114173000D03*
X148590000Y-114173000D03*
X153797000Y-114173000D03*
X159004000Y-114173000D03*
X164211000Y-114173000D03*
X124333000Y-112395000D03*
X173863000Y-112268000D03*
X131191000Y-110998000D03*
X172212000Y-113665000D03*
X170434000Y-108839000D03*
X169545000Y-109474000D03*
X173863000Y-109474000D03*
X148590000Y-89535000D03*
X131445000Y-96774000D03*
X123063000Y-109474000D03*
X169545000Y-113665000D03*
X167259000Y-113665000D03*
X128651000Y-112522000D03*
X131572000Y-120523000D03*
X169545000Y-112395000D03*
X126619000Y-108966000D03*
X171069000Y-113665000D03*
X162433000Y-112395000D03*
X128270000Y-108331000D03*
X127762000Y-102235000D03*
X131191000Y-99949000D03*
X137795000Y-101600000D03*
X125857000Y-98806000D03*
X167640000Y-103886000D03*
X143002000Y-101600000D03*
X169418000Y-106680000D03*
X148336000Y-101600000D03*
X146558000Y-98806000D03*
X153670000Y-101600000D03*
X169926000Y-103886000D03*
X151511000Y-98933000D03*
X159004000Y-101600000D03*
X171958000Y-107315000D03*
X157734000Y-98171000D03*
X172212000Y-101727000D03*
X162941000Y-97409000D03*
X164211000Y-101600000D03*
X163068000Y-105029000D03*
X158623000Y-108077000D03*
X153416000Y-108458000D03*
X123825000Y-108077000D03*
X148209000Y-108458000D03*
X126111000Y-106807000D03*
X125095000Y-101981000D03*
X143002000Y-108458000D03*
X124714000Y-99822000D03*
X130302000Y-102743000D03*
D16*
X167259000Y-112395000D02*
X167005000Y-112395000D01*
X167005000Y-112395000D02*
X166243000Y-113157000D01*
X166243000Y-113157000D02*
X166243000Y-117094000D01*
X166243000Y-117094000D02*
X165608000Y-117729000D01*
X165608000Y-117729000D02*
X159004000Y-117729000D01*
X159004000Y-117729000D02*
X158623000Y-118110000D01*
X158623000Y-118110000D02*
X158623000Y-119761000D01*
X158623000Y-119761000D02*
X157988000Y-120396000D01*
X157988000Y-120396000D02*
X151765000Y-120396000D01*
X151765000Y-120396000D02*
X151003000Y-119634000D01*
X151003000Y-119634000D02*
X151003000Y-118110000D01*
X151003000Y-118110000D02*
X150622000Y-117729000D01*
X150622000Y-117729000D02*
X143446500Y-117729000D01*
X143446500Y-117729000D02*
X142151100Y-116433600D01*
X173863000Y-109474000D02*
X174752000Y-108585000D01*
X169545000Y-92329000D02*
X168275000Y-91059000D01*
X168275000Y-91059000D02*
X167551100Y-91033600D01*
X170688000Y-92329000D02*
X169545000Y-92329000D01*
X173990000Y-95631000D02*
X170688000Y-92329000D01*
X173990000Y-98044000D02*
X173990000Y-95631000D01*
X174752000Y-98806000D02*
X173990000Y-98044000D01*
X174752000Y-108585000D02*
X174752000Y-98806000D01*
X170091100Y-93510100D02*
X169291000Y-93472000D01*
X168148000Y-92329000D02*
X169291000Y-93472000D01*
X167005000Y-92329000D02*
X166243000Y-91567000D01*
X168148000Y-92329000D02*
X167005000Y-92329000D01*
X166243000Y-91567000D02*
X166243000Y-90043000D01*
X165735000Y-89535000D02*
X148590000Y-89535000D01*
X166243000Y-90043000D02*
X165735000Y-89535000D01*
X131445000Y-96774000D02*
X123825000Y-96774000D01*
X123825000Y-96774000D02*
X122174000Y-98425000D01*
X122174000Y-98425000D02*
X122174000Y-108585000D01*
X122174000Y-108585000D02*
X123063000Y-109474000D01*
X170091100Y-93573600D02*
X170091100Y-93510100D01*
X168783000Y-117741700D02*
X167551100Y-118973600D01*
X168783000Y-114427000D02*
X168783000Y-117741700D01*
X168529000Y-114173000D02*
X168783000Y-114427000D01*
X168529000Y-113157000D02*
X168529000Y-114173000D01*
X169291000Y-112395000D02*
X168529000Y-113157000D01*
X169545000Y-112395000D02*
X169291000Y-112395000D01*
X125857000Y-98806000D02*
X136525000Y-98806000D01*
X137795000Y-100076000D02*
X137795000Y-101600000D01*
X136525000Y-98806000D02*
X137795000Y-100076000D01*
X167640000Y-103886000D02*
X167640000Y-102743000D01*
X144145000Y-100457000D02*
X143002000Y-101600000D01*
X167259000Y-100457000D02*
X144145000Y-100457000D01*
X167513000Y-100711000D02*
X167259000Y-100457000D01*
X167513000Y-102616000D02*
X167513000Y-100711000D01*
X167640000Y-102743000D02*
X167513000Y-102616000D01*
X169418000Y-106680000D02*
X169418000Y-104902000D01*
X147447000Y-99695000D02*
X146558000Y-98806000D01*
X167767000Y-99695000D02*
X147447000Y-99695000D01*
X168275000Y-100203000D02*
X167767000Y-99695000D01*
X168275000Y-102362000D02*
X168275000Y-100203000D01*
X168783000Y-102870000D02*
X168275000Y-102362000D01*
X168783000Y-104267000D02*
X168783000Y-102870000D01*
X169418000Y-104902000D02*
X168783000Y-104267000D01*
X169926000Y-103886000D02*
X169926000Y-102997000D01*
X168148000Y-98933000D02*
X151511000Y-98933000D01*
X169037000Y-99822000D02*
X168148000Y-98933000D01*
X169037000Y-102108000D02*
X169037000Y-99822000D01*
X169926000Y-102997000D02*
X169037000Y-102108000D01*
X171958000Y-102997000D02*
X171958000Y-107315000D01*
X171196000Y-102235000D02*
X171958000Y-102997000D01*
X171196000Y-99695000D02*
X171196000Y-102235000D01*
X169672000Y-98171000D02*
X171196000Y-99695000D01*
X157734000Y-98171000D02*
X169672000Y-98171000D01*
X162941000Y-97409000D02*
X170053000Y-97409000D01*
X172212000Y-99568000D02*
X172212000Y-101727000D01*
X170053000Y-97409000D02*
X172212000Y-99568000D01*
X126111000Y-106807000D02*
X126111000Y-106680000D01*
X147828000Y-108077000D02*
X148209000Y-108458000D01*
X147828000Y-105410000D02*
X147828000Y-108077000D01*
X147447000Y-105029000D02*
X147828000Y-105410000D01*
X127762000Y-105029000D02*
X147447000Y-105029000D01*
X126111000Y-106680000D02*
X127762000Y-105029000D01*
G36*
X169550905Y-88933610D02*
X172560287Y-90944414D01*
X174571089Y-93953793D01*
X175291100Y-97573531D01*
X175291100Y-98267610D01*
X175290816Y-98267185D01*
X174752000Y-97728370D01*
X174752000Y-95631000D01*
X174693996Y-95339395D01*
X174528815Y-95092185D01*
X171268659Y-91832029D01*
X171274729Y-91825970D01*
X171487857Y-91312700D01*
X171488342Y-90756939D01*
X171276110Y-90243297D01*
X170883470Y-89849971D01*
X170370200Y-89636843D01*
X169814439Y-89636358D01*
X169300797Y-89848590D01*
X168907471Y-90241230D01*
X168821151Y-90449112D01*
X168736110Y-90243297D01*
X168343470Y-89849971D01*
X167830200Y-89636843D01*
X167274439Y-89636358D01*
X166950720Y-89770116D01*
X166946996Y-89751395D01*
X166870455Y-89636843D01*
X166781815Y-89504184D01*
X166273815Y-88996185D01*
X166221401Y-88961163D01*
X166026605Y-88831004D01*
X165735000Y-88773000D01*
X149291765Y-88773000D01*
X149177046Y-88658081D01*
X148796777Y-88500180D01*
X148385029Y-88499821D01*
X148004485Y-88657058D01*
X147713081Y-88947954D01*
X147555180Y-89328223D01*
X147554895Y-89655402D01*
X147510200Y-89636843D01*
X146954439Y-89636358D01*
X146440797Y-89848590D01*
X146047471Y-90241230D01*
X145961151Y-90449112D01*
X145876110Y-90243297D01*
X145483470Y-89849971D01*
X144970200Y-89636843D01*
X144414439Y-89636358D01*
X143900797Y-89848590D01*
X143507471Y-90241230D01*
X143421151Y-90449112D01*
X143336110Y-90243297D01*
X142943470Y-89849971D01*
X142430200Y-89636843D01*
X141874439Y-89636358D01*
X141360797Y-89848590D01*
X140967471Y-90241230D01*
X140881151Y-90449112D01*
X140796110Y-90243297D01*
X140403470Y-89849971D01*
X139890200Y-89636843D01*
X139334439Y-89636358D01*
X138820797Y-89848590D01*
X138427471Y-90241230D01*
X138341151Y-90449112D01*
X138256110Y-90243297D01*
X137863470Y-89849971D01*
X137350200Y-89636843D01*
X136794439Y-89636358D01*
X136280797Y-89848590D01*
X135887471Y-90241230D01*
X135801151Y-90449112D01*
X135716110Y-90243297D01*
X135323470Y-89849971D01*
X134810200Y-89636843D01*
X134254439Y-89636358D01*
X133740797Y-89848590D01*
X133347471Y-90241230D01*
X133261151Y-90449112D01*
X133176110Y-90243297D01*
X132783470Y-89849971D01*
X132270200Y-89636843D01*
X131714439Y-89636358D01*
X131200797Y-89848590D01*
X130807471Y-90241230D01*
X130721151Y-90449112D01*
X130636110Y-90243297D01*
X130243470Y-89849971D01*
X129730200Y-89636843D01*
X129174439Y-89636358D01*
X128660797Y-89848590D01*
X128267471Y-90241230D01*
X128181151Y-90449112D01*
X128096110Y-90243297D01*
X127703470Y-89849971D01*
X127190200Y-89636843D01*
X126634439Y-89636358D01*
X126120797Y-89848590D01*
X125727471Y-90241230D01*
X125514343Y-90754500D01*
X125513858Y-91310261D01*
X125726090Y-91823903D01*
X126078933Y-92177363D01*
X125913783Y-92208438D01*
X125697659Y-92347510D01*
X125552669Y-92559710D01*
X125501660Y-92811600D01*
X125501660Y-94335600D01*
X125545938Y-94570917D01*
X125685010Y-94787041D01*
X125897210Y-94932031D01*
X126149100Y-94983040D01*
X127673100Y-94983040D01*
X127908417Y-94938762D01*
X128124541Y-94799690D01*
X128269531Y-94587490D01*
X128306592Y-94404476D01*
X128658730Y-94757229D01*
X129172000Y-94970357D01*
X129727761Y-94970842D01*
X130241403Y-94758610D01*
X130634729Y-94365970D01*
X130721049Y-94158088D01*
X130806090Y-94363903D01*
X131198730Y-94757229D01*
X131712000Y-94970357D01*
X132267761Y-94970842D01*
X132781403Y-94758610D01*
X133174729Y-94365970D01*
X133261049Y-94158088D01*
X133346090Y-94363903D01*
X133738730Y-94757229D01*
X134252000Y-94970357D01*
X134807761Y-94970842D01*
X135321403Y-94758610D01*
X135714729Y-94365970D01*
X135801049Y-94158088D01*
X135886090Y-94363903D01*
X136278730Y-94757229D01*
X136792000Y-94970357D01*
X137347761Y-94970842D01*
X137861403Y-94758610D01*
X138254729Y-94365970D01*
X138341049Y-94158088D01*
X138426090Y-94363903D01*
X138818730Y-94757229D01*
X139332000Y-94970357D01*
X139887761Y-94970842D01*
X140401403Y-94758610D01*
X140606557Y-94553813D01*
X141350492Y-94553813D01*
X141419957Y-94795997D01*
X141943402Y-94982744D01*
X142498468Y-94954962D01*
X142882243Y-94795997D01*
X142951708Y-94553813D01*
X142151100Y-93753205D01*
X141350492Y-94553813D01*
X140606557Y-94553813D01*
X140794729Y-94365970D01*
X140874495Y-94173873D01*
X140928703Y-94304743D01*
X141170887Y-94374208D01*
X141971495Y-93573600D01*
X141170887Y-92772992D01*
X140928703Y-92842457D01*
X140878591Y-92982918D01*
X140796110Y-92783297D01*
X140403470Y-92389971D01*
X140195588Y-92303651D01*
X140401403Y-92218610D01*
X140794729Y-91825970D01*
X140881049Y-91618088D01*
X140966090Y-91823903D01*
X141358730Y-92217229D01*
X141550827Y-92296995D01*
X141419957Y-92351203D01*
X141350492Y-92593387D01*
X142151100Y-93393995D01*
X142951708Y-92593387D01*
X142882243Y-92351203D01*
X142741782Y-92301091D01*
X142941403Y-92218610D01*
X143334729Y-91825970D01*
X143421049Y-91618088D01*
X143506090Y-91823903D01*
X143898730Y-92217229D01*
X144106612Y-92303549D01*
X143900797Y-92388590D01*
X143507471Y-92781230D01*
X143427705Y-92973327D01*
X143373497Y-92842457D01*
X143131313Y-92772992D01*
X142330705Y-93573600D01*
X143131313Y-94374208D01*
X143373497Y-94304743D01*
X143423609Y-94164282D01*
X143506090Y-94363903D01*
X143898730Y-94757229D01*
X144412000Y-94970357D01*
X144967761Y-94970842D01*
X145481403Y-94758610D01*
X145874729Y-94365970D01*
X145961049Y-94158088D01*
X146046090Y-94363903D01*
X146438730Y-94757229D01*
X146952000Y-94970357D01*
X147507761Y-94970842D01*
X148021403Y-94758610D01*
X148414729Y-94365970D01*
X148501049Y-94158088D01*
X148586090Y-94363903D01*
X148978730Y-94757229D01*
X149492000Y-94970357D01*
X150047761Y-94970842D01*
X150561403Y-94758610D01*
X150954729Y-94365970D01*
X151041049Y-94158088D01*
X151126090Y-94363903D01*
X151518730Y-94757229D01*
X152032000Y-94970357D01*
X152587761Y-94970842D01*
X153101403Y-94758610D01*
X153494729Y-94365970D01*
X153581049Y-94158088D01*
X153666090Y-94363903D01*
X154058730Y-94757229D01*
X154572000Y-94970357D01*
X155127761Y-94970842D01*
X155641403Y-94758610D01*
X156034729Y-94365970D01*
X156121049Y-94158088D01*
X156206090Y-94363903D01*
X156598730Y-94757229D01*
X157112000Y-94970357D01*
X157667761Y-94970842D01*
X158181403Y-94758610D01*
X158574729Y-94365970D01*
X158661049Y-94158088D01*
X158746090Y-94363903D01*
X159138730Y-94757229D01*
X159652000Y-94970357D01*
X160207761Y-94970842D01*
X160721403Y-94758610D01*
X161114729Y-94365970D01*
X161201049Y-94158088D01*
X161286090Y-94363903D01*
X161678730Y-94757229D01*
X162192000Y-94970357D01*
X162747761Y-94970842D01*
X163261403Y-94758610D01*
X163654729Y-94365970D01*
X163741049Y-94158088D01*
X163826090Y-94363903D01*
X164218730Y-94757229D01*
X164732000Y-94970357D01*
X165287761Y-94970842D01*
X165801403Y-94758610D01*
X166194729Y-94365970D01*
X166281049Y-94158088D01*
X166366090Y-94363903D01*
X166758730Y-94757229D01*
X167272000Y-94970357D01*
X167827761Y-94970842D01*
X168341403Y-94758610D01*
X168734729Y-94365970D01*
X168821049Y-94158088D01*
X168906090Y-94363903D01*
X169298730Y-94757229D01*
X169812000Y-94970357D01*
X170367761Y-94970842D01*
X170881403Y-94758610D01*
X171274729Y-94365970D01*
X171384055Y-94102685D01*
X173228000Y-95946630D01*
X173228000Y-98044000D01*
X173286004Y-98335605D01*
X173370863Y-98462605D01*
X173451185Y-98582815D01*
X173990000Y-99121631D01*
X173990000Y-102851110D01*
X173658029Y-102850821D01*
X173277485Y-103008058D01*
X172986081Y-103298954D01*
X172828180Y-103679223D01*
X172827821Y-104090971D01*
X172985058Y-104471515D01*
X173275954Y-104762919D01*
X173656223Y-104920820D01*
X173990000Y-104921111D01*
X173990000Y-108269370D01*
X173820407Y-108438963D01*
X173658029Y-108438821D01*
X173277485Y-108596058D01*
X172986081Y-108886954D01*
X172828180Y-109267223D01*
X172827821Y-109678971D01*
X172985058Y-110059515D01*
X173275954Y-110350919D01*
X173656223Y-110508820D01*
X174067971Y-110509179D01*
X174448515Y-110351942D01*
X174739919Y-110061046D01*
X174897820Y-109680777D01*
X174897963Y-109516667D01*
X175290815Y-109123815D01*
X175291100Y-109123388D01*
X175291100Y-112433669D01*
X174571089Y-116053407D01*
X172560287Y-119062786D01*
X169550905Y-121073590D01*
X165931169Y-121793600D01*
X131071031Y-121793600D01*
X127451293Y-121073589D01*
X126417813Y-120383040D01*
X127673100Y-120383040D01*
X127908417Y-120338762D01*
X128124541Y-120199690D01*
X128269531Y-119987490D01*
X128306592Y-119804476D01*
X128658730Y-120157229D01*
X129172000Y-120370357D01*
X129727761Y-120370842D01*
X130241403Y-120158610D01*
X130634729Y-119765970D01*
X130721049Y-119558088D01*
X130806090Y-119763903D01*
X130836708Y-119794574D01*
X130695081Y-119935954D01*
X130537180Y-120316223D01*
X130536821Y-120727971D01*
X130694058Y-121108515D01*
X130984954Y-121399919D01*
X131365223Y-121557820D01*
X131776971Y-121558179D01*
X132157515Y-121400942D01*
X132448919Y-121110046D01*
X132606820Y-120729777D01*
X132607179Y-120318029D01*
X132576321Y-120243348D01*
X132781403Y-120158610D01*
X133174729Y-119765970D01*
X133261049Y-119558088D01*
X133346090Y-119763903D01*
X133738730Y-120157229D01*
X134252000Y-120370357D01*
X134807761Y-120370842D01*
X135321403Y-120158610D01*
X135714729Y-119765970D01*
X135801049Y-119558088D01*
X135886090Y-119763903D01*
X136278730Y-120157229D01*
X136792000Y-120370357D01*
X137347761Y-120370842D01*
X137861403Y-120158610D01*
X138254729Y-119765970D01*
X138341049Y-119558088D01*
X138426090Y-119763903D01*
X138818730Y-120157229D01*
X139332000Y-120370357D01*
X139887761Y-120370842D01*
X140401403Y-120158610D01*
X140794729Y-119765970D01*
X140881049Y-119558088D01*
X140966090Y-119763903D01*
X141358730Y-120157229D01*
X141872000Y-120370357D01*
X142427761Y-120370842D01*
X142941403Y-120158610D01*
X143334729Y-119765970D01*
X143421049Y-119558088D01*
X143506090Y-119763903D01*
X143898730Y-120157229D01*
X144412000Y-120370357D01*
X144967761Y-120370842D01*
X145481403Y-120158610D01*
X145874729Y-119765970D01*
X145961049Y-119558088D01*
X146046090Y-119763903D01*
X146438730Y-120157229D01*
X146952000Y-120370357D01*
X147507761Y-120370842D01*
X148021403Y-120158610D01*
X148414729Y-119765970D01*
X148501049Y-119558088D01*
X148586090Y-119763903D01*
X148978730Y-120157229D01*
X149492000Y-120370357D01*
X150047761Y-120370842D01*
X150482558Y-120191188D01*
X151226185Y-120934816D01*
X151374377Y-121033834D01*
X151473395Y-121099996D01*
X151765000Y-121158000D01*
X157988000Y-121158000D01*
X158279605Y-121099996D01*
X158526815Y-120934815D01*
X159161816Y-120299815D01*
X159231382Y-120195701D01*
X159652000Y-120370357D01*
X160207761Y-120370842D01*
X160721403Y-120158610D01*
X161114729Y-119765970D01*
X161201049Y-119558088D01*
X161286090Y-119763903D01*
X161678730Y-120157229D01*
X162192000Y-120370357D01*
X162747761Y-120370842D01*
X163261403Y-120158610D01*
X163654729Y-119765970D01*
X163741049Y-119558088D01*
X163826090Y-119763903D01*
X164218730Y-120157229D01*
X164732000Y-120370357D01*
X165287761Y-120370842D01*
X165801403Y-120158610D01*
X166194729Y-119765970D01*
X166281049Y-119558088D01*
X166366090Y-119763903D01*
X166758730Y-120157229D01*
X167272000Y-120370357D01*
X167827761Y-120370842D01*
X168341403Y-120158610D01*
X168734729Y-119765970D01*
X168821049Y-119558088D01*
X168906090Y-119763903D01*
X169298730Y-120157229D01*
X169812000Y-120370357D01*
X170367761Y-120370842D01*
X170881403Y-120158610D01*
X171274729Y-119765970D01*
X171487857Y-119252700D01*
X171488342Y-118696939D01*
X171276110Y-118183297D01*
X170883470Y-117789971D01*
X170675588Y-117703651D01*
X170881403Y-117618610D01*
X171274729Y-117225970D01*
X171487857Y-116712700D01*
X171488342Y-116156939D01*
X171276110Y-115643297D01*
X170883470Y-115249971D01*
X170370200Y-115036843D01*
X169814439Y-115036358D01*
X169545000Y-115147688D01*
X169545000Y-114700000D01*
X169749971Y-114700179D01*
X170130515Y-114542942D01*
X170307053Y-114366712D01*
X170481954Y-114541919D01*
X170862223Y-114699820D01*
X171273971Y-114700179D01*
X171640933Y-114548554D01*
X172005223Y-114699820D01*
X172416971Y-114700179D01*
X172797515Y-114542942D01*
X173088919Y-114252046D01*
X173246820Y-113871777D01*
X173247179Y-113460029D01*
X173089942Y-113079485D01*
X172799046Y-112788081D01*
X172418777Y-112630180D01*
X172007029Y-112629821D01*
X171640067Y-112781446D01*
X171275777Y-112630180D01*
X170864029Y-112629821D01*
X170506903Y-112777382D01*
X170579820Y-112601777D01*
X170579932Y-112472971D01*
X172827821Y-112472971D01*
X172985058Y-112853515D01*
X173275954Y-113144919D01*
X173656223Y-113302820D01*
X174067971Y-113303179D01*
X174448515Y-113145942D01*
X174739919Y-112855046D01*
X174897820Y-112474777D01*
X174898179Y-112063029D01*
X174740942Y-111682485D01*
X174450046Y-111391081D01*
X174069777Y-111233180D01*
X173658029Y-111232821D01*
X173277485Y-111390058D01*
X172986081Y-111680954D01*
X172828180Y-112061223D01*
X172827821Y-112472971D01*
X170579932Y-112472971D01*
X170580179Y-112190029D01*
X170422942Y-111809485D01*
X170132046Y-111518081D01*
X169751777Y-111360180D01*
X169340029Y-111359821D01*
X168959485Y-111517058D01*
X168668081Y-111807954D01*
X168574112Y-112034257D01*
X168294071Y-112314299D01*
X168294179Y-112190029D01*
X168136942Y-111809485D01*
X167846046Y-111518081D01*
X167465777Y-111360180D01*
X167054029Y-111359821D01*
X166673485Y-111517058D01*
X166382081Y-111807954D01*
X166288112Y-112034257D01*
X165704185Y-112618185D01*
X165539004Y-112865395D01*
X165481000Y-113157000D01*
X165481000Y-115116070D01*
X165290200Y-115036843D01*
X164734439Y-115036358D01*
X164220797Y-115248590D01*
X163827471Y-115641230D01*
X163741151Y-115849112D01*
X163656110Y-115643297D01*
X163263470Y-115249971D01*
X162750200Y-115036843D01*
X162194439Y-115036358D01*
X161680797Y-115248590D01*
X161287471Y-115641230D01*
X161201151Y-115849112D01*
X161116110Y-115643297D01*
X160723470Y-115249971D01*
X160210200Y-115036843D01*
X159654439Y-115036358D01*
X159140797Y-115248590D01*
X158747471Y-115641230D01*
X158661151Y-115849112D01*
X158576110Y-115643297D01*
X158183470Y-115249971D01*
X157670200Y-115036843D01*
X157114439Y-115036358D01*
X156600797Y-115248590D01*
X156207471Y-115641230D01*
X156127705Y-115833327D01*
X156073497Y-115702457D01*
X155831313Y-115632992D01*
X155030705Y-116433600D01*
X155831313Y-117234208D01*
X156073497Y-117164743D01*
X156123609Y-117024282D01*
X156206090Y-117223903D01*
X156598730Y-117617229D01*
X156806612Y-117703549D01*
X156600797Y-117788590D01*
X156207471Y-118181230D01*
X156121151Y-118389112D01*
X156036110Y-118183297D01*
X155643470Y-117789971D01*
X155451373Y-117710205D01*
X155582243Y-117655997D01*
X155651708Y-117413813D01*
X154851100Y-116613205D01*
X154050492Y-117413813D01*
X154119957Y-117655997D01*
X154260418Y-117706109D01*
X154060797Y-117788590D01*
X153667471Y-118181230D01*
X153581151Y-118389112D01*
X153496110Y-118183297D01*
X153103470Y-117789971D01*
X152895588Y-117703651D01*
X153101403Y-117618610D01*
X153494729Y-117225970D01*
X153574495Y-117033873D01*
X153628703Y-117164743D01*
X153870887Y-117234208D01*
X154671495Y-116433600D01*
X153870887Y-115632992D01*
X153628703Y-115702457D01*
X153578591Y-115842918D01*
X153496110Y-115643297D01*
X153306532Y-115453387D01*
X154050492Y-115453387D01*
X154851100Y-116253995D01*
X155651708Y-115453387D01*
X155582243Y-115211203D01*
X155058798Y-115024456D01*
X154503732Y-115052238D01*
X154119957Y-115211203D01*
X154050492Y-115453387D01*
X153306532Y-115453387D01*
X153103470Y-115249971D01*
X152590200Y-115036843D01*
X152034439Y-115036358D01*
X151520797Y-115248590D01*
X151127471Y-115641230D01*
X151041151Y-115849112D01*
X150956110Y-115643297D01*
X150563470Y-115249971D01*
X150050200Y-115036843D01*
X149494439Y-115036358D01*
X148980797Y-115248590D01*
X148587471Y-115641230D01*
X148501151Y-115849112D01*
X148416110Y-115643297D01*
X148023470Y-115249971D01*
X147510200Y-115036843D01*
X146954439Y-115036358D01*
X146440797Y-115248590D01*
X146047471Y-115641230D01*
X145961151Y-115849112D01*
X145876110Y-115643297D01*
X145483470Y-115249971D01*
X144970200Y-115036843D01*
X144414439Y-115036358D01*
X143900797Y-115248590D01*
X143507471Y-115641230D01*
X143421151Y-115849112D01*
X143336110Y-115643297D01*
X142943470Y-115249971D01*
X142430200Y-115036843D01*
X141874439Y-115036358D01*
X141360797Y-115248590D01*
X140967471Y-115641230D01*
X140881151Y-115849112D01*
X140796110Y-115643297D01*
X140403470Y-115249971D01*
X139890200Y-115036843D01*
X139334439Y-115036358D01*
X138820797Y-115248590D01*
X138427471Y-115641230D01*
X138341151Y-115849112D01*
X138256110Y-115643297D01*
X137863470Y-115249971D01*
X137350200Y-115036843D01*
X136794439Y-115036358D01*
X136280797Y-115248590D01*
X135887471Y-115641230D01*
X135801151Y-115849112D01*
X135716110Y-115643297D01*
X135323470Y-115249971D01*
X134810200Y-115036843D01*
X134254439Y-115036358D01*
X133740797Y-115248590D01*
X133347471Y-115641230D01*
X133261151Y-115849112D01*
X133176110Y-115643297D01*
X132783470Y-115249971D01*
X132270200Y-115036843D01*
X131714439Y-115036358D01*
X131200797Y-115248590D01*
X130807471Y-115641230D01*
X130721151Y-115849112D01*
X130636110Y-115643297D01*
X130243470Y-115249971D01*
X129730200Y-115036843D01*
X129174439Y-115036358D01*
X128660797Y-115248590D01*
X128267471Y-115641230D01*
X128181151Y-115849112D01*
X128096110Y-115643297D01*
X127703470Y-115249971D01*
X127190200Y-115036843D01*
X126634439Y-115036358D01*
X126120797Y-115248590D01*
X125727471Y-115641230D01*
X125514343Y-116154500D01*
X125513858Y-116710261D01*
X125726090Y-117223903D01*
X126078933Y-117577363D01*
X125913783Y-117608438D01*
X125697659Y-117747510D01*
X125552669Y-117959710D01*
X125501660Y-118211600D01*
X125501660Y-119735600D01*
X125509254Y-119775961D01*
X124441914Y-119062787D01*
X123054170Y-116985882D01*
X123394971Y-116986179D01*
X123775515Y-116828942D01*
X124066919Y-116538046D01*
X124224820Y-116157777D01*
X124225179Y-115746029D01*
X124067942Y-115365485D01*
X123777046Y-115074081D01*
X123396777Y-114916180D01*
X122985029Y-114915821D01*
X122604485Y-115073058D01*
X122313081Y-115363954D01*
X122300159Y-115395073D01*
X121946275Y-113615971D01*
X130155821Y-113615971D01*
X130313058Y-113996515D01*
X130603954Y-114287919D01*
X130984223Y-114445820D01*
X131395971Y-114446179D01*
X131776515Y-114288942D01*
X132067919Y-113998046D01*
X132225820Y-113617777D01*
X132226179Y-113206029D01*
X132068942Y-112825485D01*
X131843822Y-112599971D01*
X161397821Y-112599971D01*
X161555058Y-112980515D01*
X161845954Y-113271919D01*
X162226223Y-113429820D01*
X162637971Y-113430179D01*
X163018515Y-113272942D01*
X163309919Y-112982046D01*
X163467820Y-112601777D01*
X163468179Y-112190029D01*
X163310942Y-111809485D01*
X163020046Y-111518081D01*
X162639777Y-111360180D01*
X162228029Y-111359821D01*
X161847485Y-111517058D01*
X161556081Y-111807954D01*
X161398180Y-112188223D01*
X161397821Y-112599971D01*
X131843822Y-112599971D01*
X131778046Y-112534081D01*
X131397777Y-112376180D01*
X130986029Y-112375821D01*
X130605485Y-112533058D01*
X130314081Y-112823954D01*
X130156180Y-113204223D01*
X130155821Y-113615971D01*
X121946275Y-113615971D01*
X121744180Y-112599971D01*
X123297821Y-112599971D01*
X123455058Y-112980515D01*
X123745954Y-113271919D01*
X124126223Y-113429820D01*
X124537971Y-113430179D01*
X124918515Y-113272942D01*
X125209919Y-112982046D01*
X125315835Y-112726971D01*
X127615821Y-112726971D01*
X127773058Y-113107515D01*
X128063954Y-113398919D01*
X128444223Y-113556820D01*
X128855971Y-113557179D01*
X129236515Y-113399942D01*
X129527919Y-113109046D01*
X129685820Y-112728777D01*
X129686179Y-112317029D01*
X129528942Y-111936485D01*
X129238046Y-111645081D01*
X128857777Y-111487180D01*
X128446029Y-111486821D01*
X128065485Y-111644058D01*
X127774081Y-111934954D01*
X127616180Y-112315223D01*
X127615821Y-112726971D01*
X125315835Y-112726971D01*
X125367820Y-112601777D01*
X125368179Y-112190029D01*
X125210942Y-111809485D01*
X124920046Y-111518081D01*
X124539777Y-111360180D01*
X124128029Y-111359821D01*
X123747485Y-111517058D01*
X123456081Y-111807954D01*
X123298180Y-112188223D01*
X123297821Y-112599971D01*
X121744180Y-112599971D01*
X121711100Y-112433669D01*
X121711100Y-111202971D01*
X130155821Y-111202971D01*
X130313058Y-111583515D01*
X130603954Y-111874919D01*
X130984223Y-112032820D01*
X131395971Y-112033179D01*
X131776515Y-111875942D01*
X132067919Y-111585046D01*
X132225820Y-111204777D01*
X132226179Y-110793029D01*
X132068942Y-110412485D01*
X131778046Y-110121081D01*
X131397777Y-109963180D01*
X130986029Y-109962821D01*
X130605485Y-110120058D01*
X130314081Y-110410954D01*
X130156180Y-110791223D01*
X130155821Y-111202971D01*
X121711100Y-111202971D01*
X121711100Y-109199730D01*
X122027963Y-109516593D01*
X122027821Y-109678971D01*
X122185058Y-110059515D01*
X122475954Y-110350919D01*
X122856223Y-110508820D01*
X123267971Y-110509179D01*
X123648515Y-110351942D01*
X123939919Y-110061046D01*
X124097820Y-109680777D01*
X124098179Y-109269029D01*
X124057663Y-109170971D01*
X125583821Y-109170971D01*
X125741058Y-109551515D01*
X126031954Y-109842919D01*
X126412223Y-110000820D01*
X126823971Y-110001179D01*
X126989047Y-109932971D01*
X139680821Y-109932971D01*
X139838058Y-110313515D01*
X140128954Y-110604919D01*
X140509223Y-110762820D01*
X140920971Y-110763179D01*
X141301515Y-110605942D01*
X141592919Y-110315046D01*
X141750820Y-109934777D01*
X141750821Y-109932971D01*
X144887821Y-109932971D01*
X145045058Y-110313515D01*
X145335954Y-110604919D01*
X145716223Y-110762820D01*
X146127971Y-110763179D01*
X146508515Y-110605942D01*
X146799919Y-110315046D01*
X146957820Y-109934777D01*
X146957821Y-109932971D01*
X150094821Y-109932971D01*
X150252058Y-110313515D01*
X150542954Y-110604919D01*
X150923223Y-110762820D01*
X151334971Y-110763179D01*
X151715515Y-110605942D01*
X152006919Y-110315046D01*
X152164820Y-109934777D01*
X152164821Y-109932971D01*
X155301821Y-109932971D01*
X155459058Y-110313515D01*
X155749954Y-110604919D01*
X156130223Y-110762820D01*
X156541971Y-110763179D01*
X156922515Y-110605942D01*
X157213919Y-110315046D01*
X157371820Y-109934777D01*
X157371821Y-109932971D01*
X160508821Y-109932971D01*
X160666058Y-110313515D01*
X160956954Y-110604919D01*
X161337223Y-110762820D01*
X161748971Y-110763179D01*
X162129515Y-110605942D01*
X162420919Y-110315046D01*
X162578820Y-109934777D01*
X162578821Y-109932971D01*
X165715821Y-109932971D01*
X165873058Y-110313515D01*
X166163954Y-110604919D01*
X166544223Y-110762820D01*
X166955971Y-110763179D01*
X167336515Y-110605942D01*
X167627919Y-110315046D01*
X167785820Y-109934777D01*
X167786043Y-109678971D01*
X168509821Y-109678971D01*
X168667058Y-110059515D01*
X168957954Y-110350919D01*
X169338223Y-110508820D01*
X169749971Y-110509179D01*
X170130515Y-110351942D01*
X170421919Y-110061046D01*
X170499563Y-109874057D01*
X170638971Y-109874179D01*
X171019515Y-109716942D01*
X171310919Y-109426046D01*
X171468820Y-109045777D01*
X171469179Y-108634029D01*
X171311942Y-108253485D01*
X171021046Y-107962081D01*
X170640777Y-107804180D01*
X170229029Y-107803821D01*
X169848485Y-107961058D01*
X169557081Y-108251954D01*
X169479437Y-108438943D01*
X169340029Y-108438821D01*
X168959485Y-108596058D01*
X168668081Y-108886954D01*
X168510180Y-109267223D01*
X168509821Y-109678971D01*
X167786043Y-109678971D01*
X167786179Y-109523029D01*
X167628942Y-109142485D01*
X167338046Y-108851081D01*
X166957777Y-108693180D01*
X166546029Y-108692821D01*
X166165485Y-108850058D01*
X165874081Y-109140954D01*
X165716180Y-109521223D01*
X165715821Y-109932971D01*
X162578821Y-109932971D01*
X162579179Y-109523029D01*
X162421942Y-109142485D01*
X162131046Y-108851081D01*
X161750777Y-108693180D01*
X161339029Y-108692821D01*
X160958485Y-108850058D01*
X160667081Y-109140954D01*
X160509180Y-109521223D01*
X160508821Y-109932971D01*
X157371821Y-109932971D01*
X157372179Y-109523029D01*
X157214942Y-109142485D01*
X156924046Y-108851081D01*
X156543777Y-108693180D01*
X156132029Y-108692821D01*
X155751485Y-108850058D01*
X155460081Y-109140954D01*
X155302180Y-109521223D01*
X155301821Y-109932971D01*
X152164821Y-109932971D01*
X152165179Y-109523029D01*
X152007942Y-109142485D01*
X151717046Y-108851081D01*
X151336777Y-108693180D01*
X150925029Y-108692821D01*
X150544485Y-108850058D01*
X150253081Y-109140954D01*
X150095180Y-109521223D01*
X150094821Y-109932971D01*
X146957821Y-109932971D01*
X146958179Y-109523029D01*
X146800942Y-109142485D01*
X146510046Y-108851081D01*
X146129777Y-108693180D01*
X145718029Y-108692821D01*
X145337485Y-108850058D01*
X145046081Y-109140954D01*
X144888180Y-109521223D01*
X144887821Y-109932971D01*
X141750821Y-109932971D01*
X141751179Y-109523029D01*
X141593942Y-109142485D01*
X141303046Y-108851081D01*
X140922777Y-108693180D01*
X140511029Y-108692821D01*
X140130485Y-108850058D01*
X139839081Y-109140954D01*
X139681180Y-109521223D01*
X139680821Y-109932971D01*
X126989047Y-109932971D01*
X127204515Y-109843942D01*
X127495919Y-109553046D01*
X127652073Y-109176984D01*
X127682954Y-109207919D01*
X128063223Y-109365820D01*
X128474971Y-109366179D01*
X128855515Y-109208942D01*
X129146919Y-108918046D01*
X129304820Y-108537777D01*
X129305179Y-108126029D01*
X129147942Y-107745485D01*
X128857046Y-107454081D01*
X128476777Y-107296180D01*
X128065029Y-107295821D01*
X127684485Y-107453058D01*
X127393081Y-107743954D01*
X127236927Y-108120016D01*
X127206046Y-108089081D01*
X126825777Y-107931180D01*
X126414029Y-107930821D01*
X126033485Y-108088058D01*
X125742081Y-108378954D01*
X125584180Y-108759223D01*
X125583821Y-109170971D01*
X124057663Y-109170971D01*
X124032874Y-109110979D01*
X124410515Y-108954942D01*
X124701919Y-108664046D01*
X124859820Y-108283777D01*
X124860179Y-107872029D01*
X124702942Y-107491485D01*
X124412046Y-107200081D01*
X124031777Y-107042180D01*
X123620029Y-107041821D01*
X123239485Y-107199058D01*
X122948081Y-107489954D01*
X122936000Y-107519048D01*
X122936000Y-102185971D01*
X124059821Y-102185971D01*
X124217058Y-102566515D01*
X124507954Y-102857919D01*
X124888223Y-103015820D01*
X125299971Y-103016179D01*
X125680515Y-102858942D01*
X125971919Y-102568046D01*
X126025100Y-102439971D01*
X126726821Y-102439971D01*
X126884058Y-102820515D01*
X127174954Y-103111919D01*
X127555223Y-103269820D01*
X127966971Y-103270179D01*
X128347515Y-103112942D01*
X128638919Y-102822046D01*
X128732627Y-102596371D01*
X128825223Y-102634820D01*
X129236971Y-102635179D01*
X129267105Y-102622728D01*
X129266821Y-102947971D01*
X129424058Y-103328515D01*
X129714954Y-103619919D01*
X130095223Y-103777820D01*
X130506971Y-103778179D01*
X130887515Y-103620942D01*
X131178919Y-103330046D01*
X131336820Y-102949777D01*
X131337179Y-102538029D01*
X131179942Y-102157485D01*
X130889046Y-101866081D01*
X130508777Y-101708180D01*
X130097029Y-101707821D01*
X130066895Y-101720272D01*
X130067179Y-101395029D01*
X129909942Y-101014485D01*
X129619046Y-100723081D01*
X129238777Y-100565180D01*
X128827029Y-100564821D01*
X128446485Y-100722058D01*
X128155081Y-101012954D01*
X128061373Y-101238629D01*
X127968777Y-101200180D01*
X127557029Y-101199821D01*
X127176485Y-101357058D01*
X126885081Y-101647954D01*
X126727180Y-102028223D01*
X126726821Y-102439971D01*
X126025100Y-102439971D01*
X126129820Y-102187777D01*
X126130179Y-101776029D01*
X125972942Y-101395485D01*
X125682046Y-101104081D01*
X125301777Y-100946180D01*
X124890029Y-100945821D01*
X124509485Y-101103058D01*
X124218081Y-101393954D01*
X124060180Y-101774223D01*
X124059821Y-102185971D01*
X122936000Y-102185971D01*
X122936000Y-101112742D01*
X123237223Y-101237820D01*
X123648971Y-101238179D01*
X124029515Y-101080942D01*
X124320919Y-100790046D01*
X124324668Y-100781017D01*
X124507223Y-100856820D01*
X124918971Y-100857179D01*
X125299515Y-100699942D01*
X125590919Y-100409046D01*
X125748820Y-100028777D01*
X125748984Y-99840906D01*
X126061971Y-99841179D01*
X126442515Y-99683942D01*
X126558659Y-99568000D01*
X130228523Y-99568000D01*
X130156180Y-99742223D01*
X130155821Y-100153971D01*
X130313058Y-100534515D01*
X130603954Y-100825919D01*
X130984223Y-100983820D01*
X131395971Y-100984179D01*
X131776515Y-100826942D01*
X132067919Y-100536046D01*
X132225820Y-100155777D01*
X132226179Y-99744029D01*
X132153446Y-99568000D01*
X134680341Y-99568000D01*
X134505081Y-99742954D01*
X134347180Y-100123223D01*
X134346821Y-100534971D01*
X134504058Y-100915515D01*
X134794954Y-101206919D01*
X135175223Y-101364820D01*
X135586971Y-101365179D01*
X135967515Y-101207942D01*
X136258919Y-100917046D01*
X136416820Y-100536777D01*
X136417179Y-100125029D01*
X136259942Y-99744485D01*
X136083765Y-99568000D01*
X136209370Y-99568000D01*
X137033000Y-100391631D01*
X137033000Y-100898235D01*
X136918081Y-101012954D01*
X136760180Y-101393223D01*
X136759821Y-101804971D01*
X136917058Y-102185515D01*
X137207954Y-102476919D01*
X137588223Y-102634820D01*
X137930491Y-102635118D01*
X137878330Y-102669971D01*
X137668000Y-102984752D01*
X137457670Y-102669971D01*
X136971489Y-102345115D01*
X136398000Y-102231041D01*
X135824511Y-102345115D01*
X135338330Y-102669971D01*
X135329195Y-102683642D01*
X135324762Y-102660083D01*
X135185690Y-102443959D01*
X134973490Y-102298969D01*
X134721600Y-102247960D01*
X132994400Y-102247960D01*
X132759083Y-102292238D01*
X132542959Y-102431310D01*
X132397969Y-102643510D01*
X132346960Y-102895400D01*
X132346960Y-104267000D01*
X127762000Y-104267000D01*
X127470396Y-104325003D01*
X127223185Y-104490184D01*
X125941518Y-105771852D01*
X125906029Y-105771821D01*
X125525485Y-105929058D01*
X125234081Y-106219954D01*
X125076180Y-106600223D01*
X125075821Y-107011971D01*
X125233058Y-107392515D01*
X125523954Y-107683919D01*
X125904223Y-107841820D01*
X126315971Y-107842179D01*
X126696515Y-107684942D01*
X126987919Y-107394046D01*
X127145820Y-107013777D01*
X127146074Y-106722556D01*
X128077631Y-105791000D01*
X132454608Y-105791000D01*
X132359400Y-106269641D01*
X132359400Y-106328359D01*
X132473474Y-106901848D01*
X132798330Y-107388029D01*
X133284511Y-107712885D01*
X133481228Y-107752014D01*
X133362081Y-107870954D01*
X133204180Y-108251223D01*
X133203821Y-108662971D01*
X133361058Y-109043515D01*
X133651954Y-109334919D01*
X134032223Y-109492820D01*
X134443971Y-109493179D01*
X134824515Y-109335942D01*
X135115919Y-109045046D01*
X135273820Y-108664777D01*
X135274179Y-108253029D01*
X135116942Y-107872485D01*
X134826046Y-107581081D01*
X134704365Y-107530555D01*
X134917670Y-107388029D01*
X135128000Y-107073248D01*
X135338330Y-107388029D01*
X135824511Y-107712885D01*
X136398000Y-107826959D01*
X136971489Y-107712885D01*
X137457670Y-107388029D01*
X137668000Y-107073248D01*
X137878330Y-107388029D01*
X138364511Y-107712885D01*
X138938000Y-107826959D01*
X139511489Y-107712885D01*
X139997670Y-107388029D01*
X140208000Y-107073248D01*
X140418330Y-107388029D01*
X140904511Y-107712885D01*
X141478000Y-107826959D01*
X142051489Y-107712885D01*
X142537670Y-107388029D01*
X142748000Y-107073248D01*
X142958330Y-107388029D01*
X143010679Y-107423007D01*
X142797029Y-107422821D01*
X142416485Y-107580058D01*
X142125081Y-107870954D01*
X141967180Y-108251223D01*
X141966821Y-108662971D01*
X142124058Y-109043515D01*
X142414954Y-109334919D01*
X142795223Y-109492820D01*
X143206971Y-109493179D01*
X143587515Y-109335942D01*
X143878919Y-109045046D01*
X144036820Y-108664777D01*
X144037179Y-108253029D01*
X143879942Y-107872485D01*
X143789030Y-107781414D01*
X144018000Y-107826959D01*
X144591489Y-107712885D01*
X145077670Y-107388029D01*
X145288000Y-107073248D01*
X145498330Y-107388029D01*
X145984511Y-107712885D01*
X146558000Y-107826959D01*
X147066000Y-107725912D01*
X147066000Y-108077000D01*
X147124004Y-108368605D01*
X147174012Y-108443448D01*
X147173821Y-108662971D01*
X147331058Y-109043515D01*
X147621954Y-109334919D01*
X148002223Y-109492820D01*
X148413971Y-109493179D01*
X148794515Y-109335942D01*
X149085919Y-109045046D01*
X149243820Y-108664777D01*
X149244179Y-108253029D01*
X149086942Y-107872485D01*
X149027496Y-107812935D01*
X149098000Y-107826959D01*
X149671489Y-107712885D01*
X150157670Y-107388029D01*
X150368000Y-107073248D01*
X150578330Y-107388029D01*
X151064511Y-107712885D01*
X151638000Y-107826959D01*
X152211489Y-107712885D01*
X152697670Y-107388029D01*
X152908000Y-107073248D01*
X153118330Y-107388029D01*
X153185924Y-107433194D01*
X152830485Y-107580058D01*
X152539081Y-107870954D01*
X152381180Y-108251223D01*
X152380821Y-108662971D01*
X152538058Y-109043515D01*
X152828954Y-109334919D01*
X153209223Y-109492820D01*
X153620971Y-109493179D01*
X154001515Y-109335942D01*
X154292919Y-109045046D01*
X154450820Y-108664777D01*
X154451179Y-108253029D01*
X154293942Y-107872485D01*
X154236816Y-107815260D01*
X154751489Y-107712885D01*
X155237670Y-107388029D01*
X155448000Y-107073248D01*
X155658330Y-107388029D01*
X156144511Y-107712885D01*
X156718000Y-107826959D01*
X157291489Y-107712885D01*
X157777670Y-107388029D01*
X157988000Y-107073248D01*
X158064582Y-107187862D01*
X158037485Y-107199058D01*
X157746081Y-107489954D01*
X157588180Y-107870223D01*
X157587821Y-108281971D01*
X157745058Y-108662515D01*
X158035954Y-108953919D01*
X158416223Y-109111820D01*
X158827971Y-109112179D01*
X159208515Y-108954942D01*
X159499919Y-108664046D01*
X159657820Y-108283777D01*
X159658179Y-107872029D01*
X159610579Y-107756827D01*
X159831489Y-107712885D01*
X160317670Y-107388029D01*
X160528000Y-107073248D01*
X160738330Y-107388029D01*
X161224511Y-107712885D01*
X161798000Y-107826959D01*
X162371489Y-107712885D01*
X162857670Y-107388029D01*
X163068000Y-107073248D01*
X163278330Y-107388029D01*
X163764511Y-107712885D01*
X164338000Y-107826959D01*
X164911489Y-107712885D01*
X165397670Y-107388029D01*
X165722526Y-106901848D01*
X165836600Y-106328359D01*
X165836600Y-106269641D01*
X165722526Y-105696152D01*
X165397670Y-105209971D01*
X165126828Y-105029000D01*
X165397670Y-104848029D01*
X165722526Y-104361848D01*
X165836600Y-103788359D01*
X165836600Y-103729641D01*
X165722526Y-103156152D01*
X165397670Y-102669971D01*
X164922323Y-102352354D01*
X165036663Y-102238212D01*
X165274954Y-102476919D01*
X165655223Y-102634820D01*
X166066971Y-102635179D01*
X166447515Y-102477942D01*
X166738919Y-102187046D01*
X166751000Y-102157952D01*
X166751000Y-102616000D01*
X166809004Y-102907605D01*
X166878000Y-103010864D01*
X166878000Y-103184235D01*
X166763081Y-103298954D01*
X166605180Y-103679223D01*
X166604821Y-104090971D01*
X166762058Y-104471515D01*
X167052954Y-104762919D01*
X167433223Y-104920820D01*
X167844971Y-104921179D01*
X168218220Y-104766956D01*
X168244185Y-104805815D01*
X168656000Y-105217631D01*
X168656000Y-105978235D01*
X168541081Y-106092954D01*
X168383180Y-106473223D01*
X168382821Y-106884971D01*
X168540058Y-107265515D01*
X168830954Y-107556919D01*
X169211223Y-107714820D01*
X169622971Y-107715179D01*
X170003515Y-107557942D01*
X170294919Y-107267046D01*
X170452820Y-106886777D01*
X170453179Y-106475029D01*
X170295942Y-106094485D01*
X170180000Y-105978341D01*
X170180000Y-104902000D01*
X170179802Y-104901003D01*
X170511515Y-104763942D01*
X170802919Y-104473046D01*
X170960820Y-104092777D01*
X170961179Y-103681029D01*
X170803942Y-103300485D01*
X170688000Y-103184341D01*
X170688000Y-102997000D01*
X170637850Y-102744877D01*
X170657185Y-102773815D01*
X171196000Y-103312631D01*
X171196000Y-106613235D01*
X171081081Y-106727954D01*
X170923180Y-107108223D01*
X170922821Y-107519971D01*
X171080058Y-107900515D01*
X171370954Y-108191919D01*
X171751223Y-108349820D01*
X172162971Y-108350179D01*
X172543515Y-108192942D01*
X172834919Y-107902046D01*
X172992820Y-107521777D01*
X172993179Y-107110029D01*
X172835942Y-106729485D01*
X172720000Y-106613341D01*
X172720000Y-102997000D01*
X172661996Y-102705395D01*
X172638717Y-102670556D01*
X172797515Y-102604942D01*
X173088919Y-102314046D01*
X173246820Y-101933777D01*
X173247179Y-101522029D01*
X173089942Y-101141485D01*
X172974000Y-101025341D01*
X172974000Y-99568000D01*
X172915996Y-99276395D01*
X172750815Y-99029185D01*
X170591815Y-96870185D01*
X170558083Y-96847646D01*
X170344605Y-96705004D01*
X170053000Y-96647000D01*
X163642765Y-96647000D01*
X163528046Y-96532081D01*
X163147777Y-96374180D01*
X162736029Y-96373821D01*
X162355485Y-96531058D01*
X162064081Y-96821954D01*
X161906180Y-97202223D01*
X161906000Y-97409000D01*
X158435765Y-97409000D01*
X158321046Y-97294081D01*
X157940777Y-97136180D01*
X157529029Y-97135821D01*
X157148485Y-97293058D01*
X156857081Y-97583954D01*
X156699180Y-97964223D01*
X156699000Y-98171000D01*
X152212765Y-98171000D01*
X152098046Y-98056081D01*
X151717777Y-97898180D01*
X151306029Y-97897821D01*
X150925485Y-98055058D01*
X150634081Y-98345954D01*
X150476180Y-98726223D01*
X150476000Y-98933000D01*
X147762630Y-98933000D01*
X147593037Y-98763407D01*
X147593179Y-98601029D01*
X147435942Y-98220485D01*
X147145046Y-97929081D01*
X146764777Y-97771180D01*
X146353029Y-97770821D01*
X145972485Y-97928058D01*
X145681081Y-98218954D01*
X145523180Y-98599223D01*
X145522821Y-99010971D01*
X145680058Y-99391515D01*
X145970954Y-99682919D01*
X146000048Y-99695000D01*
X144145000Y-99695000D01*
X143853395Y-99753004D01*
X143606185Y-99918185D01*
X142959407Y-100564963D01*
X142797029Y-100564821D01*
X142416485Y-100722058D01*
X142125081Y-101012954D01*
X141967180Y-101393223D01*
X141966821Y-101804971D01*
X142124058Y-102185515D01*
X142414954Y-102476919D01*
X142795223Y-102634820D01*
X143010656Y-102635008D01*
X142958330Y-102669971D01*
X142748000Y-102984752D01*
X142537670Y-102669971D01*
X142051489Y-102345115D01*
X141478000Y-102231041D01*
X140904511Y-102345115D01*
X140418330Y-102669971D01*
X140208000Y-102984752D01*
X139997670Y-102669971D01*
X139833023Y-102559957D01*
X140031515Y-102477942D01*
X140322919Y-102187046D01*
X140480820Y-101806777D01*
X140481179Y-101395029D01*
X140323942Y-101014485D01*
X140033046Y-100723081D01*
X139652777Y-100565180D01*
X139241029Y-100564821D01*
X138860485Y-100722058D01*
X138620337Y-100961788D01*
X138557000Y-100898341D01*
X138557000Y-100076000D01*
X138498996Y-99784395D01*
X138471306Y-99742954D01*
X138333815Y-99537184D01*
X137063815Y-98267185D01*
X137006673Y-98229004D01*
X136816605Y-98102004D01*
X136525000Y-98044000D01*
X126558765Y-98044000D01*
X126444046Y-97929081D01*
X126063777Y-97771180D01*
X125652029Y-97770821D01*
X125271485Y-97928058D01*
X124980081Y-98218954D01*
X124822180Y-98599223D01*
X124822016Y-98787094D01*
X124509029Y-98786821D01*
X124128485Y-98944058D01*
X123837081Y-99234954D01*
X123833332Y-99243983D01*
X123650777Y-99168180D01*
X123239029Y-99167821D01*
X122936000Y-99293030D01*
X122936000Y-98740630D01*
X124140631Y-97536000D01*
X130743235Y-97536000D01*
X130857954Y-97650919D01*
X131238223Y-97808820D01*
X131649971Y-97809179D01*
X132030515Y-97651942D01*
X132321919Y-97361046D01*
X132479820Y-96980777D01*
X132480179Y-96569029D01*
X132322942Y-96188485D01*
X132032046Y-95897081D01*
X131651777Y-95739180D01*
X131240029Y-95738821D01*
X130859485Y-95896058D01*
X130743341Y-96012000D01*
X123825000Y-96012000D01*
X123533396Y-96070003D01*
X123286185Y-96235184D01*
X121711100Y-97810270D01*
X121711100Y-97573531D01*
X122431110Y-93953795D01*
X124441914Y-90944413D01*
X127451293Y-88933611D01*
X131071031Y-88213600D01*
X165931169Y-88213600D01*
X169550905Y-88933610D01*
X169550905Y-88933610D01*
G37*
X169550905Y-88933610D02*
X172560287Y-90944414D01*
X174571089Y-93953793D01*
X175291100Y-97573531D01*
X175291100Y-98267610D01*
X175290816Y-98267185D01*
X174752000Y-97728370D01*
X174752000Y-95631000D01*
X174693996Y-95339395D01*
X174528815Y-95092185D01*
X171268659Y-91832029D01*
X171274729Y-91825970D01*
X171487857Y-91312700D01*
X171488342Y-90756939D01*
X171276110Y-90243297D01*
X170883470Y-89849971D01*
X170370200Y-89636843D01*
X169814439Y-89636358D01*
X169300797Y-89848590D01*
X168907471Y-90241230D01*
X168821151Y-90449112D01*
X168736110Y-90243297D01*
X168343470Y-89849971D01*
X167830200Y-89636843D01*
X167274439Y-89636358D01*
X166950720Y-89770116D01*
X166946996Y-89751395D01*
X166870455Y-89636843D01*
X166781815Y-89504184D01*
X166273815Y-88996185D01*
X166221401Y-88961163D01*
X166026605Y-88831004D01*
X165735000Y-88773000D01*
X149291765Y-88773000D01*
X149177046Y-88658081D01*
X148796777Y-88500180D01*
X148385029Y-88499821D01*
X148004485Y-88657058D01*
X147713081Y-88947954D01*
X147555180Y-89328223D01*
X147554895Y-89655402D01*
X147510200Y-89636843D01*
X146954439Y-89636358D01*
X146440797Y-89848590D01*
X146047471Y-90241230D01*
X145961151Y-90449112D01*
X145876110Y-90243297D01*
X145483470Y-89849971D01*
X144970200Y-89636843D01*
X144414439Y-89636358D01*
X143900797Y-89848590D01*
X143507471Y-90241230D01*
X143421151Y-90449112D01*
X143336110Y-90243297D01*
X142943470Y-89849971D01*
X142430200Y-89636843D01*
X141874439Y-89636358D01*
X141360797Y-89848590D01*
X140967471Y-90241230D01*
X140881151Y-90449112D01*
X140796110Y-90243297D01*
X140403470Y-89849971D01*
X139890200Y-89636843D01*
X139334439Y-89636358D01*
X138820797Y-89848590D01*
X138427471Y-90241230D01*
X138341151Y-90449112D01*
X138256110Y-90243297D01*
X137863470Y-89849971D01*
X137350200Y-89636843D01*
X136794439Y-89636358D01*
X136280797Y-89848590D01*
X135887471Y-90241230D01*
X135801151Y-90449112D01*
X135716110Y-90243297D01*
X135323470Y-89849971D01*
X134810200Y-89636843D01*
X134254439Y-89636358D01*
X133740797Y-89848590D01*
X133347471Y-90241230D01*
X133261151Y-90449112D01*
X133176110Y-90243297D01*
X132783470Y-89849971D01*
X132270200Y-89636843D01*
X131714439Y-89636358D01*
X131200797Y-89848590D01*
X130807471Y-90241230D01*
X130721151Y-90449112D01*
X130636110Y-90243297D01*
X130243470Y-89849971D01*
X129730200Y-89636843D01*
X129174439Y-89636358D01*
X128660797Y-89848590D01*
X128267471Y-90241230D01*
X128181151Y-90449112D01*
X128096110Y-90243297D01*
X127703470Y-89849971D01*
X127190200Y-89636843D01*
X126634439Y-89636358D01*
X126120797Y-89848590D01*
X125727471Y-90241230D01*
X125514343Y-90754500D01*
X125513858Y-91310261D01*
X125726090Y-91823903D01*
X126078933Y-92177363D01*
X125913783Y-92208438D01*
X125697659Y-92347510D01*
X125552669Y-92559710D01*
X125501660Y-92811600D01*
X125501660Y-94335600D01*
X125545938Y-94570917D01*
X125685010Y-94787041D01*
X125897210Y-94932031D01*
X126149100Y-94983040D01*
X127673100Y-94983040D01*
X127908417Y-94938762D01*
X128124541Y-94799690D01*
X128269531Y-94587490D01*
X128306592Y-94404476D01*
X128658730Y-94757229D01*
X129172000Y-94970357D01*
X129727761Y-94970842D01*
X130241403Y-94758610D01*
X130634729Y-94365970D01*
X130721049Y-94158088D01*
X130806090Y-94363903D01*
X131198730Y-94757229D01*
X131712000Y-94970357D01*
X132267761Y-94970842D01*
X132781403Y-94758610D01*
X133174729Y-94365970D01*
X133261049Y-94158088D01*
X133346090Y-94363903D01*
X133738730Y-94757229D01*
X134252000Y-94970357D01*
X134807761Y-94970842D01*
X135321403Y-94758610D01*
X135714729Y-94365970D01*
X135801049Y-94158088D01*
X135886090Y-94363903D01*
X136278730Y-94757229D01*
X136792000Y-94970357D01*
X137347761Y-94970842D01*
X137861403Y-94758610D01*
X138254729Y-94365970D01*
X138341049Y-94158088D01*
X138426090Y-94363903D01*
X138818730Y-94757229D01*
X139332000Y-94970357D01*
X139887761Y-94970842D01*
X140401403Y-94758610D01*
X140606557Y-94553813D01*
X141350492Y-94553813D01*
X141419957Y-94795997D01*
X141943402Y-94982744D01*
X142498468Y-94954962D01*
X142882243Y-94795997D01*
X142951708Y-94553813D01*
X142151100Y-93753205D01*
X141350492Y-94553813D01*
X140606557Y-94553813D01*
X140794729Y-94365970D01*
X140874495Y-94173873D01*
X140928703Y-94304743D01*
X141170887Y-94374208D01*
X141971495Y-93573600D01*
X141170887Y-92772992D01*
X140928703Y-92842457D01*
X140878591Y-92982918D01*
X140796110Y-92783297D01*
X140403470Y-92389971D01*
X140195588Y-92303651D01*
X140401403Y-92218610D01*
X140794729Y-91825970D01*
X140881049Y-91618088D01*
X140966090Y-91823903D01*
X141358730Y-92217229D01*
X141550827Y-92296995D01*
X141419957Y-92351203D01*
X141350492Y-92593387D01*
X142151100Y-93393995D01*
X142951708Y-92593387D01*
X142882243Y-92351203D01*
X142741782Y-92301091D01*
X142941403Y-92218610D01*
X143334729Y-91825970D01*
X143421049Y-91618088D01*
X143506090Y-91823903D01*
X143898730Y-92217229D01*
X144106612Y-92303549D01*
X143900797Y-92388590D01*
X143507471Y-92781230D01*
X143427705Y-92973327D01*
X143373497Y-92842457D01*
X143131313Y-92772992D01*
X142330705Y-93573600D01*
X143131313Y-94374208D01*
X143373497Y-94304743D01*
X143423609Y-94164282D01*
X143506090Y-94363903D01*
X143898730Y-94757229D01*
X144412000Y-94970357D01*
X144967761Y-94970842D01*
X145481403Y-94758610D01*
X145874729Y-94365970D01*
X145961049Y-94158088D01*
X146046090Y-94363903D01*
X146438730Y-94757229D01*
X146952000Y-94970357D01*
X147507761Y-94970842D01*
X148021403Y-94758610D01*
X148414729Y-94365970D01*
X148501049Y-94158088D01*
X148586090Y-94363903D01*
X148978730Y-94757229D01*
X149492000Y-94970357D01*
X150047761Y-94970842D01*
X150561403Y-94758610D01*
X150954729Y-94365970D01*
X151041049Y-94158088D01*
X151126090Y-94363903D01*
X151518730Y-94757229D01*
X152032000Y-94970357D01*
X152587761Y-94970842D01*
X153101403Y-94758610D01*
X153494729Y-94365970D01*
X153581049Y-94158088D01*
X153666090Y-94363903D01*
X154058730Y-94757229D01*
X154572000Y-94970357D01*
X155127761Y-94970842D01*
X155641403Y-94758610D01*
X156034729Y-94365970D01*
X156121049Y-94158088D01*
X156206090Y-94363903D01*
X156598730Y-94757229D01*
X157112000Y-94970357D01*
X157667761Y-94970842D01*
X158181403Y-94758610D01*
X158574729Y-94365970D01*
X158661049Y-94158088D01*
X158746090Y-94363903D01*
X159138730Y-94757229D01*
X159652000Y-94970357D01*
X160207761Y-94970842D01*
X160721403Y-94758610D01*
X161114729Y-94365970D01*
X161201049Y-94158088D01*
X161286090Y-94363903D01*
X161678730Y-94757229D01*
X162192000Y-94970357D01*
X162747761Y-94970842D01*
X163261403Y-94758610D01*
X163654729Y-94365970D01*
X163741049Y-94158088D01*
X163826090Y-94363903D01*
X164218730Y-94757229D01*
X164732000Y-94970357D01*
X165287761Y-94970842D01*
X165801403Y-94758610D01*
X166194729Y-94365970D01*
X166281049Y-94158088D01*
X166366090Y-94363903D01*
X166758730Y-94757229D01*
X167272000Y-94970357D01*
X167827761Y-94970842D01*
X168341403Y-94758610D01*
X168734729Y-94365970D01*
X168821049Y-94158088D01*
X168906090Y-94363903D01*
X169298730Y-94757229D01*
X169812000Y-94970357D01*
X170367761Y-94970842D01*
X170881403Y-94758610D01*
X171274729Y-94365970D01*
X171384055Y-94102685D01*
X173228000Y-95946630D01*
X173228000Y-98044000D01*
X173286004Y-98335605D01*
X173370863Y-98462605D01*
X173451185Y-98582815D01*
X173990000Y-99121631D01*
X173990000Y-102851110D01*
X173658029Y-102850821D01*
X173277485Y-103008058D01*
X172986081Y-103298954D01*
X172828180Y-103679223D01*
X172827821Y-104090971D01*
X172985058Y-104471515D01*
X173275954Y-104762919D01*
X173656223Y-104920820D01*
X173990000Y-104921111D01*
X173990000Y-108269370D01*
X173820407Y-108438963D01*
X173658029Y-108438821D01*
X173277485Y-108596058D01*
X172986081Y-108886954D01*
X172828180Y-109267223D01*
X172827821Y-109678971D01*
X172985058Y-110059515D01*
X173275954Y-110350919D01*
X173656223Y-110508820D01*
X174067971Y-110509179D01*
X174448515Y-110351942D01*
X174739919Y-110061046D01*
X174897820Y-109680777D01*
X174897963Y-109516667D01*
X175290815Y-109123815D01*
X175291100Y-109123388D01*
X175291100Y-112433669D01*
X174571089Y-116053407D01*
X172560287Y-119062786D01*
X169550905Y-121073590D01*
X165931169Y-121793600D01*
X131071031Y-121793600D01*
X127451293Y-121073589D01*
X126417813Y-120383040D01*
X127673100Y-120383040D01*
X127908417Y-120338762D01*
X128124541Y-120199690D01*
X128269531Y-119987490D01*
X128306592Y-119804476D01*
X128658730Y-120157229D01*
X129172000Y-120370357D01*
X129727761Y-120370842D01*
X130241403Y-120158610D01*
X130634729Y-119765970D01*
X130721049Y-119558088D01*
X130806090Y-119763903D01*
X130836708Y-119794574D01*
X130695081Y-119935954D01*
X130537180Y-120316223D01*
X130536821Y-120727971D01*
X130694058Y-121108515D01*
X130984954Y-121399919D01*
X131365223Y-121557820D01*
X131776971Y-121558179D01*
X132157515Y-121400942D01*
X132448919Y-121110046D01*
X132606820Y-120729777D01*
X132607179Y-120318029D01*
X132576321Y-120243348D01*
X132781403Y-120158610D01*
X133174729Y-119765970D01*
X133261049Y-119558088D01*
X133346090Y-119763903D01*
X133738730Y-120157229D01*
X134252000Y-120370357D01*
X134807761Y-120370842D01*
X135321403Y-120158610D01*
X135714729Y-119765970D01*
X135801049Y-119558088D01*
X135886090Y-119763903D01*
X136278730Y-120157229D01*
X136792000Y-120370357D01*
X137347761Y-120370842D01*
X137861403Y-120158610D01*
X138254729Y-119765970D01*
X138341049Y-119558088D01*
X138426090Y-119763903D01*
X138818730Y-120157229D01*
X139332000Y-120370357D01*
X139887761Y-120370842D01*
X140401403Y-120158610D01*
X140794729Y-119765970D01*
X140881049Y-119558088D01*
X140966090Y-119763903D01*
X141358730Y-120157229D01*
X141872000Y-120370357D01*
X142427761Y-120370842D01*
X142941403Y-120158610D01*
X143334729Y-119765970D01*
X143421049Y-119558088D01*
X143506090Y-119763903D01*
X143898730Y-120157229D01*
X144412000Y-120370357D01*
X144967761Y-120370842D01*
X145481403Y-120158610D01*
X145874729Y-119765970D01*
X145961049Y-119558088D01*
X146046090Y-119763903D01*
X146438730Y-120157229D01*
X146952000Y-120370357D01*
X147507761Y-120370842D01*
X148021403Y-120158610D01*
X148414729Y-119765970D01*
X148501049Y-119558088D01*
X148586090Y-119763903D01*
X148978730Y-120157229D01*
X149492000Y-120370357D01*
X150047761Y-120370842D01*
X150482558Y-120191188D01*
X151226185Y-120934816D01*
X151374377Y-121033834D01*
X151473395Y-121099996D01*
X151765000Y-121158000D01*
X157988000Y-121158000D01*
X158279605Y-121099996D01*
X158526815Y-120934815D01*
X159161816Y-120299815D01*
X159231382Y-120195701D01*
X159652000Y-120370357D01*
X160207761Y-120370842D01*
X160721403Y-120158610D01*
X161114729Y-119765970D01*
X161201049Y-119558088D01*
X161286090Y-119763903D01*
X161678730Y-120157229D01*
X162192000Y-120370357D01*
X162747761Y-120370842D01*
X163261403Y-120158610D01*
X163654729Y-119765970D01*
X163741049Y-119558088D01*
X163826090Y-119763903D01*
X164218730Y-120157229D01*
X164732000Y-120370357D01*
X165287761Y-120370842D01*
X165801403Y-120158610D01*
X166194729Y-119765970D01*
X166281049Y-119558088D01*
X166366090Y-119763903D01*
X166758730Y-120157229D01*
X167272000Y-120370357D01*
X167827761Y-120370842D01*
X168341403Y-120158610D01*
X168734729Y-119765970D01*
X168821049Y-119558088D01*
X168906090Y-119763903D01*
X169298730Y-120157229D01*
X169812000Y-120370357D01*
X170367761Y-120370842D01*
X170881403Y-120158610D01*
X171274729Y-119765970D01*
X171487857Y-119252700D01*
X171488342Y-118696939D01*
X171276110Y-118183297D01*
X170883470Y-117789971D01*
X170675588Y-117703651D01*
X170881403Y-117618610D01*
X171274729Y-117225970D01*
X171487857Y-116712700D01*
X171488342Y-116156939D01*
X171276110Y-115643297D01*
X170883470Y-115249971D01*
X170370200Y-115036843D01*
X169814439Y-115036358D01*
X169545000Y-115147688D01*
X169545000Y-114700000D01*
X169749971Y-114700179D01*
X170130515Y-114542942D01*
X170307053Y-114366712D01*
X170481954Y-114541919D01*
X170862223Y-114699820D01*
X171273971Y-114700179D01*
X171640933Y-114548554D01*
X172005223Y-114699820D01*
X172416971Y-114700179D01*
X172797515Y-114542942D01*
X173088919Y-114252046D01*
X173246820Y-113871777D01*
X173247179Y-113460029D01*
X173089942Y-113079485D01*
X172799046Y-112788081D01*
X172418777Y-112630180D01*
X172007029Y-112629821D01*
X171640067Y-112781446D01*
X171275777Y-112630180D01*
X170864029Y-112629821D01*
X170506903Y-112777382D01*
X170579820Y-112601777D01*
X170579932Y-112472971D01*
X172827821Y-112472971D01*
X172985058Y-112853515D01*
X173275954Y-113144919D01*
X173656223Y-113302820D01*
X174067971Y-113303179D01*
X174448515Y-113145942D01*
X174739919Y-112855046D01*
X174897820Y-112474777D01*
X174898179Y-112063029D01*
X174740942Y-111682485D01*
X174450046Y-111391081D01*
X174069777Y-111233180D01*
X173658029Y-111232821D01*
X173277485Y-111390058D01*
X172986081Y-111680954D01*
X172828180Y-112061223D01*
X172827821Y-112472971D01*
X170579932Y-112472971D01*
X170580179Y-112190029D01*
X170422942Y-111809485D01*
X170132046Y-111518081D01*
X169751777Y-111360180D01*
X169340029Y-111359821D01*
X168959485Y-111517058D01*
X168668081Y-111807954D01*
X168574112Y-112034257D01*
X168294071Y-112314299D01*
X168294179Y-112190029D01*
X168136942Y-111809485D01*
X167846046Y-111518081D01*
X167465777Y-111360180D01*
X167054029Y-111359821D01*
X166673485Y-111517058D01*
X166382081Y-111807954D01*
X166288112Y-112034257D01*
X165704185Y-112618185D01*
X165539004Y-112865395D01*
X165481000Y-113157000D01*
X165481000Y-115116070D01*
X165290200Y-115036843D01*
X164734439Y-115036358D01*
X164220797Y-115248590D01*
X163827471Y-115641230D01*
X163741151Y-115849112D01*
X163656110Y-115643297D01*
X163263470Y-115249971D01*
X162750200Y-115036843D01*
X162194439Y-115036358D01*
X161680797Y-115248590D01*
X161287471Y-115641230D01*
X161201151Y-115849112D01*
X161116110Y-115643297D01*
X160723470Y-115249971D01*
X160210200Y-115036843D01*
X159654439Y-115036358D01*
X159140797Y-115248590D01*
X158747471Y-115641230D01*
X158661151Y-115849112D01*
X158576110Y-115643297D01*
X158183470Y-115249971D01*
X157670200Y-115036843D01*
X157114439Y-115036358D01*
X156600797Y-115248590D01*
X156207471Y-115641230D01*
X156127705Y-115833327D01*
X156073497Y-115702457D01*
X155831313Y-115632992D01*
X155030705Y-116433600D01*
X155831313Y-117234208D01*
X156073497Y-117164743D01*
X156123609Y-117024282D01*
X156206090Y-117223903D01*
X156598730Y-117617229D01*
X156806612Y-117703549D01*
X156600797Y-117788590D01*
X156207471Y-118181230D01*
X156121151Y-118389112D01*
X156036110Y-118183297D01*
X155643470Y-117789971D01*
X155451373Y-117710205D01*
X155582243Y-117655997D01*
X155651708Y-117413813D01*
X154851100Y-116613205D01*
X154050492Y-117413813D01*
X154119957Y-117655997D01*
X154260418Y-117706109D01*
X154060797Y-117788590D01*
X153667471Y-118181230D01*
X153581151Y-118389112D01*
X153496110Y-118183297D01*
X153103470Y-117789971D01*
X152895588Y-117703651D01*
X153101403Y-117618610D01*
X153494729Y-117225970D01*
X153574495Y-117033873D01*
X153628703Y-117164743D01*
X153870887Y-117234208D01*
X154671495Y-116433600D01*
X153870887Y-115632992D01*
X153628703Y-115702457D01*
X153578591Y-115842918D01*
X153496110Y-115643297D01*
X153306532Y-115453387D01*
X154050492Y-115453387D01*
X154851100Y-116253995D01*
X155651708Y-115453387D01*
X155582243Y-115211203D01*
X155058798Y-115024456D01*
X154503732Y-115052238D01*
X154119957Y-115211203D01*
X154050492Y-115453387D01*
X153306532Y-115453387D01*
X153103470Y-115249971D01*
X152590200Y-115036843D01*
X152034439Y-115036358D01*
X151520797Y-115248590D01*
X151127471Y-115641230D01*
X151041151Y-115849112D01*
X150956110Y-115643297D01*
X150563470Y-115249971D01*
X150050200Y-115036843D01*
X149494439Y-115036358D01*
X148980797Y-115248590D01*
X148587471Y-115641230D01*
X148501151Y-115849112D01*
X148416110Y-115643297D01*
X148023470Y-115249971D01*
X147510200Y-115036843D01*
X146954439Y-115036358D01*
X146440797Y-115248590D01*
X146047471Y-115641230D01*
X145961151Y-115849112D01*
X145876110Y-115643297D01*
X145483470Y-115249971D01*
X144970200Y-115036843D01*
X144414439Y-115036358D01*
X143900797Y-115248590D01*
X143507471Y-115641230D01*
X143421151Y-115849112D01*
X143336110Y-115643297D01*
X142943470Y-115249971D01*
X142430200Y-115036843D01*
X141874439Y-115036358D01*
X141360797Y-115248590D01*
X140967471Y-115641230D01*
X140881151Y-115849112D01*
X140796110Y-115643297D01*
X140403470Y-115249971D01*
X139890200Y-115036843D01*
X139334439Y-115036358D01*
X138820797Y-115248590D01*
X138427471Y-115641230D01*
X138341151Y-115849112D01*
X138256110Y-115643297D01*
X137863470Y-115249971D01*
X137350200Y-115036843D01*
X136794439Y-115036358D01*
X136280797Y-115248590D01*
X135887471Y-115641230D01*
X135801151Y-115849112D01*
X135716110Y-115643297D01*
X135323470Y-115249971D01*
X134810200Y-115036843D01*
X134254439Y-115036358D01*
X133740797Y-115248590D01*
X133347471Y-115641230D01*
X133261151Y-115849112D01*
X133176110Y-115643297D01*
X132783470Y-115249971D01*
X132270200Y-115036843D01*
X131714439Y-115036358D01*
X131200797Y-115248590D01*
X130807471Y-115641230D01*
X130721151Y-115849112D01*
X130636110Y-115643297D01*
X130243470Y-115249971D01*
X129730200Y-115036843D01*
X129174439Y-115036358D01*
X128660797Y-115248590D01*
X128267471Y-115641230D01*
X128181151Y-115849112D01*
X128096110Y-115643297D01*
X127703470Y-115249971D01*
X127190200Y-115036843D01*
X126634439Y-115036358D01*
X126120797Y-115248590D01*
X125727471Y-115641230D01*
X125514343Y-116154500D01*
X125513858Y-116710261D01*
X125726090Y-117223903D01*
X126078933Y-117577363D01*
X125913783Y-117608438D01*
X125697659Y-117747510D01*
X125552669Y-117959710D01*
X125501660Y-118211600D01*
X125501660Y-119735600D01*
X125509254Y-119775961D01*
X124441914Y-119062787D01*
X123054170Y-116985882D01*
X123394971Y-116986179D01*
X123775515Y-116828942D01*
X124066919Y-116538046D01*
X124224820Y-116157777D01*
X124225179Y-115746029D01*
X124067942Y-115365485D01*
X123777046Y-115074081D01*
X123396777Y-114916180D01*
X122985029Y-114915821D01*
X122604485Y-115073058D01*
X122313081Y-115363954D01*
X122300159Y-115395073D01*
X121946275Y-113615971D01*
X130155821Y-113615971D01*
X130313058Y-113996515D01*
X130603954Y-114287919D01*
X130984223Y-114445820D01*
X131395971Y-114446179D01*
X131776515Y-114288942D01*
X132067919Y-113998046D01*
X132225820Y-113617777D01*
X132226179Y-113206029D01*
X132068942Y-112825485D01*
X131843822Y-112599971D01*
X161397821Y-112599971D01*
X161555058Y-112980515D01*
X161845954Y-113271919D01*
X162226223Y-113429820D01*
X162637971Y-113430179D01*
X163018515Y-113272942D01*
X163309919Y-112982046D01*
X163467820Y-112601777D01*
X163468179Y-112190029D01*
X163310942Y-111809485D01*
X163020046Y-111518081D01*
X162639777Y-111360180D01*
X162228029Y-111359821D01*
X161847485Y-111517058D01*
X161556081Y-111807954D01*
X161398180Y-112188223D01*
X161397821Y-112599971D01*
X131843822Y-112599971D01*
X131778046Y-112534081D01*
X131397777Y-112376180D01*
X130986029Y-112375821D01*
X130605485Y-112533058D01*
X130314081Y-112823954D01*
X130156180Y-113204223D01*
X130155821Y-113615971D01*
X121946275Y-113615971D01*
X121744180Y-112599971D01*
X123297821Y-112599971D01*
X123455058Y-112980515D01*
X123745954Y-113271919D01*
X124126223Y-113429820D01*
X124537971Y-113430179D01*
X124918515Y-113272942D01*
X125209919Y-112982046D01*
X125315835Y-112726971D01*
X127615821Y-112726971D01*
X127773058Y-113107515D01*
X128063954Y-113398919D01*
X128444223Y-113556820D01*
X128855971Y-113557179D01*
X129236515Y-113399942D01*
X129527919Y-113109046D01*
X129685820Y-112728777D01*
X129686179Y-112317029D01*
X129528942Y-111936485D01*
X129238046Y-111645081D01*
X128857777Y-111487180D01*
X128446029Y-111486821D01*
X128065485Y-111644058D01*
X127774081Y-111934954D01*
X127616180Y-112315223D01*
X127615821Y-112726971D01*
X125315835Y-112726971D01*
X125367820Y-112601777D01*
X125368179Y-112190029D01*
X125210942Y-111809485D01*
X124920046Y-111518081D01*
X124539777Y-111360180D01*
X124128029Y-111359821D01*
X123747485Y-111517058D01*
X123456081Y-111807954D01*
X123298180Y-112188223D01*
X123297821Y-112599971D01*
X121744180Y-112599971D01*
X121711100Y-112433669D01*
X121711100Y-111202971D01*
X130155821Y-111202971D01*
X130313058Y-111583515D01*
X130603954Y-111874919D01*
X130984223Y-112032820D01*
X131395971Y-112033179D01*
X131776515Y-111875942D01*
X132067919Y-111585046D01*
X132225820Y-111204777D01*
X132226179Y-110793029D01*
X132068942Y-110412485D01*
X131778046Y-110121081D01*
X131397777Y-109963180D01*
X130986029Y-109962821D01*
X130605485Y-110120058D01*
X130314081Y-110410954D01*
X130156180Y-110791223D01*
X130155821Y-111202971D01*
X121711100Y-111202971D01*
X121711100Y-109199730D01*
X122027963Y-109516593D01*
X122027821Y-109678971D01*
X122185058Y-110059515D01*
X122475954Y-110350919D01*
X122856223Y-110508820D01*
X123267971Y-110509179D01*
X123648515Y-110351942D01*
X123939919Y-110061046D01*
X124097820Y-109680777D01*
X124098179Y-109269029D01*
X124057663Y-109170971D01*
X125583821Y-109170971D01*
X125741058Y-109551515D01*
X126031954Y-109842919D01*
X126412223Y-110000820D01*
X126823971Y-110001179D01*
X126989047Y-109932971D01*
X139680821Y-109932971D01*
X139838058Y-110313515D01*
X140128954Y-110604919D01*
X140509223Y-110762820D01*
X140920971Y-110763179D01*
X141301515Y-110605942D01*
X141592919Y-110315046D01*
X141750820Y-109934777D01*
X141750821Y-109932971D01*
X144887821Y-109932971D01*
X145045058Y-110313515D01*
X145335954Y-110604919D01*
X145716223Y-110762820D01*
X146127971Y-110763179D01*
X146508515Y-110605942D01*
X146799919Y-110315046D01*
X146957820Y-109934777D01*
X146957821Y-109932971D01*
X150094821Y-109932971D01*
X150252058Y-110313515D01*
X150542954Y-110604919D01*
X150923223Y-110762820D01*
X151334971Y-110763179D01*
X151715515Y-110605942D01*
X152006919Y-110315046D01*
X152164820Y-109934777D01*
X152164821Y-109932971D01*
X155301821Y-109932971D01*
X155459058Y-110313515D01*
X155749954Y-110604919D01*
X156130223Y-110762820D01*
X156541971Y-110763179D01*
X156922515Y-110605942D01*
X157213919Y-110315046D01*
X157371820Y-109934777D01*
X157371821Y-109932971D01*
X160508821Y-109932971D01*
X160666058Y-110313515D01*
X160956954Y-110604919D01*
X161337223Y-110762820D01*
X161748971Y-110763179D01*
X162129515Y-110605942D01*
X162420919Y-110315046D01*
X162578820Y-109934777D01*
X162578821Y-109932971D01*
X165715821Y-109932971D01*
X165873058Y-110313515D01*
X166163954Y-110604919D01*
X166544223Y-110762820D01*
X166955971Y-110763179D01*
X167336515Y-110605942D01*
X167627919Y-110315046D01*
X167785820Y-109934777D01*
X167786043Y-109678971D01*
X168509821Y-109678971D01*
X168667058Y-110059515D01*
X168957954Y-110350919D01*
X169338223Y-110508820D01*
X169749971Y-110509179D01*
X170130515Y-110351942D01*
X170421919Y-110061046D01*
X170499563Y-109874057D01*
X170638971Y-109874179D01*
X171019515Y-109716942D01*
X171310919Y-109426046D01*
X171468820Y-109045777D01*
X171469179Y-108634029D01*
X171311942Y-108253485D01*
X171021046Y-107962081D01*
X170640777Y-107804180D01*
X170229029Y-107803821D01*
X169848485Y-107961058D01*
X169557081Y-108251954D01*
X169479437Y-108438943D01*
X169340029Y-108438821D01*
X168959485Y-108596058D01*
X168668081Y-108886954D01*
X168510180Y-109267223D01*
X168509821Y-109678971D01*
X167786043Y-109678971D01*
X167786179Y-109523029D01*
X167628942Y-109142485D01*
X167338046Y-108851081D01*
X166957777Y-108693180D01*
X166546029Y-108692821D01*
X166165485Y-108850058D01*
X165874081Y-109140954D01*
X165716180Y-109521223D01*
X165715821Y-109932971D01*
X162578821Y-109932971D01*
X162579179Y-109523029D01*
X162421942Y-109142485D01*
X162131046Y-108851081D01*
X161750777Y-108693180D01*
X161339029Y-108692821D01*
X160958485Y-108850058D01*
X160667081Y-109140954D01*
X160509180Y-109521223D01*
X160508821Y-109932971D01*
X157371821Y-109932971D01*
X157372179Y-109523029D01*
X157214942Y-109142485D01*
X156924046Y-108851081D01*
X156543777Y-108693180D01*
X156132029Y-108692821D01*
X155751485Y-108850058D01*
X155460081Y-109140954D01*
X155302180Y-109521223D01*
X155301821Y-109932971D01*
X152164821Y-109932971D01*
X152165179Y-109523029D01*
X152007942Y-109142485D01*
X151717046Y-108851081D01*
X151336777Y-108693180D01*
X150925029Y-108692821D01*
X150544485Y-108850058D01*
X150253081Y-109140954D01*
X150095180Y-109521223D01*
X150094821Y-109932971D01*
X146957821Y-109932971D01*
X146958179Y-109523029D01*
X146800942Y-109142485D01*
X146510046Y-108851081D01*
X146129777Y-108693180D01*
X145718029Y-108692821D01*
X145337485Y-108850058D01*
X145046081Y-109140954D01*
X144888180Y-109521223D01*
X144887821Y-109932971D01*
X141750821Y-109932971D01*
X141751179Y-109523029D01*
X141593942Y-109142485D01*
X141303046Y-108851081D01*
X140922777Y-108693180D01*
X140511029Y-108692821D01*
X140130485Y-108850058D01*
X139839081Y-109140954D01*
X139681180Y-109521223D01*
X139680821Y-109932971D01*
X126989047Y-109932971D01*
X127204515Y-109843942D01*
X127495919Y-109553046D01*
X127652073Y-109176984D01*
X127682954Y-109207919D01*
X128063223Y-109365820D01*
X128474971Y-109366179D01*
X128855515Y-109208942D01*
X129146919Y-108918046D01*
X129304820Y-108537777D01*
X129305179Y-108126029D01*
X129147942Y-107745485D01*
X128857046Y-107454081D01*
X128476777Y-107296180D01*
X128065029Y-107295821D01*
X127684485Y-107453058D01*
X127393081Y-107743954D01*
X127236927Y-108120016D01*
X127206046Y-108089081D01*
X126825777Y-107931180D01*
X126414029Y-107930821D01*
X126033485Y-108088058D01*
X125742081Y-108378954D01*
X125584180Y-108759223D01*
X125583821Y-109170971D01*
X124057663Y-109170971D01*
X124032874Y-109110979D01*
X124410515Y-108954942D01*
X124701919Y-108664046D01*
X124859820Y-108283777D01*
X124860179Y-107872029D01*
X124702942Y-107491485D01*
X124412046Y-107200081D01*
X124031777Y-107042180D01*
X123620029Y-107041821D01*
X123239485Y-107199058D01*
X122948081Y-107489954D01*
X122936000Y-107519048D01*
X122936000Y-102185971D01*
X124059821Y-102185971D01*
X124217058Y-102566515D01*
X124507954Y-102857919D01*
X124888223Y-103015820D01*
X125299971Y-103016179D01*
X125680515Y-102858942D01*
X125971919Y-102568046D01*
X126025100Y-102439971D01*
X126726821Y-102439971D01*
X126884058Y-102820515D01*
X127174954Y-103111919D01*
X127555223Y-103269820D01*
X127966971Y-103270179D01*
X128347515Y-103112942D01*
X128638919Y-102822046D01*
X128732627Y-102596371D01*
X128825223Y-102634820D01*
X129236971Y-102635179D01*
X129267105Y-102622728D01*
X129266821Y-102947971D01*
X129424058Y-103328515D01*
X129714954Y-103619919D01*
X130095223Y-103777820D01*
X130506971Y-103778179D01*
X130887515Y-103620942D01*
X131178919Y-103330046D01*
X131336820Y-102949777D01*
X131337179Y-102538029D01*
X131179942Y-102157485D01*
X130889046Y-101866081D01*
X130508777Y-101708180D01*
X130097029Y-101707821D01*
X130066895Y-101720272D01*
X130067179Y-101395029D01*
X129909942Y-101014485D01*
X129619046Y-100723081D01*
X129238777Y-100565180D01*
X128827029Y-100564821D01*
X128446485Y-100722058D01*
X128155081Y-101012954D01*
X128061373Y-101238629D01*
X127968777Y-101200180D01*
X127557029Y-101199821D01*
X127176485Y-101357058D01*
X126885081Y-101647954D01*
X126727180Y-102028223D01*
X126726821Y-102439971D01*
X126025100Y-102439971D01*
X126129820Y-102187777D01*
X126130179Y-101776029D01*
X125972942Y-101395485D01*
X125682046Y-101104081D01*
X125301777Y-100946180D01*
X124890029Y-100945821D01*
X124509485Y-101103058D01*
X124218081Y-101393954D01*
X124060180Y-101774223D01*
X124059821Y-102185971D01*
X122936000Y-102185971D01*
X122936000Y-101112742D01*
X123237223Y-101237820D01*
X123648971Y-101238179D01*
X124029515Y-101080942D01*
X124320919Y-100790046D01*
X124324668Y-100781017D01*
X124507223Y-100856820D01*
X124918971Y-100857179D01*
X125299515Y-100699942D01*
X125590919Y-100409046D01*
X125748820Y-100028777D01*
X125748984Y-99840906D01*
X126061971Y-99841179D01*
X126442515Y-99683942D01*
X126558659Y-99568000D01*
X130228523Y-99568000D01*
X130156180Y-99742223D01*
X130155821Y-100153971D01*
X130313058Y-100534515D01*
X130603954Y-100825919D01*
X130984223Y-100983820D01*
X131395971Y-100984179D01*
X131776515Y-100826942D01*
X132067919Y-100536046D01*
X132225820Y-100155777D01*
X132226179Y-99744029D01*
X132153446Y-99568000D01*
X134680341Y-99568000D01*
X134505081Y-99742954D01*
X134347180Y-100123223D01*
X134346821Y-100534971D01*
X134504058Y-100915515D01*
X134794954Y-101206919D01*
X135175223Y-101364820D01*
X135586971Y-101365179D01*
X135967515Y-101207942D01*
X136258919Y-100917046D01*
X136416820Y-100536777D01*
X136417179Y-100125029D01*
X136259942Y-99744485D01*
X136083765Y-99568000D01*
X136209370Y-99568000D01*
X137033000Y-100391631D01*
X137033000Y-100898235D01*
X136918081Y-101012954D01*
X136760180Y-101393223D01*
X136759821Y-101804971D01*
X136917058Y-102185515D01*
X137207954Y-102476919D01*
X137588223Y-102634820D01*
X137930491Y-102635118D01*
X137878330Y-102669971D01*
X137668000Y-102984752D01*
X137457670Y-102669971D01*
X136971489Y-102345115D01*
X136398000Y-102231041D01*
X135824511Y-102345115D01*
X135338330Y-102669971D01*
X135329195Y-102683642D01*
X135324762Y-102660083D01*
X135185690Y-102443959D01*
X134973490Y-102298969D01*
X134721600Y-102247960D01*
X132994400Y-102247960D01*
X132759083Y-102292238D01*
X132542959Y-102431310D01*
X132397969Y-102643510D01*
X132346960Y-102895400D01*
X132346960Y-104267000D01*
X127762000Y-104267000D01*
X127470396Y-104325003D01*
X127223185Y-104490184D01*
X125941518Y-105771852D01*
X125906029Y-105771821D01*
X125525485Y-105929058D01*
X125234081Y-106219954D01*
X125076180Y-106600223D01*
X125075821Y-107011971D01*
X125233058Y-107392515D01*
X125523954Y-107683919D01*
X125904223Y-107841820D01*
X126315971Y-107842179D01*
X126696515Y-107684942D01*
X126987919Y-107394046D01*
X127145820Y-107013777D01*
X127146074Y-106722556D01*
X128077631Y-105791000D01*
X132454608Y-105791000D01*
X132359400Y-106269641D01*
X132359400Y-106328359D01*
X132473474Y-106901848D01*
X132798330Y-107388029D01*
X133284511Y-107712885D01*
X133481228Y-107752014D01*
X133362081Y-107870954D01*
X133204180Y-108251223D01*
X133203821Y-108662971D01*
X133361058Y-109043515D01*
X133651954Y-109334919D01*
X134032223Y-109492820D01*
X134443971Y-109493179D01*
X134824515Y-109335942D01*
X135115919Y-109045046D01*
X135273820Y-108664777D01*
X135274179Y-108253029D01*
X135116942Y-107872485D01*
X134826046Y-107581081D01*
X134704365Y-107530555D01*
X134917670Y-107388029D01*
X135128000Y-107073248D01*
X135338330Y-107388029D01*
X135824511Y-107712885D01*
X136398000Y-107826959D01*
X136971489Y-107712885D01*
X137457670Y-107388029D01*
X137668000Y-107073248D01*
X137878330Y-107388029D01*
X138364511Y-107712885D01*
X138938000Y-107826959D01*
X139511489Y-107712885D01*
X139997670Y-107388029D01*
X140208000Y-107073248D01*
X140418330Y-107388029D01*
X140904511Y-107712885D01*
X141478000Y-107826959D01*
X142051489Y-107712885D01*
X142537670Y-107388029D01*
X142748000Y-107073248D01*
X142958330Y-107388029D01*
X143010679Y-107423007D01*
X142797029Y-107422821D01*
X142416485Y-107580058D01*
X142125081Y-107870954D01*
X141967180Y-108251223D01*
X141966821Y-108662971D01*
X142124058Y-109043515D01*
X142414954Y-109334919D01*
X142795223Y-109492820D01*
X143206971Y-109493179D01*
X143587515Y-109335942D01*
X143878919Y-109045046D01*
X144036820Y-108664777D01*
X144037179Y-108253029D01*
X143879942Y-107872485D01*
X143789030Y-107781414D01*
X144018000Y-107826959D01*
X144591489Y-107712885D01*
X145077670Y-107388029D01*
X145288000Y-107073248D01*
X145498330Y-107388029D01*
X145984511Y-107712885D01*
X146558000Y-107826959D01*
X147066000Y-107725912D01*
X147066000Y-108077000D01*
X147124004Y-108368605D01*
X147174012Y-108443448D01*
X147173821Y-108662971D01*
X147331058Y-109043515D01*
X147621954Y-109334919D01*
X148002223Y-109492820D01*
X148413971Y-109493179D01*
X148794515Y-109335942D01*
X149085919Y-109045046D01*
X149243820Y-108664777D01*
X149244179Y-108253029D01*
X149086942Y-107872485D01*
X149027496Y-107812935D01*
X149098000Y-107826959D01*
X149671489Y-107712885D01*
X150157670Y-107388029D01*
X150368000Y-107073248D01*
X150578330Y-107388029D01*
X151064511Y-107712885D01*
X151638000Y-107826959D01*
X152211489Y-107712885D01*
X152697670Y-107388029D01*
X152908000Y-107073248D01*
X153118330Y-107388029D01*
X153185924Y-107433194D01*
X152830485Y-107580058D01*
X152539081Y-107870954D01*
X152381180Y-108251223D01*
X152380821Y-108662971D01*
X152538058Y-109043515D01*
X152828954Y-109334919D01*
X153209223Y-109492820D01*
X153620971Y-109493179D01*
X154001515Y-109335942D01*
X154292919Y-109045046D01*
X154450820Y-108664777D01*
X154451179Y-108253029D01*
X154293942Y-107872485D01*
X154236816Y-107815260D01*
X154751489Y-107712885D01*
X155237670Y-107388029D01*
X155448000Y-107073248D01*
X155658330Y-107388029D01*
X156144511Y-107712885D01*
X156718000Y-107826959D01*
X157291489Y-107712885D01*
X157777670Y-107388029D01*
X157988000Y-107073248D01*
X158064582Y-107187862D01*
X158037485Y-107199058D01*
X157746081Y-107489954D01*
X157588180Y-107870223D01*
X157587821Y-108281971D01*
X157745058Y-108662515D01*
X158035954Y-108953919D01*
X158416223Y-109111820D01*
X158827971Y-109112179D01*
X159208515Y-108954942D01*
X159499919Y-108664046D01*
X159657820Y-108283777D01*
X159658179Y-107872029D01*
X159610579Y-107756827D01*
X159831489Y-107712885D01*
X160317670Y-107388029D01*
X160528000Y-107073248D01*
X160738330Y-107388029D01*
X161224511Y-107712885D01*
X161798000Y-107826959D01*
X162371489Y-107712885D01*
X162857670Y-107388029D01*
X163068000Y-107073248D01*
X163278330Y-107388029D01*
X163764511Y-107712885D01*
X164338000Y-107826959D01*
X164911489Y-107712885D01*
X165397670Y-107388029D01*
X165722526Y-106901848D01*
X165836600Y-106328359D01*
X165836600Y-106269641D01*
X165722526Y-105696152D01*
X165397670Y-105209971D01*
X165126828Y-105029000D01*
X165397670Y-104848029D01*
X165722526Y-104361848D01*
X165836600Y-103788359D01*
X165836600Y-103729641D01*
X165722526Y-103156152D01*
X165397670Y-102669971D01*
X164922323Y-102352354D01*
X165036663Y-102238212D01*
X165274954Y-102476919D01*
X165655223Y-102634820D01*
X166066971Y-102635179D01*
X166447515Y-102477942D01*
X166738919Y-102187046D01*
X166751000Y-102157952D01*
X166751000Y-102616000D01*
X166809004Y-102907605D01*
X166878000Y-103010864D01*
X166878000Y-103184235D01*
X166763081Y-103298954D01*
X166605180Y-103679223D01*
X166604821Y-104090971D01*
X166762058Y-104471515D01*
X167052954Y-104762919D01*
X167433223Y-104920820D01*
X167844971Y-104921179D01*
X168218220Y-104766956D01*
X168244185Y-104805815D01*
X168656000Y-105217631D01*
X168656000Y-105978235D01*
X168541081Y-106092954D01*
X168383180Y-106473223D01*
X168382821Y-106884971D01*
X168540058Y-107265515D01*
X168830954Y-107556919D01*
X169211223Y-107714820D01*
X169622971Y-107715179D01*
X170003515Y-107557942D01*
X170294919Y-107267046D01*
X170452820Y-106886777D01*
X170453179Y-106475029D01*
X170295942Y-106094485D01*
X170180000Y-105978341D01*
X170180000Y-104902000D01*
X170179802Y-104901003D01*
X170511515Y-104763942D01*
X170802919Y-104473046D01*
X170960820Y-104092777D01*
X170961179Y-103681029D01*
X170803942Y-103300485D01*
X170688000Y-103184341D01*
X170688000Y-102997000D01*
X170637850Y-102744877D01*
X170657185Y-102773815D01*
X171196000Y-103312631D01*
X171196000Y-106613235D01*
X171081081Y-106727954D01*
X170923180Y-107108223D01*
X170922821Y-107519971D01*
X171080058Y-107900515D01*
X171370954Y-108191919D01*
X171751223Y-108349820D01*
X172162971Y-108350179D01*
X172543515Y-108192942D01*
X172834919Y-107902046D01*
X172992820Y-107521777D01*
X172993179Y-107110029D01*
X172835942Y-106729485D01*
X172720000Y-106613341D01*
X172720000Y-102997000D01*
X172661996Y-102705395D01*
X172638717Y-102670556D01*
X172797515Y-102604942D01*
X173088919Y-102314046D01*
X173246820Y-101933777D01*
X173247179Y-101522029D01*
X173089942Y-101141485D01*
X172974000Y-101025341D01*
X172974000Y-99568000D01*
X172915996Y-99276395D01*
X172750815Y-99029185D01*
X170591815Y-96870185D01*
X170558083Y-96847646D01*
X170344605Y-96705004D01*
X170053000Y-96647000D01*
X163642765Y-96647000D01*
X163528046Y-96532081D01*
X163147777Y-96374180D01*
X162736029Y-96373821D01*
X162355485Y-96531058D01*
X162064081Y-96821954D01*
X161906180Y-97202223D01*
X161906000Y-97409000D01*
X158435765Y-97409000D01*
X158321046Y-97294081D01*
X157940777Y-97136180D01*
X157529029Y-97135821D01*
X157148485Y-97293058D01*
X156857081Y-97583954D01*
X156699180Y-97964223D01*
X156699000Y-98171000D01*
X152212765Y-98171000D01*
X152098046Y-98056081D01*
X151717777Y-97898180D01*
X151306029Y-97897821D01*
X150925485Y-98055058D01*
X150634081Y-98345954D01*
X150476180Y-98726223D01*
X150476000Y-98933000D01*
X147762630Y-98933000D01*
X147593037Y-98763407D01*
X147593179Y-98601029D01*
X147435942Y-98220485D01*
X147145046Y-97929081D01*
X146764777Y-97771180D01*
X146353029Y-97770821D01*
X145972485Y-97928058D01*
X145681081Y-98218954D01*
X145523180Y-98599223D01*
X145522821Y-99010971D01*
X145680058Y-99391515D01*
X145970954Y-99682919D01*
X146000048Y-99695000D01*
X144145000Y-99695000D01*
X143853395Y-99753004D01*
X143606185Y-99918185D01*
X142959407Y-100564963D01*
X142797029Y-100564821D01*
X142416485Y-100722058D01*
X142125081Y-101012954D01*
X141967180Y-101393223D01*
X141966821Y-101804971D01*
X142124058Y-102185515D01*
X142414954Y-102476919D01*
X142795223Y-102634820D01*
X143010656Y-102635008D01*
X142958330Y-102669971D01*
X142748000Y-102984752D01*
X142537670Y-102669971D01*
X142051489Y-102345115D01*
X141478000Y-102231041D01*
X140904511Y-102345115D01*
X140418330Y-102669971D01*
X140208000Y-102984752D01*
X139997670Y-102669971D01*
X139833023Y-102559957D01*
X140031515Y-102477942D01*
X140322919Y-102187046D01*
X140480820Y-101806777D01*
X140481179Y-101395029D01*
X140323942Y-101014485D01*
X140033046Y-100723081D01*
X139652777Y-100565180D01*
X139241029Y-100564821D01*
X138860485Y-100722058D01*
X138620337Y-100961788D01*
X138557000Y-100898341D01*
X138557000Y-100076000D01*
X138498996Y-99784395D01*
X138471306Y-99742954D01*
X138333815Y-99537184D01*
X137063815Y-98267185D01*
X137006673Y-98229004D01*
X136816605Y-98102004D01*
X136525000Y-98044000D01*
X126558765Y-98044000D01*
X126444046Y-97929081D01*
X126063777Y-97771180D01*
X125652029Y-97770821D01*
X125271485Y-97928058D01*
X124980081Y-98218954D01*
X124822180Y-98599223D01*
X124822016Y-98787094D01*
X124509029Y-98786821D01*
X124128485Y-98944058D01*
X123837081Y-99234954D01*
X123833332Y-99243983D01*
X123650777Y-99168180D01*
X123239029Y-99167821D01*
X122936000Y-99293030D01*
X122936000Y-98740630D01*
X124140631Y-97536000D01*
X130743235Y-97536000D01*
X130857954Y-97650919D01*
X131238223Y-97808820D01*
X131649971Y-97809179D01*
X132030515Y-97651942D01*
X132321919Y-97361046D01*
X132479820Y-96980777D01*
X132480179Y-96569029D01*
X132322942Y-96188485D01*
X132032046Y-95897081D01*
X131651777Y-95739180D01*
X131240029Y-95738821D01*
X130859485Y-95896058D01*
X130743341Y-96012000D01*
X123825000Y-96012000D01*
X123533396Y-96070003D01*
X123286185Y-96235184D01*
X121711100Y-97810270D01*
X121711100Y-97573531D01*
X122431110Y-93953795D01*
X124441914Y-90944413D01*
X127451293Y-88933611D01*
X131071031Y-88213600D01*
X165931169Y-88213600D01*
X169550905Y-88933610D01*
M02*
