G04 #@! TF.FileFunction,Legend,Top*
%FSLAX46Y46*%
G04 Gerber Fmt 4.6, Leading zero omitted, Abs format (unit mm)*
G04 Created by KiCad (PCBNEW 4.0.2+dfsg1-stable) date Thu 26 Jul 2018 23:23:47 BST*
%MOMM*%
G01*
G04 APERTURE LIST*
%ADD10C,0.100000*%
%ADD11C,0.097536*%
%ADD12C,0.150000*%
%ADD13C,0.152400*%
%ADD14C,0.198120*%
G04 APERTURE END LIST*
D10*
D11*
X171171689Y-118710770D02*
X171649692Y-118710770D01*
X171392306Y-119004927D01*
X171502614Y-119004927D01*
X171576153Y-119041696D01*
X171612923Y-119078466D01*
X171649692Y-119152005D01*
X171649692Y-119335852D01*
X171612923Y-119409391D01*
X171576153Y-119446161D01*
X171502614Y-119482930D01*
X171281997Y-119482930D01*
X171208458Y-119446161D01*
X171171689Y-119409391D01*
X172348313Y-118710770D02*
X171980618Y-118710770D01*
X171943848Y-119078466D01*
X171980618Y-119041696D01*
X172054157Y-119004927D01*
X172238004Y-119004927D01*
X172311543Y-119041696D01*
X172348313Y-119078466D01*
X172385082Y-119152005D01*
X172385082Y-119335852D01*
X172348313Y-119409391D01*
X172311543Y-119446161D01*
X172238004Y-119482930D01*
X172054157Y-119482930D01*
X171980618Y-119446161D01*
X171943848Y-119409391D01*
X124981063Y-116025870D02*
X125017833Y-115989100D01*
X125091372Y-115952330D01*
X125275219Y-115952330D01*
X125348758Y-115989100D01*
X125385528Y-116025870D01*
X125422297Y-116099409D01*
X125422297Y-116172948D01*
X125385528Y-116283256D01*
X124944294Y-116724490D01*
X125422297Y-116724490D01*
X125361337Y-119327990D02*
X124920103Y-119327990D01*
X125140720Y-119327990D02*
X125140720Y-118555830D01*
X125067181Y-118666139D01*
X124993642Y-118739678D01*
X124920103Y-118776448D01*
X125462937Y-93994030D02*
X125021703Y-93994030D01*
X125242320Y-93994030D02*
X125242320Y-93221870D01*
X125168781Y-93332179D01*
X125095242Y-93405718D01*
X125021703Y-93442488D01*
X125082663Y-90691910D02*
X125119433Y-90655140D01*
X125192972Y-90618370D01*
X125376819Y-90618370D01*
X125450358Y-90655140D01*
X125487128Y-90691910D01*
X125523897Y-90765449D01*
X125523897Y-90838988D01*
X125487128Y-90949296D01*
X125045894Y-91390530D01*
X125523897Y-91390530D01*
X171153909Y-90636150D02*
X171631912Y-90636150D01*
X171374526Y-90930307D01*
X171484834Y-90930307D01*
X171558373Y-90967076D01*
X171595143Y-91003846D01*
X171631912Y-91077385D01*
X171631912Y-91261232D01*
X171595143Y-91334771D01*
X171558373Y-91371541D01*
X171484834Y-91408310D01*
X171264217Y-91408310D01*
X171190678Y-91371541D01*
X171153909Y-91334771D01*
X172293763Y-90636150D02*
X172146685Y-90636150D01*
X172073146Y-90672920D01*
X172036377Y-90709690D01*
X171962838Y-90819998D01*
X171926068Y-90967076D01*
X171926068Y-91261232D01*
X171962838Y-91334771D01*
X171999607Y-91371541D01*
X172073146Y-91408310D01*
X172220224Y-91408310D01*
X172293763Y-91371541D01*
X172330533Y-91334771D01*
X172367302Y-91261232D01*
X172367302Y-91077385D01*
X172330533Y-91003846D01*
X172293763Y-90967076D01*
X172220224Y-90930307D01*
X172073146Y-90930307D01*
X171999607Y-90967076D01*
X171962838Y-91003846D01*
X171926068Y-91077385D01*
X171230109Y-93150750D02*
X171708112Y-93150750D01*
X171450726Y-93444907D01*
X171561034Y-93444907D01*
X171634573Y-93481676D01*
X171671343Y-93518446D01*
X171708112Y-93591985D01*
X171708112Y-93775832D01*
X171671343Y-93849371D01*
X171634573Y-93886141D01*
X171561034Y-93922910D01*
X171340417Y-93922910D01*
X171266878Y-93886141D01*
X171230109Y-93849371D01*
X172406733Y-93150750D02*
X172039038Y-93150750D01*
X172002268Y-93518446D01*
X172039038Y-93481676D01*
X172112577Y-93444907D01*
X172296424Y-93444907D01*
X172369963Y-93481676D01*
X172406733Y-93518446D01*
X172443502Y-93591985D01*
X172443502Y-93775832D01*
X172406733Y-93849371D01*
X172369963Y-93886141D01*
X172296424Y-93922910D01*
X172112577Y-93922910D01*
X172039038Y-93886141D01*
X172002268Y-93849371D01*
X171255509Y-116010750D02*
X171733512Y-116010750D01*
X171476126Y-116304907D01*
X171586434Y-116304907D01*
X171659973Y-116341676D01*
X171696743Y-116378446D01*
X171733512Y-116451985D01*
X171733512Y-116635832D01*
X171696743Y-116709371D01*
X171659973Y-116746141D01*
X171586434Y-116782910D01*
X171365817Y-116782910D01*
X171292278Y-116746141D01*
X171255509Y-116709371D01*
X172395363Y-116010750D02*
X172248285Y-116010750D01*
X172174746Y-116047520D01*
X172137977Y-116084290D01*
X172064438Y-116194598D01*
X172027668Y-116341676D01*
X172027668Y-116635832D01*
X172064438Y-116709371D01*
X172101207Y-116746141D01*
X172174746Y-116782910D01*
X172321824Y-116782910D01*
X172395363Y-116746141D01*
X172432133Y-116709371D01*
X172468902Y-116635832D01*
X172468902Y-116451985D01*
X172432133Y-116378446D01*
X172395363Y-116341676D01*
X172321824Y-116304907D01*
X172174746Y-116304907D01*
X172101207Y-116341676D01*
X172064438Y-116378446D01*
X172027668Y-116451985D01*
D12*
X123790000Y-113315000D02*
X123790000Y-114015000D01*
X122590000Y-114015000D02*
X122590000Y-113315000D01*
X122844000Y-102839000D02*
X122844000Y-102139000D01*
X124044000Y-102139000D02*
X124044000Y-102839000D01*
X169002000Y-113315000D02*
X169002000Y-114015000D01*
X167802000Y-114015000D02*
X167802000Y-113315000D01*
X168183000Y-102839000D02*
X168183000Y-102139000D01*
X169383000Y-102139000D02*
X169383000Y-102839000D01*
X127802000Y-98687000D02*
X127802000Y-99687000D01*
X126452000Y-99687000D02*
X126452000Y-98687000D01*
X133136000Y-98687000D02*
X133136000Y-99687000D01*
X131786000Y-99687000D02*
X131786000Y-98687000D01*
X138470000Y-98687000D02*
X138470000Y-99687000D01*
X137120000Y-99687000D02*
X137120000Y-98687000D01*
X143677000Y-98687000D02*
X143677000Y-99687000D01*
X142327000Y-99687000D02*
X142327000Y-98687000D01*
X149011000Y-98687000D02*
X149011000Y-99687000D01*
X147661000Y-99687000D02*
X147661000Y-98687000D01*
X154345000Y-98687000D02*
X154345000Y-99687000D01*
X152995000Y-99687000D02*
X152995000Y-98687000D01*
X159679000Y-98687000D02*
X159679000Y-99687000D01*
X158329000Y-99687000D02*
X158329000Y-98687000D01*
X164886000Y-98687000D02*
X164886000Y-99687000D01*
X163536000Y-99687000D02*
X163536000Y-98687000D01*
X173395000Y-98687000D02*
X173395000Y-99687000D01*
X172045000Y-99687000D02*
X172045000Y-98687000D01*
X164505000Y-110371000D02*
X164505000Y-111371000D01*
X163155000Y-111371000D02*
X163155000Y-110371000D01*
X159298000Y-110371000D02*
X159298000Y-111371000D01*
X157948000Y-111371000D02*
X157948000Y-110371000D01*
X154091000Y-110371000D02*
X154091000Y-111371000D01*
X152741000Y-111371000D02*
X152741000Y-110371000D01*
X148884000Y-110371000D02*
X148884000Y-111371000D01*
X147534000Y-111371000D02*
X147534000Y-110371000D01*
X143677000Y-110371000D02*
X143677000Y-111371000D01*
X142327000Y-111371000D02*
X142327000Y-110371000D01*
X138470000Y-110371000D02*
X138470000Y-111371000D01*
X137120000Y-111371000D02*
X137120000Y-110371000D01*
X133263000Y-110371000D02*
X133263000Y-111371000D01*
X131913000Y-111371000D02*
X131913000Y-110371000D01*
X129453000Y-98687000D02*
X129453000Y-99687000D01*
X128103000Y-99687000D02*
X128103000Y-98687000D01*
X134787000Y-98687000D02*
X134787000Y-99687000D01*
X133437000Y-99687000D02*
X133437000Y-98687000D01*
X140121000Y-98687000D02*
X140121000Y-99687000D01*
X138771000Y-99687000D02*
X138771000Y-98687000D01*
X145328000Y-98687000D02*
X145328000Y-99687000D01*
X143978000Y-99687000D02*
X143978000Y-98687000D01*
X150662000Y-98687000D02*
X150662000Y-99687000D01*
X149312000Y-99687000D02*
X149312000Y-98687000D01*
X155996000Y-98687000D02*
X155996000Y-99687000D01*
X154646000Y-99687000D02*
X154646000Y-98687000D01*
X161330000Y-98687000D02*
X161330000Y-99687000D01*
X159980000Y-99687000D02*
X159980000Y-98687000D01*
X166537000Y-98687000D02*
X166537000Y-99687000D01*
X165187000Y-99687000D02*
X165187000Y-98687000D01*
X171744000Y-98687000D02*
X171744000Y-99687000D01*
X170394000Y-99687000D02*
X170394000Y-98687000D01*
X164806000Y-111371000D02*
X164806000Y-110371000D01*
X166156000Y-110371000D02*
X166156000Y-111371000D01*
X159599000Y-111371000D02*
X159599000Y-110371000D01*
X160949000Y-110371000D02*
X160949000Y-111371000D01*
X154392000Y-111371000D02*
X154392000Y-110371000D01*
X155742000Y-110371000D02*
X155742000Y-111371000D01*
X149185000Y-111371000D02*
X149185000Y-110371000D01*
X150535000Y-110371000D02*
X150535000Y-111371000D01*
X143978000Y-111371000D02*
X143978000Y-110371000D01*
X145328000Y-110371000D02*
X145328000Y-111371000D01*
X138771000Y-111371000D02*
X138771000Y-110371000D01*
X140121000Y-110371000D02*
X140121000Y-111371000D01*
X133564000Y-111371000D02*
X133564000Y-110371000D01*
X134914000Y-110371000D02*
X134914000Y-111371000D01*
X129246000Y-112768000D02*
X129246000Y-111768000D01*
X130596000Y-111768000D02*
X130596000Y-112768000D01*
X128103000Y-97528000D02*
X128103000Y-96528000D01*
X129453000Y-96528000D02*
X129453000Y-97528000D01*
X133437000Y-97528000D02*
X133437000Y-96528000D01*
X134787000Y-96528000D02*
X134787000Y-97528000D01*
X138771000Y-97528000D02*
X138771000Y-96528000D01*
X140121000Y-96528000D02*
X140121000Y-97528000D01*
X143978000Y-97528000D02*
X143978000Y-96528000D01*
X145328000Y-96528000D02*
X145328000Y-97528000D01*
X149312000Y-97528000D02*
X149312000Y-96528000D01*
X150662000Y-96528000D02*
X150662000Y-97528000D01*
X154646000Y-97528000D02*
X154646000Y-96528000D01*
X155996000Y-96528000D02*
X155996000Y-97528000D01*
X159980000Y-97528000D02*
X159980000Y-96528000D01*
X161330000Y-96528000D02*
X161330000Y-97528000D01*
X165187000Y-97528000D02*
X165187000Y-96528000D01*
X166537000Y-96528000D02*
X166537000Y-97528000D01*
X170394000Y-97528000D02*
X170394000Y-96528000D01*
X171744000Y-96528000D02*
X171744000Y-97528000D01*
X166156000Y-112530000D02*
X166156000Y-113530000D01*
X164806000Y-113530000D02*
X164806000Y-112530000D01*
X160949000Y-112530000D02*
X160949000Y-113530000D01*
X159599000Y-113530000D02*
X159599000Y-112530000D01*
X155742000Y-112530000D02*
X155742000Y-113530000D01*
X154392000Y-113530000D02*
X154392000Y-112530000D01*
X150535000Y-112530000D02*
X150535000Y-113530000D01*
X149185000Y-113530000D02*
X149185000Y-112530000D01*
X145328000Y-112530000D02*
X145328000Y-113530000D01*
X143978000Y-113530000D02*
X143978000Y-112530000D01*
X140121000Y-112530000D02*
X140121000Y-113530000D01*
X138771000Y-113530000D02*
X138771000Y-112530000D01*
X134914000Y-112530000D02*
X134914000Y-113530000D01*
X133564000Y-113530000D02*
X133564000Y-112530000D01*
D13*
X129286000Y-109992564D02*
X129286000Y-106161449D01*
X122428000Y-106161436D02*
X122428000Y-109992551D01*
X174244000Y-109992564D02*
X174244000Y-106161449D01*
X167386000Y-106161436D02*
X167386000Y-109992551D01*
D14*
X128656654Y-121758317D02*
X128656654Y-120189867D01*
X129254159Y-120189867D01*
X129403535Y-120264555D01*
X129478224Y-120339243D01*
X129552912Y-120488619D01*
X129552912Y-120712684D01*
X129478224Y-120862060D01*
X129403535Y-120936748D01*
X129254159Y-121011436D01*
X128656654Y-121011436D01*
X131046674Y-121758317D02*
X130150416Y-121758317D01*
X130598545Y-121758317D02*
X130598545Y-120189867D01*
X130449169Y-120413931D01*
X130299793Y-120563307D01*
X130150416Y-120637995D01*
D12*
D14*
X128737934Y-89858457D02*
X128737934Y-88290007D01*
X129335439Y-88290007D01*
X129484815Y-88364695D01*
X129559504Y-88439383D01*
X129634192Y-88588759D01*
X129634192Y-88812824D01*
X129559504Y-88962200D01*
X129484815Y-89036888D01*
X129335439Y-89111576D01*
X128737934Y-89111576D01*
X130231696Y-88439383D02*
X130306384Y-88364695D01*
X130455761Y-88290007D01*
X130829201Y-88290007D01*
X130978577Y-88364695D01*
X131053265Y-88439383D01*
X131127954Y-88588759D01*
X131127954Y-88738135D01*
X131053265Y-88962200D01*
X130157008Y-89858457D01*
X131127954Y-89858457D01*
D12*
X125071143Y-113831666D02*
X125118762Y-113879285D01*
X125166381Y-114022142D01*
X125166381Y-114117380D01*
X125118762Y-114260238D01*
X125023524Y-114355476D01*
X124928286Y-114403095D01*
X124737810Y-114450714D01*
X124594952Y-114450714D01*
X124404476Y-114403095D01*
X124309238Y-114355476D01*
X124214000Y-114260238D01*
X124166381Y-114117380D01*
X124166381Y-114022142D01*
X124214000Y-113879285D01*
X124261619Y-113831666D01*
X125166381Y-112879285D02*
X125166381Y-113450714D01*
X125166381Y-113165000D02*
X124166381Y-113165000D01*
X124309238Y-113260238D01*
X124404476Y-113355476D01*
X124452095Y-113450714D01*
X125325143Y-102655666D02*
X125372762Y-102703285D01*
X125420381Y-102846142D01*
X125420381Y-102941380D01*
X125372762Y-103084238D01*
X125277524Y-103179476D01*
X125182286Y-103227095D01*
X124991810Y-103274714D01*
X124848952Y-103274714D01*
X124658476Y-103227095D01*
X124563238Y-103179476D01*
X124468000Y-103084238D01*
X124420381Y-102941380D01*
X124420381Y-102846142D01*
X124468000Y-102703285D01*
X124515619Y-102655666D01*
X124515619Y-102274714D02*
X124468000Y-102227095D01*
X124420381Y-102131857D01*
X124420381Y-101893761D01*
X124468000Y-101798523D01*
X124515619Y-101750904D01*
X124610857Y-101703285D01*
X124706095Y-101703285D01*
X124848952Y-101750904D01*
X125420381Y-102322333D01*
X125420381Y-101703285D01*
X170283143Y-113831666D02*
X170330762Y-113879285D01*
X170378381Y-114022142D01*
X170378381Y-114117380D01*
X170330762Y-114260238D01*
X170235524Y-114355476D01*
X170140286Y-114403095D01*
X169949810Y-114450714D01*
X169806952Y-114450714D01*
X169616476Y-114403095D01*
X169521238Y-114355476D01*
X169426000Y-114260238D01*
X169378381Y-114117380D01*
X169378381Y-114022142D01*
X169426000Y-113879285D01*
X169473619Y-113831666D01*
X169378381Y-113498333D02*
X169378381Y-112879285D01*
X169759333Y-113212619D01*
X169759333Y-113069761D01*
X169806952Y-112974523D01*
X169854571Y-112926904D01*
X169949810Y-112879285D01*
X170187905Y-112879285D01*
X170283143Y-112926904D01*
X170330762Y-112974523D01*
X170378381Y-113069761D01*
X170378381Y-113355476D01*
X170330762Y-113450714D01*
X170283143Y-113498333D01*
X170664143Y-102655666D02*
X170711762Y-102703285D01*
X170759381Y-102846142D01*
X170759381Y-102941380D01*
X170711762Y-103084238D01*
X170616524Y-103179476D01*
X170521286Y-103227095D01*
X170330810Y-103274714D01*
X170187952Y-103274714D01*
X169997476Y-103227095D01*
X169902238Y-103179476D01*
X169807000Y-103084238D01*
X169759381Y-102941380D01*
X169759381Y-102846142D01*
X169807000Y-102703285D01*
X169854619Y-102655666D01*
X170092714Y-101798523D02*
X170759381Y-101798523D01*
X169711762Y-102036619D02*
X170426048Y-102274714D01*
X170426048Y-101655666D01*
X126198381Y-96718333D02*
X126912667Y-96718333D01*
X127055524Y-96765953D01*
X127150762Y-96861191D01*
X127198381Y-97004048D01*
X127198381Y-97099286D01*
X127198381Y-96242143D02*
X126198381Y-96242143D01*
X126198381Y-95861190D01*
X126246000Y-95765952D01*
X126293619Y-95718333D01*
X126388857Y-95670714D01*
X126531714Y-95670714D01*
X126626952Y-95718333D01*
X126674571Y-95765952D01*
X126722190Y-95861190D01*
X126722190Y-96242143D01*
X127198381Y-94718333D02*
X127198381Y-95289762D01*
X127198381Y-95004048D02*
X126198381Y-95004048D01*
X126341238Y-95099286D01*
X126436476Y-95194524D01*
X126484095Y-95289762D01*
X131532381Y-96718333D02*
X132246667Y-96718333D01*
X132389524Y-96765953D01*
X132484762Y-96861191D01*
X132532381Y-97004048D01*
X132532381Y-97099286D01*
X132532381Y-96242143D02*
X131532381Y-96242143D01*
X131532381Y-95861190D01*
X131580000Y-95765952D01*
X131627619Y-95718333D01*
X131722857Y-95670714D01*
X131865714Y-95670714D01*
X131960952Y-95718333D01*
X132008571Y-95765952D01*
X132056190Y-95861190D01*
X132056190Y-96242143D01*
X131627619Y-95289762D02*
X131580000Y-95242143D01*
X131532381Y-95146905D01*
X131532381Y-94908809D01*
X131580000Y-94813571D01*
X131627619Y-94765952D01*
X131722857Y-94718333D01*
X131818095Y-94718333D01*
X131960952Y-94765952D01*
X132532381Y-95337381D01*
X132532381Y-94718333D01*
X136866381Y-96718333D02*
X137580667Y-96718333D01*
X137723524Y-96765953D01*
X137818762Y-96861191D01*
X137866381Y-97004048D01*
X137866381Y-97099286D01*
X137866381Y-96242143D02*
X136866381Y-96242143D01*
X136866381Y-95861190D01*
X136914000Y-95765952D01*
X136961619Y-95718333D01*
X137056857Y-95670714D01*
X137199714Y-95670714D01*
X137294952Y-95718333D01*
X137342571Y-95765952D01*
X137390190Y-95861190D01*
X137390190Y-96242143D01*
X136866381Y-95337381D02*
X136866381Y-94718333D01*
X137247333Y-95051667D01*
X137247333Y-94908809D01*
X137294952Y-94813571D01*
X137342571Y-94765952D01*
X137437810Y-94718333D01*
X137675905Y-94718333D01*
X137771143Y-94765952D01*
X137818762Y-94813571D01*
X137866381Y-94908809D01*
X137866381Y-95194524D01*
X137818762Y-95289762D01*
X137771143Y-95337381D01*
X142073381Y-96718333D02*
X142787667Y-96718333D01*
X142930524Y-96765953D01*
X143025762Y-96861191D01*
X143073381Y-97004048D01*
X143073381Y-97099286D01*
X143073381Y-96242143D02*
X142073381Y-96242143D01*
X142073381Y-95861190D01*
X142121000Y-95765952D01*
X142168619Y-95718333D01*
X142263857Y-95670714D01*
X142406714Y-95670714D01*
X142501952Y-95718333D01*
X142549571Y-95765952D01*
X142597190Y-95861190D01*
X142597190Y-96242143D01*
X142406714Y-94813571D02*
X143073381Y-94813571D01*
X142025762Y-95051667D02*
X142740048Y-95289762D01*
X142740048Y-94670714D01*
X147407381Y-96718333D02*
X148121667Y-96718333D01*
X148264524Y-96765953D01*
X148359762Y-96861191D01*
X148407381Y-97004048D01*
X148407381Y-97099286D01*
X148407381Y-96242143D02*
X147407381Y-96242143D01*
X147407381Y-95861190D01*
X147455000Y-95765952D01*
X147502619Y-95718333D01*
X147597857Y-95670714D01*
X147740714Y-95670714D01*
X147835952Y-95718333D01*
X147883571Y-95765952D01*
X147931190Y-95861190D01*
X147931190Y-96242143D01*
X147407381Y-94765952D02*
X147407381Y-95242143D01*
X147883571Y-95289762D01*
X147835952Y-95242143D01*
X147788333Y-95146905D01*
X147788333Y-94908809D01*
X147835952Y-94813571D01*
X147883571Y-94765952D01*
X147978810Y-94718333D01*
X148216905Y-94718333D01*
X148312143Y-94765952D01*
X148359762Y-94813571D01*
X148407381Y-94908809D01*
X148407381Y-95146905D01*
X148359762Y-95242143D01*
X148312143Y-95289762D01*
X152741381Y-96718333D02*
X153455667Y-96718333D01*
X153598524Y-96765953D01*
X153693762Y-96861191D01*
X153741381Y-97004048D01*
X153741381Y-97099286D01*
X153741381Y-96242143D02*
X152741381Y-96242143D01*
X152741381Y-95861190D01*
X152789000Y-95765952D01*
X152836619Y-95718333D01*
X152931857Y-95670714D01*
X153074714Y-95670714D01*
X153169952Y-95718333D01*
X153217571Y-95765952D01*
X153265190Y-95861190D01*
X153265190Y-96242143D01*
X152741381Y-94813571D02*
X152741381Y-95004048D01*
X152789000Y-95099286D01*
X152836619Y-95146905D01*
X152979476Y-95242143D01*
X153169952Y-95289762D01*
X153550905Y-95289762D01*
X153646143Y-95242143D01*
X153693762Y-95194524D01*
X153741381Y-95099286D01*
X153741381Y-94908809D01*
X153693762Y-94813571D01*
X153646143Y-94765952D01*
X153550905Y-94718333D01*
X153312810Y-94718333D01*
X153217571Y-94765952D01*
X153169952Y-94813571D01*
X153122333Y-94908809D01*
X153122333Y-95099286D01*
X153169952Y-95194524D01*
X153217571Y-95242143D01*
X153312810Y-95289762D01*
X158075381Y-96718333D02*
X158789667Y-96718333D01*
X158932524Y-96765953D01*
X159027762Y-96861191D01*
X159075381Y-97004048D01*
X159075381Y-97099286D01*
X159075381Y-96242143D02*
X158075381Y-96242143D01*
X158075381Y-95861190D01*
X158123000Y-95765952D01*
X158170619Y-95718333D01*
X158265857Y-95670714D01*
X158408714Y-95670714D01*
X158503952Y-95718333D01*
X158551571Y-95765952D01*
X158599190Y-95861190D01*
X158599190Y-96242143D01*
X158075381Y-95337381D02*
X158075381Y-94670714D01*
X159075381Y-95099286D01*
X163282381Y-96718333D02*
X163996667Y-96718333D01*
X164139524Y-96765953D01*
X164234762Y-96861191D01*
X164282381Y-97004048D01*
X164282381Y-97099286D01*
X164282381Y-96242143D02*
X163282381Y-96242143D01*
X163282381Y-95861190D01*
X163330000Y-95765952D01*
X163377619Y-95718333D01*
X163472857Y-95670714D01*
X163615714Y-95670714D01*
X163710952Y-95718333D01*
X163758571Y-95765952D01*
X163806190Y-95861190D01*
X163806190Y-96242143D01*
X163710952Y-95099286D02*
X163663333Y-95194524D01*
X163615714Y-95242143D01*
X163520476Y-95289762D01*
X163472857Y-95289762D01*
X163377619Y-95242143D01*
X163330000Y-95194524D01*
X163282381Y-95099286D01*
X163282381Y-94908809D01*
X163330000Y-94813571D01*
X163377619Y-94765952D01*
X163472857Y-94718333D01*
X163520476Y-94718333D01*
X163615714Y-94765952D01*
X163663333Y-94813571D01*
X163710952Y-94908809D01*
X163710952Y-95099286D01*
X163758571Y-95194524D01*
X163806190Y-95242143D01*
X163901429Y-95289762D01*
X164091905Y-95289762D01*
X164187143Y-95242143D01*
X164234762Y-95194524D01*
X164282381Y-95099286D01*
X164282381Y-94908809D01*
X164234762Y-94813571D01*
X164187143Y-94765952D01*
X164091905Y-94718333D01*
X163901429Y-94718333D01*
X163806190Y-94765952D01*
X163758571Y-94813571D01*
X163710952Y-94908809D01*
X172680381Y-96972333D02*
X173394667Y-96972333D01*
X173537524Y-97019953D01*
X173632762Y-97115191D01*
X173680381Y-97258048D01*
X173680381Y-97353286D01*
X173680381Y-96496143D02*
X172680381Y-96496143D01*
X172680381Y-96115190D01*
X172728000Y-96019952D01*
X172775619Y-95972333D01*
X172870857Y-95924714D01*
X173013714Y-95924714D01*
X173108952Y-95972333D01*
X173156571Y-96019952D01*
X173204190Y-96115190D01*
X173204190Y-96496143D01*
X173680381Y-95448524D02*
X173680381Y-95258048D01*
X173632762Y-95162809D01*
X173585143Y-95115190D01*
X173442286Y-95019952D01*
X173251810Y-94972333D01*
X172870857Y-94972333D01*
X172775619Y-95019952D01*
X172728000Y-95067571D01*
X172680381Y-95162809D01*
X172680381Y-95353286D01*
X172728000Y-95448524D01*
X172775619Y-95496143D01*
X172870857Y-95543762D01*
X173108952Y-95543762D01*
X173204190Y-95496143D01*
X173251810Y-95448524D01*
X173299429Y-95353286D01*
X173299429Y-95162809D01*
X173251810Y-95067571D01*
X173204190Y-95019952D01*
X173108952Y-94972333D01*
X163155381Y-115863523D02*
X163869667Y-115863523D01*
X164012524Y-115911143D01*
X164107762Y-116006381D01*
X164155381Y-116149238D01*
X164155381Y-116244476D01*
X164155381Y-115387333D02*
X163155381Y-115387333D01*
X163155381Y-115006380D01*
X163203000Y-114911142D01*
X163250619Y-114863523D01*
X163345857Y-114815904D01*
X163488714Y-114815904D01*
X163583952Y-114863523D01*
X163631571Y-114911142D01*
X163679190Y-115006380D01*
X163679190Y-115387333D01*
X164155381Y-113863523D02*
X164155381Y-114434952D01*
X164155381Y-114149238D02*
X163155381Y-114149238D01*
X163298238Y-114244476D01*
X163393476Y-114339714D01*
X163441095Y-114434952D01*
X163155381Y-113244476D02*
X163155381Y-113149237D01*
X163203000Y-113053999D01*
X163250619Y-113006380D01*
X163345857Y-112958761D01*
X163536333Y-112911142D01*
X163774429Y-112911142D01*
X163964905Y-112958761D01*
X164060143Y-113006380D01*
X164107762Y-113053999D01*
X164155381Y-113149237D01*
X164155381Y-113244476D01*
X164107762Y-113339714D01*
X164060143Y-113387333D01*
X163964905Y-113434952D01*
X163774429Y-113482571D01*
X163536333Y-113482571D01*
X163345857Y-113434952D01*
X163250619Y-113387333D01*
X163203000Y-113339714D01*
X163155381Y-113244476D01*
X157948381Y-115863523D02*
X158662667Y-115863523D01*
X158805524Y-115911143D01*
X158900762Y-116006381D01*
X158948381Y-116149238D01*
X158948381Y-116244476D01*
X158948381Y-115387333D02*
X157948381Y-115387333D01*
X157948381Y-115006380D01*
X157996000Y-114911142D01*
X158043619Y-114863523D01*
X158138857Y-114815904D01*
X158281714Y-114815904D01*
X158376952Y-114863523D01*
X158424571Y-114911142D01*
X158472190Y-115006380D01*
X158472190Y-115387333D01*
X158948381Y-113863523D02*
X158948381Y-114434952D01*
X158948381Y-114149238D02*
X157948381Y-114149238D01*
X158091238Y-114244476D01*
X158186476Y-114339714D01*
X158234095Y-114434952D01*
X158948381Y-112911142D02*
X158948381Y-113482571D01*
X158948381Y-113196857D02*
X157948381Y-113196857D01*
X158091238Y-113292095D01*
X158186476Y-113387333D01*
X158234095Y-113482571D01*
X152995381Y-115863523D02*
X153709667Y-115863523D01*
X153852524Y-115911143D01*
X153947762Y-116006381D01*
X153995381Y-116149238D01*
X153995381Y-116244476D01*
X153995381Y-115387333D02*
X152995381Y-115387333D01*
X152995381Y-115006380D01*
X153043000Y-114911142D01*
X153090619Y-114863523D01*
X153185857Y-114815904D01*
X153328714Y-114815904D01*
X153423952Y-114863523D01*
X153471571Y-114911142D01*
X153519190Y-115006380D01*
X153519190Y-115387333D01*
X153995381Y-113863523D02*
X153995381Y-114434952D01*
X153995381Y-114149238D02*
X152995381Y-114149238D01*
X153138238Y-114244476D01*
X153233476Y-114339714D01*
X153281095Y-114434952D01*
X153090619Y-113482571D02*
X153043000Y-113434952D01*
X152995381Y-113339714D01*
X152995381Y-113101618D01*
X153043000Y-113006380D01*
X153090619Y-112958761D01*
X153185857Y-112911142D01*
X153281095Y-112911142D01*
X153423952Y-112958761D01*
X153995381Y-113530190D01*
X153995381Y-112911142D01*
X147915381Y-115863523D02*
X148629667Y-115863523D01*
X148772524Y-115911143D01*
X148867762Y-116006381D01*
X148915381Y-116149238D01*
X148915381Y-116244476D01*
X148915381Y-115387333D02*
X147915381Y-115387333D01*
X147915381Y-115006380D01*
X147963000Y-114911142D01*
X148010619Y-114863523D01*
X148105857Y-114815904D01*
X148248714Y-114815904D01*
X148343952Y-114863523D01*
X148391571Y-114911142D01*
X148439190Y-115006380D01*
X148439190Y-115387333D01*
X148915381Y-113863523D02*
X148915381Y-114434952D01*
X148915381Y-114149238D02*
X147915381Y-114149238D01*
X148058238Y-114244476D01*
X148153476Y-114339714D01*
X148201095Y-114434952D01*
X147915381Y-113530190D02*
X147915381Y-112911142D01*
X148296333Y-113244476D01*
X148296333Y-113101618D01*
X148343952Y-113006380D01*
X148391571Y-112958761D01*
X148486810Y-112911142D01*
X148724905Y-112911142D01*
X148820143Y-112958761D01*
X148867762Y-113006380D01*
X148915381Y-113101618D01*
X148915381Y-113387333D01*
X148867762Y-113482571D01*
X148820143Y-113530190D01*
X142708381Y-115736523D02*
X143422667Y-115736523D01*
X143565524Y-115784143D01*
X143660762Y-115879381D01*
X143708381Y-116022238D01*
X143708381Y-116117476D01*
X143708381Y-115260333D02*
X142708381Y-115260333D01*
X142708381Y-114879380D01*
X142756000Y-114784142D01*
X142803619Y-114736523D01*
X142898857Y-114688904D01*
X143041714Y-114688904D01*
X143136952Y-114736523D01*
X143184571Y-114784142D01*
X143232190Y-114879380D01*
X143232190Y-115260333D01*
X143708381Y-113736523D02*
X143708381Y-114307952D01*
X143708381Y-114022238D02*
X142708381Y-114022238D01*
X142851238Y-114117476D01*
X142946476Y-114212714D01*
X142994095Y-114307952D01*
X143041714Y-112879380D02*
X143708381Y-112879380D01*
X142660762Y-113117476D02*
X143375048Y-113355571D01*
X143375048Y-112736523D01*
X137501381Y-115736523D02*
X138215667Y-115736523D01*
X138358524Y-115784143D01*
X138453762Y-115879381D01*
X138501381Y-116022238D01*
X138501381Y-116117476D01*
X138501381Y-115260333D02*
X137501381Y-115260333D01*
X137501381Y-114879380D01*
X137549000Y-114784142D01*
X137596619Y-114736523D01*
X137691857Y-114688904D01*
X137834714Y-114688904D01*
X137929952Y-114736523D01*
X137977571Y-114784142D01*
X138025190Y-114879380D01*
X138025190Y-115260333D01*
X138501381Y-113736523D02*
X138501381Y-114307952D01*
X138501381Y-114022238D02*
X137501381Y-114022238D01*
X137644238Y-114117476D01*
X137739476Y-114212714D01*
X137787095Y-114307952D01*
X137501381Y-112831761D02*
X137501381Y-113307952D01*
X137977571Y-113355571D01*
X137929952Y-113307952D01*
X137882333Y-113212714D01*
X137882333Y-112974618D01*
X137929952Y-112879380D01*
X137977571Y-112831761D01*
X138072810Y-112784142D01*
X138310905Y-112784142D01*
X138406143Y-112831761D01*
X138453762Y-112879380D01*
X138501381Y-112974618D01*
X138501381Y-113212714D01*
X138453762Y-113307952D01*
X138406143Y-113355571D01*
X130770381Y-112434523D02*
X131484667Y-112434523D01*
X131627524Y-112482143D01*
X131722762Y-112577381D01*
X131770381Y-112720238D01*
X131770381Y-112815476D01*
X131770381Y-111958333D02*
X130770381Y-111958333D01*
X130770381Y-111577380D01*
X130818000Y-111482142D01*
X130865619Y-111434523D01*
X130960857Y-111386904D01*
X131103714Y-111386904D01*
X131198952Y-111434523D01*
X131246571Y-111482142D01*
X131294190Y-111577380D01*
X131294190Y-111958333D01*
X131770381Y-110434523D02*
X131770381Y-111005952D01*
X131770381Y-110720238D02*
X130770381Y-110720238D01*
X130913238Y-110815476D01*
X131008476Y-110910714D01*
X131056095Y-111005952D01*
X130770381Y-109577380D02*
X130770381Y-109767857D01*
X130818000Y-109863095D01*
X130865619Y-109910714D01*
X131008476Y-110005952D01*
X131198952Y-110053571D01*
X131579905Y-110053571D01*
X131675143Y-110005952D01*
X131722762Y-109958333D01*
X131770381Y-109863095D01*
X131770381Y-109672618D01*
X131722762Y-109577380D01*
X131675143Y-109529761D01*
X131579905Y-109482142D01*
X131341810Y-109482142D01*
X131246571Y-109529761D01*
X131198952Y-109577380D01*
X131151333Y-109672618D01*
X131151333Y-109863095D01*
X131198952Y-109958333D01*
X131246571Y-110005952D01*
X131341810Y-110053571D01*
X129754381Y-100750523D02*
X130468667Y-100750523D01*
X130611524Y-100798143D01*
X130706762Y-100893381D01*
X130754381Y-101036238D01*
X130754381Y-101131476D01*
X130754381Y-100274333D02*
X129754381Y-100274333D01*
X129754381Y-99893380D01*
X129802000Y-99798142D01*
X129849619Y-99750523D01*
X129944857Y-99702904D01*
X130087714Y-99702904D01*
X130182952Y-99750523D01*
X130230571Y-99798142D01*
X130278190Y-99893380D01*
X130278190Y-100274333D01*
X130754381Y-98750523D02*
X130754381Y-99321952D01*
X130754381Y-99036238D02*
X129754381Y-99036238D01*
X129897238Y-99131476D01*
X129992476Y-99226714D01*
X130040095Y-99321952D01*
X129754381Y-98417190D02*
X129754381Y-97750523D01*
X130754381Y-98179095D01*
X135088381Y-100877523D02*
X135802667Y-100877523D01*
X135945524Y-100925143D01*
X136040762Y-101020381D01*
X136088381Y-101163238D01*
X136088381Y-101258476D01*
X136088381Y-100401333D02*
X135088381Y-100401333D01*
X135088381Y-100020380D01*
X135136000Y-99925142D01*
X135183619Y-99877523D01*
X135278857Y-99829904D01*
X135421714Y-99829904D01*
X135516952Y-99877523D01*
X135564571Y-99925142D01*
X135612190Y-100020380D01*
X135612190Y-100401333D01*
X136088381Y-98877523D02*
X136088381Y-99448952D01*
X136088381Y-99163238D02*
X135088381Y-99163238D01*
X135231238Y-99258476D01*
X135326476Y-99353714D01*
X135374095Y-99448952D01*
X135516952Y-98306095D02*
X135469333Y-98401333D01*
X135421714Y-98448952D01*
X135326476Y-98496571D01*
X135278857Y-98496571D01*
X135183619Y-98448952D01*
X135136000Y-98401333D01*
X135088381Y-98306095D01*
X135088381Y-98115618D01*
X135136000Y-98020380D01*
X135183619Y-97972761D01*
X135278857Y-97925142D01*
X135326476Y-97925142D01*
X135421714Y-97972761D01*
X135469333Y-98020380D01*
X135516952Y-98115618D01*
X135516952Y-98306095D01*
X135564571Y-98401333D01*
X135612190Y-98448952D01*
X135707429Y-98496571D01*
X135897905Y-98496571D01*
X135993143Y-98448952D01*
X136040762Y-98401333D01*
X136088381Y-98306095D01*
X136088381Y-98115618D01*
X136040762Y-98020380D01*
X135993143Y-97972761D01*
X135897905Y-97925142D01*
X135707429Y-97925142D01*
X135612190Y-97972761D01*
X135564571Y-98020380D01*
X135516952Y-98115618D01*
X140422381Y-100877523D02*
X141136667Y-100877523D01*
X141279524Y-100925143D01*
X141374762Y-101020381D01*
X141422381Y-101163238D01*
X141422381Y-101258476D01*
X141422381Y-100401333D02*
X140422381Y-100401333D01*
X140422381Y-100020380D01*
X140470000Y-99925142D01*
X140517619Y-99877523D01*
X140612857Y-99829904D01*
X140755714Y-99829904D01*
X140850952Y-99877523D01*
X140898571Y-99925142D01*
X140946190Y-100020380D01*
X140946190Y-100401333D01*
X141422381Y-98877523D02*
X141422381Y-99448952D01*
X141422381Y-99163238D02*
X140422381Y-99163238D01*
X140565238Y-99258476D01*
X140660476Y-99353714D01*
X140708095Y-99448952D01*
X141422381Y-98401333D02*
X141422381Y-98210857D01*
X141374762Y-98115618D01*
X141327143Y-98067999D01*
X141184286Y-97972761D01*
X140993810Y-97925142D01*
X140612857Y-97925142D01*
X140517619Y-97972761D01*
X140470000Y-98020380D01*
X140422381Y-98115618D01*
X140422381Y-98306095D01*
X140470000Y-98401333D01*
X140517619Y-98448952D01*
X140612857Y-98496571D01*
X140850952Y-98496571D01*
X140946190Y-98448952D01*
X140993810Y-98401333D01*
X141041429Y-98306095D01*
X141041429Y-98115618D01*
X140993810Y-98020380D01*
X140946190Y-97972761D01*
X140850952Y-97925142D01*
X145629381Y-100877523D02*
X146343667Y-100877523D01*
X146486524Y-100925143D01*
X146581762Y-101020381D01*
X146629381Y-101163238D01*
X146629381Y-101258476D01*
X146629381Y-100401333D02*
X145629381Y-100401333D01*
X145629381Y-100020380D01*
X145677000Y-99925142D01*
X145724619Y-99877523D01*
X145819857Y-99829904D01*
X145962714Y-99829904D01*
X146057952Y-99877523D01*
X146105571Y-99925142D01*
X146153190Y-100020380D01*
X146153190Y-100401333D01*
X145724619Y-99448952D02*
X145677000Y-99401333D01*
X145629381Y-99306095D01*
X145629381Y-99067999D01*
X145677000Y-98972761D01*
X145724619Y-98925142D01*
X145819857Y-98877523D01*
X145915095Y-98877523D01*
X146057952Y-98925142D01*
X146629381Y-99496571D01*
X146629381Y-98877523D01*
X145629381Y-98258476D02*
X145629381Y-98163237D01*
X145677000Y-98067999D01*
X145724619Y-98020380D01*
X145819857Y-97972761D01*
X146010333Y-97925142D01*
X146248429Y-97925142D01*
X146438905Y-97972761D01*
X146534143Y-98020380D01*
X146581762Y-98067999D01*
X146629381Y-98163237D01*
X146629381Y-98258476D01*
X146581762Y-98353714D01*
X146534143Y-98401333D01*
X146438905Y-98448952D01*
X146248429Y-98496571D01*
X146010333Y-98496571D01*
X145819857Y-98448952D01*
X145724619Y-98401333D01*
X145677000Y-98353714D01*
X145629381Y-98258476D01*
X150963381Y-100877523D02*
X151677667Y-100877523D01*
X151820524Y-100925143D01*
X151915762Y-101020381D01*
X151963381Y-101163238D01*
X151963381Y-101258476D01*
X151963381Y-100401333D02*
X150963381Y-100401333D01*
X150963381Y-100020380D01*
X151011000Y-99925142D01*
X151058619Y-99877523D01*
X151153857Y-99829904D01*
X151296714Y-99829904D01*
X151391952Y-99877523D01*
X151439571Y-99925142D01*
X151487190Y-100020380D01*
X151487190Y-100401333D01*
X151058619Y-99448952D02*
X151011000Y-99401333D01*
X150963381Y-99306095D01*
X150963381Y-99067999D01*
X151011000Y-98972761D01*
X151058619Y-98925142D01*
X151153857Y-98877523D01*
X151249095Y-98877523D01*
X151391952Y-98925142D01*
X151963381Y-99496571D01*
X151963381Y-98877523D01*
X151963381Y-97925142D02*
X151963381Y-98496571D01*
X151963381Y-98210857D02*
X150963381Y-98210857D01*
X151106238Y-98306095D01*
X151201476Y-98401333D01*
X151249095Y-98496571D01*
X156297381Y-100877523D02*
X157011667Y-100877523D01*
X157154524Y-100925143D01*
X157249762Y-101020381D01*
X157297381Y-101163238D01*
X157297381Y-101258476D01*
X157297381Y-100401333D02*
X156297381Y-100401333D01*
X156297381Y-100020380D01*
X156345000Y-99925142D01*
X156392619Y-99877523D01*
X156487857Y-99829904D01*
X156630714Y-99829904D01*
X156725952Y-99877523D01*
X156773571Y-99925142D01*
X156821190Y-100020380D01*
X156821190Y-100401333D01*
X156392619Y-99448952D02*
X156345000Y-99401333D01*
X156297381Y-99306095D01*
X156297381Y-99067999D01*
X156345000Y-98972761D01*
X156392619Y-98925142D01*
X156487857Y-98877523D01*
X156583095Y-98877523D01*
X156725952Y-98925142D01*
X157297381Y-99496571D01*
X157297381Y-98877523D01*
X156392619Y-98496571D02*
X156345000Y-98448952D01*
X156297381Y-98353714D01*
X156297381Y-98115618D01*
X156345000Y-98020380D01*
X156392619Y-97972761D01*
X156487857Y-97925142D01*
X156583095Y-97925142D01*
X156725952Y-97972761D01*
X157297381Y-98544190D01*
X157297381Y-97925142D01*
X161631381Y-100877523D02*
X162345667Y-100877523D01*
X162488524Y-100925143D01*
X162583762Y-101020381D01*
X162631381Y-101163238D01*
X162631381Y-101258476D01*
X162631381Y-100401333D02*
X161631381Y-100401333D01*
X161631381Y-100020380D01*
X161679000Y-99925142D01*
X161726619Y-99877523D01*
X161821857Y-99829904D01*
X161964714Y-99829904D01*
X162059952Y-99877523D01*
X162107571Y-99925142D01*
X162155190Y-100020380D01*
X162155190Y-100401333D01*
X161726619Y-99448952D02*
X161679000Y-99401333D01*
X161631381Y-99306095D01*
X161631381Y-99067999D01*
X161679000Y-98972761D01*
X161726619Y-98925142D01*
X161821857Y-98877523D01*
X161917095Y-98877523D01*
X162059952Y-98925142D01*
X162631381Y-99496571D01*
X162631381Y-98877523D01*
X161631381Y-98544190D02*
X161631381Y-97925142D01*
X162012333Y-98258476D01*
X162012333Y-98115618D01*
X162059952Y-98020380D01*
X162107571Y-97972761D01*
X162202810Y-97925142D01*
X162440905Y-97925142D01*
X162536143Y-97972761D01*
X162583762Y-98020380D01*
X162631381Y-98115618D01*
X162631381Y-98401333D01*
X162583762Y-98496571D01*
X162536143Y-98544190D01*
X166838381Y-100877523D02*
X167552667Y-100877523D01*
X167695524Y-100925143D01*
X167790762Y-101020381D01*
X167838381Y-101163238D01*
X167838381Y-101258476D01*
X167838381Y-100401333D02*
X166838381Y-100401333D01*
X166838381Y-100020380D01*
X166886000Y-99925142D01*
X166933619Y-99877523D01*
X167028857Y-99829904D01*
X167171714Y-99829904D01*
X167266952Y-99877523D01*
X167314571Y-99925142D01*
X167362190Y-100020380D01*
X167362190Y-100401333D01*
X166933619Y-99448952D02*
X166886000Y-99401333D01*
X166838381Y-99306095D01*
X166838381Y-99067999D01*
X166886000Y-98972761D01*
X166933619Y-98925142D01*
X167028857Y-98877523D01*
X167124095Y-98877523D01*
X167266952Y-98925142D01*
X167838381Y-99496571D01*
X167838381Y-98877523D01*
X167171714Y-98020380D02*
X167838381Y-98020380D01*
X166790762Y-98258476D02*
X167505048Y-98496571D01*
X167505048Y-97877523D01*
X169124381Y-100623523D02*
X169838667Y-100623523D01*
X169981524Y-100671143D01*
X170076762Y-100766381D01*
X170124381Y-100909238D01*
X170124381Y-101004476D01*
X170124381Y-100147333D02*
X169124381Y-100147333D01*
X169124381Y-99766380D01*
X169172000Y-99671142D01*
X169219619Y-99623523D01*
X169314857Y-99575904D01*
X169457714Y-99575904D01*
X169552952Y-99623523D01*
X169600571Y-99671142D01*
X169648190Y-99766380D01*
X169648190Y-100147333D01*
X169219619Y-99194952D02*
X169172000Y-99147333D01*
X169124381Y-99052095D01*
X169124381Y-98813999D01*
X169172000Y-98718761D01*
X169219619Y-98671142D01*
X169314857Y-98623523D01*
X169410095Y-98623523D01*
X169552952Y-98671142D01*
X170124381Y-99242571D01*
X170124381Y-98623523D01*
X169124381Y-97718761D02*
X169124381Y-98194952D01*
X169600571Y-98242571D01*
X169552952Y-98194952D01*
X169505333Y-98099714D01*
X169505333Y-97861618D01*
X169552952Y-97766380D01*
X169600571Y-97718761D01*
X169695810Y-97671142D01*
X169933905Y-97671142D01*
X170029143Y-97718761D01*
X170076762Y-97766380D01*
X170124381Y-97861618D01*
X170124381Y-98099714D01*
X170076762Y-98194952D01*
X170029143Y-98242571D01*
X166330381Y-111926523D02*
X167044667Y-111926523D01*
X167187524Y-111974143D01*
X167282762Y-112069381D01*
X167330381Y-112212238D01*
X167330381Y-112307476D01*
X167330381Y-111450333D02*
X166330381Y-111450333D01*
X166330381Y-111069380D01*
X166378000Y-110974142D01*
X166425619Y-110926523D01*
X166520857Y-110878904D01*
X166663714Y-110878904D01*
X166758952Y-110926523D01*
X166806571Y-110974142D01*
X166854190Y-111069380D01*
X166854190Y-111450333D01*
X166425619Y-110497952D02*
X166378000Y-110450333D01*
X166330381Y-110355095D01*
X166330381Y-110116999D01*
X166378000Y-110021761D01*
X166425619Y-109974142D01*
X166520857Y-109926523D01*
X166616095Y-109926523D01*
X166758952Y-109974142D01*
X167330381Y-110545571D01*
X167330381Y-109926523D01*
X166330381Y-109069380D02*
X166330381Y-109259857D01*
X166378000Y-109355095D01*
X166425619Y-109402714D01*
X166568476Y-109497952D01*
X166758952Y-109545571D01*
X167139905Y-109545571D01*
X167235143Y-109497952D01*
X167282762Y-109450333D01*
X167330381Y-109355095D01*
X167330381Y-109164618D01*
X167282762Y-109069380D01*
X167235143Y-109021761D01*
X167139905Y-108974142D01*
X166901810Y-108974142D01*
X166806571Y-109021761D01*
X166758952Y-109069380D01*
X166711333Y-109164618D01*
X166711333Y-109355095D01*
X166758952Y-109450333D01*
X166806571Y-109497952D01*
X166901810Y-109545571D01*
X161123381Y-111926523D02*
X161837667Y-111926523D01*
X161980524Y-111974143D01*
X162075762Y-112069381D01*
X162123381Y-112212238D01*
X162123381Y-112307476D01*
X162123381Y-111450333D02*
X161123381Y-111450333D01*
X161123381Y-111069380D01*
X161171000Y-110974142D01*
X161218619Y-110926523D01*
X161313857Y-110878904D01*
X161456714Y-110878904D01*
X161551952Y-110926523D01*
X161599571Y-110974142D01*
X161647190Y-111069380D01*
X161647190Y-111450333D01*
X161218619Y-110497952D02*
X161171000Y-110450333D01*
X161123381Y-110355095D01*
X161123381Y-110116999D01*
X161171000Y-110021761D01*
X161218619Y-109974142D01*
X161313857Y-109926523D01*
X161409095Y-109926523D01*
X161551952Y-109974142D01*
X162123381Y-110545571D01*
X162123381Y-109926523D01*
X161123381Y-109593190D02*
X161123381Y-108926523D01*
X162123381Y-109355095D01*
X155916381Y-111926523D02*
X156630667Y-111926523D01*
X156773524Y-111974143D01*
X156868762Y-112069381D01*
X156916381Y-112212238D01*
X156916381Y-112307476D01*
X156916381Y-111450333D02*
X155916381Y-111450333D01*
X155916381Y-111069380D01*
X155964000Y-110974142D01*
X156011619Y-110926523D01*
X156106857Y-110878904D01*
X156249714Y-110878904D01*
X156344952Y-110926523D01*
X156392571Y-110974142D01*
X156440190Y-111069380D01*
X156440190Y-111450333D01*
X156011619Y-110497952D02*
X155964000Y-110450333D01*
X155916381Y-110355095D01*
X155916381Y-110116999D01*
X155964000Y-110021761D01*
X156011619Y-109974142D01*
X156106857Y-109926523D01*
X156202095Y-109926523D01*
X156344952Y-109974142D01*
X156916381Y-110545571D01*
X156916381Y-109926523D01*
X156344952Y-109355095D02*
X156297333Y-109450333D01*
X156249714Y-109497952D01*
X156154476Y-109545571D01*
X156106857Y-109545571D01*
X156011619Y-109497952D01*
X155964000Y-109450333D01*
X155916381Y-109355095D01*
X155916381Y-109164618D01*
X155964000Y-109069380D01*
X156011619Y-109021761D01*
X156106857Y-108974142D01*
X156154476Y-108974142D01*
X156249714Y-109021761D01*
X156297333Y-109069380D01*
X156344952Y-109164618D01*
X156344952Y-109355095D01*
X156392571Y-109450333D01*
X156440190Y-109497952D01*
X156535429Y-109545571D01*
X156725905Y-109545571D01*
X156821143Y-109497952D01*
X156868762Y-109450333D01*
X156916381Y-109355095D01*
X156916381Y-109164618D01*
X156868762Y-109069380D01*
X156821143Y-109021761D01*
X156725905Y-108974142D01*
X156535429Y-108974142D01*
X156440190Y-109021761D01*
X156392571Y-109069380D01*
X156344952Y-109164618D01*
X150709381Y-111926523D02*
X151423667Y-111926523D01*
X151566524Y-111974143D01*
X151661762Y-112069381D01*
X151709381Y-112212238D01*
X151709381Y-112307476D01*
X151709381Y-111450333D02*
X150709381Y-111450333D01*
X150709381Y-111069380D01*
X150757000Y-110974142D01*
X150804619Y-110926523D01*
X150899857Y-110878904D01*
X151042714Y-110878904D01*
X151137952Y-110926523D01*
X151185571Y-110974142D01*
X151233190Y-111069380D01*
X151233190Y-111450333D01*
X150804619Y-110497952D02*
X150757000Y-110450333D01*
X150709381Y-110355095D01*
X150709381Y-110116999D01*
X150757000Y-110021761D01*
X150804619Y-109974142D01*
X150899857Y-109926523D01*
X150995095Y-109926523D01*
X151137952Y-109974142D01*
X151709381Y-110545571D01*
X151709381Y-109926523D01*
X151709381Y-109450333D02*
X151709381Y-109259857D01*
X151661762Y-109164618D01*
X151614143Y-109116999D01*
X151471286Y-109021761D01*
X151280810Y-108974142D01*
X150899857Y-108974142D01*
X150804619Y-109021761D01*
X150757000Y-109069380D01*
X150709381Y-109164618D01*
X150709381Y-109355095D01*
X150757000Y-109450333D01*
X150804619Y-109497952D01*
X150899857Y-109545571D01*
X151137952Y-109545571D01*
X151233190Y-109497952D01*
X151280810Y-109450333D01*
X151328429Y-109355095D01*
X151328429Y-109164618D01*
X151280810Y-109069380D01*
X151233190Y-109021761D01*
X151137952Y-108974142D01*
X145502381Y-111926523D02*
X146216667Y-111926523D01*
X146359524Y-111974143D01*
X146454762Y-112069381D01*
X146502381Y-112212238D01*
X146502381Y-112307476D01*
X146502381Y-111450333D02*
X145502381Y-111450333D01*
X145502381Y-111069380D01*
X145550000Y-110974142D01*
X145597619Y-110926523D01*
X145692857Y-110878904D01*
X145835714Y-110878904D01*
X145930952Y-110926523D01*
X145978571Y-110974142D01*
X146026190Y-111069380D01*
X146026190Y-111450333D01*
X145502381Y-110545571D02*
X145502381Y-109926523D01*
X145883333Y-110259857D01*
X145883333Y-110116999D01*
X145930952Y-110021761D01*
X145978571Y-109974142D01*
X146073810Y-109926523D01*
X146311905Y-109926523D01*
X146407143Y-109974142D01*
X146454762Y-110021761D01*
X146502381Y-110116999D01*
X146502381Y-110402714D01*
X146454762Y-110497952D01*
X146407143Y-110545571D01*
X145502381Y-109307476D02*
X145502381Y-109212237D01*
X145550000Y-109116999D01*
X145597619Y-109069380D01*
X145692857Y-109021761D01*
X145883333Y-108974142D01*
X146121429Y-108974142D01*
X146311905Y-109021761D01*
X146407143Y-109069380D01*
X146454762Y-109116999D01*
X146502381Y-109212237D01*
X146502381Y-109307476D01*
X146454762Y-109402714D01*
X146407143Y-109450333D01*
X146311905Y-109497952D01*
X146121429Y-109545571D01*
X145883333Y-109545571D01*
X145692857Y-109497952D01*
X145597619Y-109450333D01*
X145550000Y-109402714D01*
X145502381Y-109307476D01*
X140295381Y-111926523D02*
X141009667Y-111926523D01*
X141152524Y-111974143D01*
X141247762Y-112069381D01*
X141295381Y-112212238D01*
X141295381Y-112307476D01*
X141295381Y-111450333D02*
X140295381Y-111450333D01*
X140295381Y-111069380D01*
X140343000Y-110974142D01*
X140390619Y-110926523D01*
X140485857Y-110878904D01*
X140628714Y-110878904D01*
X140723952Y-110926523D01*
X140771571Y-110974142D01*
X140819190Y-111069380D01*
X140819190Y-111450333D01*
X140295381Y-110545571D02*
X140295381Y-109926523D01*
X140676333Y-110259857D01*
X140676333Y-110116999D01*
X140723952Y-110021761D01*
X140771571Y-109974142D01*
X140866810Y-109926523D01*
X141104905Y-109926523D01*
X141200143Y-109974142D01*
X141247762Y-110021761D01*
X141295381Y-110116999D01*
X141295381Y-110402714D01*
X141247762Y-110497952D01*
X141200143Y-110545571D01*
X141295381Y-108974142D02*
X141295381Y-109545571D01*
X141295381Y-109259857D02*
X140295381Y-109259857D01*
X140438238Y-109355095D01*
X140533476Y-109450333D01*
X140581095Y-109545571D01*
X135088381Y-111926523D02*
X135802667Y-111926523D01*
X135945524Y-111974143D01*
X136040762Y-112069381D01*
X136088381Y-112212238D01*
X136088381Y-112307476D01*
X136088381Y-111450333D02*
X135088381Y-111450333D01*
X135088381Y-111069380D01*
X135136000Y-110974142D01*
X135183619Y-110926523D01*
X135278857Y-110878904D01*
X135421714Y-110878904D01*
X135516952Y-110926523D01*
X135564571Y-110974142D01*
X135612190Y-111069380D01*
X135612190Y-111450333D01*
X135088381Y-110545571D02*
X135088381Y-109926523D01*
X135469333Y-110259857D01*
X135469333Y-110116999D01*
X135516952Y-110021761D01*
X135564571Y-109974142D01*
X135659810Y-109926523D01*
X135897905Y-109926523D01*
X135993143Y-109974142D01*
X136040762Y-110021761D01*
X136088381Y-110116999D01*
X136088381Y-110402714D01*
X136040762Y-110497952D01*
X135993143Y-110545571D01*
X135183619Y-109545571D02*
X135136000Y-109497952D01*
X135088381Y-109402714D01*
X135088381Y-109164618D01*
X135136000Y-109069380D01*
X135183619Y-109021761D01*
X135278857Y-108974142D01*
X135374095Y-108974142D01*
X135516952Y-109021761D01*
X136088381Y-109593190D01*
X136088381Y-108974142D01*
X128976381Y-112942666D02*
X128500190Y-113276000D01*
X128976381Y-113514095D02*
X127976381Y-113514095D01*
X127976381Y-113133142D01*
X128024000Y-113037904D01*
X128071619Y-112990285D01*
X128166857Y-112942666D01*
X128309714Y-112942666D01*
X128404952Y-112990285D01*
X128452571Y-113037904D01*
X128500190Y-113133142D01*
X128500190Y-113514095D01*
X128976381Y-111990285D02*
X128976381Y-112561714D01*
X128976381Y-112276000D02*
X127976381Y-112276000D01*
X128119238Y-112371238D01*
X128214476Y-112466476D01*
X128262095Y-112561714D01*
X130754381Y-96051666D02*
X130278190Y-96385000D01*
X130754381Y-96623095D02*
X129754381Y-96623095D01*
X129754381Y-96242142D01*
X129802000Y-96146904D01*
X129849619Y-96099285D01*
X129944857Y-96051666D01*
X130087714Y-96051666D01*
X130182952Y-96099285D01*
X130230571Y-96146904D01*
X130278190Y-96242142D01*
X130278190Y-96623095D01*
X129849619Y-95670714D02*
X129802000Y-95623095D01*
X129754381Y-95527857D01*
X129754381Y-95289761D01*
X129802000Y-95194523D01*
X129849619Y-95146904D01*
X129944857Y-95099285D01*
X130040095Y-95099285D01*
X130182952Y-95146904D01*
X130754381Y-95718333D01*
X130754381Y-95099285D01*
X136088381Y-96305666D02*
X135612190Y-96639000D01*
X136088381Y-96877095D02*
X135088381Y-96877095D01*
X135088381Y-96496142D01*
X135136000Y-96400904D01*
X135183619Y-96353285D01*
X135278857Y-96305666D01*
X135421714Y-96305666D01*
X135516952Y-96353285D01*
X135564571Y-96400904D01*
X135612190Y-96496142D01*
X135612190Y-96877095D01*
X135088381Y-95972333D02*
X135088381Y-95353285D01*
X135469333Y-95686619D01*
X135469333Y-95543761D01*
X135516952Y-95448523D01*
X135564571Y-95400904D01*
X135659810Y-95353285D01*
X135897905Y-95353285D01*
X135993143Y-95400904D01*
X136040762Y-95448523D01*
X136088381Y-95543761D01*
X136088381Y-95829476D01*
X136040762Y-95924714D01*
X135993143Y-95972333D01*
X141422381Y-96305666D02*
X140946190Y-96639000D01*
X141422381Y-96877095D02*
X140422381Y-96877095D01*
X140422381Y-96496142D01*
X140470000Y-96400904D01*
X140517619Y-96353285D01*
X140612857Y-96305666D01*
X140755714Y-96305666D01*
X140850952Y-96353285D01*
X140898571Y-96400904D01*
X140946190Y-96496142D01*
X140946190Y-96877095D01*
X140755714Y-95448523D02*
X141422381Y-95448523D01*
X140374762Y-95686619D02*
X141089048Y-95924714D01*
X141089048Y-95305666D01*
X146629381Y-96305666D02*
X146153190Y-96639000D01*
X146629381Y-96877095D02*
X145629381Y-96877095D01*
X145629381Y-96496142D01*
X145677000Y-96400904D01*
X145724619Y-96353285D01*
X145819857Y-96305666D01*
X145962714Y-96305666D01*
X146057952Y-96353285D01*
X146105571Y-96400904D01*
X146153190Y-96496142D01*
X146153190Y-96877095D01*
X145629381Y-95400904D02*
X145629381Y-95877095D01*
X146105571Y-95924714D01*
X146057952Y-95877095D01*
X146010333Y-95781857D01*
X146010333Y-95543761D01*
X146057952Y-95448523D01*
X146105571Y-95400904D01*
X146200810Y-95353285D01*
X146438905Y-95353285D01*
X146534143Y-95400904D01*
X146581762Y-95448523D01*
X146629381Y-95543761D01*
X146629381Y-95781857D01*
X146581762Y-95877095D01*
X146534143Y-95924714D01*
X151963381Y-96305666D02*
X151487190Y-96639000D01*
X151963381Y-96877095D02*
X150963381Y-96877095D01*
X150963381Y-96496142D01*
X151011000Y-96400904D01*
X151058619Y-96353285D01*
X151153857Y-96305666D01*
X151296714Y-96305666D01*
X151391952Y-96353285D01*
X151439571Y-96400904D01*
X151487190Y-96496142D01*
X151487190Y-96877095D01*
X150963381Y-95448523D02*
X150963381Y-95639000D01*
X151011000Y-95734238D01*
X151058619Y-95781857D01*
X151201476Y-95877095D01*
X151391952Y-95924714D01*
X151772905Y-95924714D01*
X151868143Y-95877095D01*
X151915762Y-95829476D01*
X151963381Y-95734238D01*
X151963381Y-95543761D01*
X151915762Y-95448523D01*
X151868143Y-95400904D01*
X151772905Y-95353285D01*
X151534810Y-95353285D01*
X151439571Y-95400904D01*
X151391952Y-95448523D01*
X151344333Y-95543761D01*
X151344333Y-95734238D01*
X151391952Y-95829476D01*
X151439571Y-95877095D01*
X151534810Y-95924714D01*
X157297381Y-96305666D02*
X156821190Y-96639000D01*
X157297381Y-96877095D02*
X156297381Y-96877095D01*
X156297381Y-96496142D01*
X156345000Y-96400904D01*
X156392619Y-96353285D01*
X156487857Y-96305666D01*
X156630714Y-96305666D01*
X156725952Y-96353285D01*
X156773571Y-96400904D01*
X156821190Y-96496142D01*
X156821190Y-96877095D01*
X156297381Y-95972333D02*
X156297381Y-95305666D01*
X157297381Y-95734238D01*
X162631381Y-96305666D02*
X162155190Y-96639000D01*
X162631381Y-96877095D02*
X161631381Y-96877095D01*
X161631381Y-96496142D01*
X161679000Y-96400904D01*
X161726619Y-96353285D01*
X161821857Y-96305666D01*
X161964714Y-96305666D01*
X162059952Y-96353285D01*
X162107571Y-96400904D01*
X162155190Y-96496142D01*
X162155190Y-96877095D01*
X162059952Y-95734238D02*
X162012333Y-95829476D01*
X161964714Y-95877095D01*
X161869476Y-95924714D01*
X161821857Y-95924714D01*
X161726619Y-95877095D01*
X161679000Y-95829476D01*
X161631381Y-95734238D01*
X161631381Y-95543761D01*
X161679000Y-95448523D01*
X161726619Y-95400904D01*
X161821857Y-95353285D01*
X161869476Y-95353285D01*
X161964714Y-95400904D01*
X162012333Y-95448523D01*
X162059952Y-95543761D01*
X162059952Y-95734238D01*
X162107571Y-95829476D01*
X162155190Y-95877095D01*
X162250429Y-95924714D01*
X162440905Y-95924714D01*
X162536143Y-95877095D01*
X162583762Y-95829476D01*
X162631381Y-95734238D01*
X162631381Y-95543761D01*
X162583762Y-95448523D01*
X162536143Y-95400904D01*
X162440905Y-95353285D01*
X162250429Y-95353285D01*
X162155190Y-95400904D01*
X162107571Y-95448523D01*
X162059952Y-95543761D01*
X167838381Y-96305666D02*
X167362190Y-96639000D01*
X167838381Y-96877095D02*
X166838381Y-96877095D01*
X166838381Y-96496142D01*
X166886000Y-96400904D01*
X166933619Y-96353285D01*
X167028857Y-96305666D01*
X167171714Y-96305666D01*
X167266952Y-96353285D01*
X167314571Y-96400904D01*
X167362190Y-96496142D01*
X167362190Y-96877095D01*
X167838381Y-95829476D02*
X167838381Y-95639000D01*
X167790762Y-95543761D01*
X167743143Y-95496142D01*
X167600286Y-95400904D01*
X167409810Y-95353285D01*
X167028857Y-95353285D01*
X166933619Y-95400904D01*
X166886000Y-95448523D01*
X166838381Y-95543761D01*
X166838381Y-95734238D01*
X166886000Y-95829476D01*
X166933619Y-95877095D01*
X167028857Y-95924714D01*
X167266952Y-95924714D01*
X167362190Y-95877095D01*
X167409810Y-95829476D01*
X167457429Y-95734238D01*
X167457429Y-95543761D01*
X167409810Y-95448523D01*
X167362190Y-95400904D01*
X167266952Y-95353285D01*
X170124381Y-96400857D02*
X169648190Y-96734191D01*
X170124381Y-96972286D02*
X169124381Y-96972286D01*
X169124381Y-96591333D01*
X169172000Y-96496095D01*
X169219619Y-96448476D01*
X169314857Y-96400857D01*
X169457714Y-96400857D01*
X169552952Y-96448476D01*
X169600571Y-96496095D01*
X169648190Y-96591333D01*
X169648190Y-96972286D01*
X170124381Y-95448476D02*
X170124381Y-96019905D01*
X170124381Y-95734191D02*
X169124381Y-95734191D01*
X169267238Y-95829429D01*
X169362476Y-95924667D01*
X169410095Y-96019905D01*
X169124381Y-94829429D02*
X169124381Y-94734190D01*
X169172000Y-94638952D01*
X169219619Y-94591333D01*
X169314857Y-94543714D01*
X169505333Y-94496095D01*
X169743429Y-94496095D01*
X169933905Y-94543714D01*
X170029143Y-94591333D01*
X170076762Y-94638952D01*
X170124381Y-94734190D01*
X170124381Y-94829429D01*
X170076762Y-94924667D01*
X170029143Y-94972286D01*
X169933905Y-95019905D01*
X169743429Y-95067524D01*
X169505333Y-95067524D01*
X169314857Y-95019905D01*
X169219619Y-94972286D01*
X169172000Y-94924667D01*
X169124381Y-94829429D01*
X167330381Y-114815857D02*
X166854190Y-115149191D01*
X167330381Y-115387286D02*
X166330381Y-115387286D01*
X166330381Y-115006333D01*
X166378000Y-114911095D01*
X166425619Y-114863476D01*
X166520857Y-114815857D01*
X166663714Y-114815857D01*
X166758952Y-114863476D01*
X166806571Y-114911095D01*
X166854190Y-115006333D01*
X166854190Y-115387286D01*
X167330381Y-113863476D02*
X167330381Y-114434905D01*
X167330381Y-114149191D02*
X166330381Y-114149191D01*
X166473238Y-114244429D01*
X166568476Y-114339667D01*
X166616095Y-114434905D01*
X167330381Y-112911095D02*
X167330381Y-113482524D01*
X167330381Y-113196810D02*
X166330381Y-113196810D01*
X166473238Y-113292048D01*
X166568476Y-113387286D01*
X166616095Y-113482524D01*
X162123381Y-114815857D02*
X161647190Y-115149191D01*
X162123381Y-115387286D02*
X161123381Y-115387286D01*
X161123381Y-115006333D01*
X161171000Y-114911095D01*
X161218619Y-114863476D01*
X161313857Y-114815857D01*
X161456714Y-114815857D01*
X161551952Y-114863476D01*
X161599571Y-114911095D01*
X161647190Y-115006333D01*
X161647190Y-115387286D01*
X162123381Y-113863476D02*
X162123381Y-114434905D01*
X162123381Y-114149191D02*
X161123381Y-114149191D01*
X161266238Y-114244429D01*
X161361476Y-114339667D01*
X161409095Y-114434905D01*
X161218619Y-113482524D02*
X161171000Y-113434905D01*
X161123381Y-113339667D01*
X161123381Y-113101571D01*
X161171000Y-113006333D01*
X161218619Y-112958714D01*
X161313857Y-112911095D01*
X161409095Y-112911095D01*
X161551952Y-112958714D01*
X162123381Y-113530143D01*
X162123381Y-112911095D01*
X156916381Y-114815857D02*
X156440190Y-115149191D01*
X156916381Y-115387286D02*
X155916381Y-115387286D01*
X155916381Y-115006333D01*
X155964000Y-114911095D01*
X156011619Y-114863476D01*
X156106857Y-114815857D01*
X156249714Y-114815857D01*
X156344952Y-114863476D01*
X156392571Y-114911095D01*
X156440190Y-115006333D01*
X156440190Y-115387286D01*
X156916381Y-113863476D02*
X156916381Y-114434905D01*
X156916381Y-114149191D02*
X155916381Y-114149191D01*
X156059238Y-114244429D01*
X156154476Y-114339667D01*
X156202095Y-114434905D01*
X155916381Y-113530143D02*
X155916381Y-112911095D01*
X156297333Y-113244429D01*
X156297333Y-113101571D01*
X156344952Y-113006333D01*
X156392571Y-112958714D01*
X156487810Y-112911095D01*
X156725905Y-112911095D01*
X156821143Y-112958714D01*
X156868762Y-113006333D01*
X156916381Y-113101571D01*
X156916381Y-113387286D01*
X156868762Y-113482524D01*
X156821143Y-113530143D01*
X151709381Y-114815857D02*
X151233190Y-115149191D01*
X151709381Y-115387286D02*
X150709381Y-115387286D01*
X150709381Y-115006333D01*
X150757000Y-114911095D01*
X150804619Y-114863476D01*
X150899857Y-114815857D01*
X151042714Y-114815857D01*
X151137952Y-114863476D01*
X151185571Y-114911095D01*
X151233190Y-115006333D01*
X151233190Y-115387286D01*
X151709381Y-113863476D02*
X151709381Y-114434905D01*
X151709381Y-114149191D02*
X150709381Y-114149191D01*
X150852238Y-114244429D01*
X150947476Y-114339667D01*
X150995095Y-114434905D01*
X151042714Y-113006333D02*
X151709381Y-113006333D01*
X150661762Y-113244429D02*
X151376048Y-113482524D01*
X151376048Y-112863476D01*
X146502381Y-114815857D02*
X146026190Y-115149191D01*
X146502381Y-115387286D02*
X145502381Y-115387286D01*
X145502381Y-115006333D01*
X145550000Y-114911095D01*
X145597619Y-114863476D01*
X145692857Y-114815857D01*
X145835714Y-114815857D01*
X145930952Y-114863476D01*
X145978571Y-114911095D01*
X146026190Y-115006333D01*
X146026190Y-115387286D01*
X146502381Y-113863476D02*
X146502381Y-114434905D01*
X146502381Y-114149191D02*
X145502381Y-114149191D01*
X145645238Y-114244429D01*
X145740476Y-114339667D01*
X145788095Y-114434905D01*
X145502381Y-112958714D02*
X145502381Y-113434905D01*
X145978571Y-113482524D01*
X145930952Y-113434905D01*
X145883333Y-113339667D01*
X145883333Y-113101571D01*
X145930952Y-113006333D01*
X145978571Y-112958714D01*
X146073810Y-112911095D01*
X146311905Y-112911095D01*
X146407143Y-112958714D01*
X146454762Y-113006333D01*
X146502381Y-113101571D01*
X146502381Y-113339667D01*
X146454762Y-113434905D01*
X146407143Y-113482524D01*
X141295381Y-114815857D02*
X140819190Y-115149191D01*
X141295381Y-115387286D02*
X140295381Y-115387286D01*
X140295381Y-115006333D01*
X140343000Y-114911095D01*
X140390619Y-114863476D01*
X140485857Y-114815857D01*
X140628714Y-114815857D01*
X140723952Y-114863476D01*
X140771571Y-114911095D01*
X140819190Y-115006333D01*
X140819190Y-115387286D01*
X141295381Y-113863476D02*
X141295381Y-114434905D01*
X141295381Y-114149191D02*
X140295381Y-114149191D01*
X140438238Y-114244429D01*
X140533476Y-114339667D01*
X140581095Y-114434905D01*
X140295381Y-113006333D02*
X140295381Y-113196810D01*
X140343000Y-113292048D01*
X140390619Y-113339667D01*
X140533476Y-113434905D01*
X140723952Y-113482524D01*
X141104905Y-113482524D01*
X141200143Y-113434905D01*
X141247762Y-113387286D01*
X141295381Y-113292048D01*
X141295381Y-113101571D01*
X141247762Y-113006333D01*
X141200143Y-112958714D01*
X141104905Y-112911095D01*
X140866810Y-112911095D01*
X140771571Y-112958714D01*
X140723952Y-113006333D01*
X140676333Y-113101571D01*
X140676333Y-113292048D01*
X140723952Y-113387286D01*
X140771571Y-113434905D01*
X140866810Y-113482524D01*
X136215381Y-114815857D02*
X135739190Y-115149191D01*
X136215381Y-115387286D02*
X135215381Y-115387286D01*
X135215381Y-115006333D01*
X135263000Y-114911095D01*
X135310619Y-114863476D01*
X135405857Y-114815857D01*
X135548714Y-114815857D01*
X135643952Y-114863476D01*
X135691571Y-114911095D01*
X135739190Y-115006333D01*
X135739190Y-115387286D01*
X136215381Y-113863476D02*
X136215381Y-114434905D01*
X136215381Y-114149191D02*
X135215381Y-114149191D01*
X135358238Y-114244429D01*
X135453476Y-114339667D01*
X135501095Y-114434905D01*
X135215381Y-113530143D02*
X135215381Y-112863476D01*
X136215381Y-113292048D01*
X129500381Y-108838905D02*
X130309905Y-108838905D01*
X130405143Y-108791286D01*
X130452762Y-108743667D01*
X130500381Y-108648429D01*
X130500381Y-108457952D01*
X130452762Y-108362714D01*
X130405143Y-108315095D01*
X130309905Y-108267476D01*
X129500381Y-108267476D01*
X130500381Y-107267476D02*
X130500381Y-107838905D01*
X130500381Y-107553191D02*
X129500381Y-107553191D01*
X129643238Y-107648429D01*
X129738476Y-107743667D01*
X129786095Y-107838905D01*
X166203381Y-107949905D02*
X167012905Y-107949905D01*
X167108143Y-107902286D01*
X167155762Y-107854667D01*
X167203381Y-107759429D01*
X167203381Y-107568952D01*
X167155762Y-107473714D01*
X167108143Y-107426095D01*
X167012905Y-107378476D01*
X166203381Y-107378476D01*
X166298619Y-106949905D02*
X166251000Y-106902286D01*
X166203381Y-106807048D01*
X166203381Y-106568952D01*
X166251000Y-106473714D01*
X166298619Y-106426095D01*
X166393857Y-106378476D01*
X166489095Y-106378476D01*
X166631952Y-106426095D01*
X167203381Y-106997524D01*
X167203381Y-106378476D01*
M02*
